<svg width="14" height="14" viewBox="0 0 14 14" fill="none" xmlns="http://www.w3.org/2000/svg">
<g id="arrow-up-small">
<path id="arrow-up-small_2" d="M9.64231 4.97592C9.55714 5.06108 9.44512 5.10423 9.33312 5.10423C9.22112 5.10423 9.10911 5.06167 9.02394 4.97592L7.43729 3.38927V11.6667C7.43729 11.9082 7.24129 12.1042 6.99979 12.1042C6.75829 12.1042 6.56229 11.9082 6.56229 11.6667V3.38984L4.97564 4.97649C4.80472 5.1474 4.52762 5.1474 4.3567 4.97649C4.18579 4.80557 4.18579 4.52847 4.3567 4.35755L6.69004 2.02422C6.73029 1.98397 6.77864 1.95196 6.83231 1.9298C6.93906 1.88546 7.05981 1.88546 7.16656 1.9298C7.22023 1.95196 7.26872 1.98397 7.30897 2.02422L9.64231 4.35755C9.81322 4.52847 9.81322 4.805 9.64231 4.97592Z" fill="#00AE1C"/>
</g>
</svg>
