<svg width="14" height="14" viewBox="0 0 14 14" fill="none" xmlns="http://www.w3.org/2000/svg">
<path d="M4.35672 9.0248C4.44188 8.93963 4.5539 8.89648 4.6659 8.89648C4.7779 8.89648 4.88992 8.93905 4.97508 9.0248L6.56173 10.6114L6.56173 2.33398C6.56173 2.09248 6.75773 1.89648 6.99923 1.89648C7.24073 1.89648 7.43673 2.09248 7.43673 2.33398L7.43673 10.6109L9.02338 9.02423C9.1943 8.85331 9.4714 8.85331 9.64232 9.02423C9.81324 9.19515 9.81324 9.47225 9.64232 9.64317L7.30899 11.9765C7.26874 12.0168 7.22038 12.0488 7.16671 12.0709C7.05996 12.1153 6.93921 12.1153 6.83246 12.0709C6.7788 12.0488 6.7303 12.0168 6.69005 11.9765L4.35672 9.64317C4.1858 9.47225 4.1858 9.19572 4.35672 9.0248Z" fill="#FF3030"/>
</svg>
