<svg width="16" height="16" viewBox="0 0 16 16" fill="none" xmlns="http://www.w3.org/2000/svg">
<path d="M14.2303 6.60851L14.2303 6.6086C14.7888 7.20033 14.7891 8.12663 14.2312 8.71783L14.2311 8.71793L10.2789 12.8979L10.2788 12.8981C9.90738 13.2898 9.34107 13.4145 8.84184 13.215C8.34071 13.0156 8.01656 12.537 8.01732 11.9981M14.2303 6.60851L8.16732 11.9983M14.2303 6.60851L10.2783 2.42849L10.2781 2.42834M14.2303 6.60851L10.2781 2.42834M8.01732 11.9981L8.16732 11.9983M8.01732 11.9981V11.9983H8.16732M8.01732 11.9981V10.322M8.16732 11.9983V10.3177C8.11685 10.3189 8.06685 10.3204 8.01732 10.322M8.01732 10.322C7.12118 10.3517 6.37661 10.4445 5.78445 10.5975C5.15693 10.7597 4.71336 10.9861 4.43879 11.2644M8.01732 10.322V10.1719C6.15752 10.2331 4.91905 10.5642 4.33203 11.159M4.43879 11.2644L4.33203 11.159M4.43879 11.2644C4.4388 11.2643 4.4388 11.2643 4.4388 11.2643L4.33203 11.159M4.43879 11.2644L4.33203 11.159M10.2781 2.42834C9.9067 2.03662 9.34029 1.91208 8.84099 2.1123M10.2781 2.42834L8.84099 2.1123M8.84099 2.1123C8.34006 2.31171 8.01591 2.78957 8.01667 3.32847M8.84099 2.1123L2.1576 13.4925C1.63577 12.5769 1.35 11.4537 1.35 10.3283C1.35 8.68336 1.95808 7.38069 3.12738 6.47741C4.2643 5.59916 5.91643 5.11017 8.01667 5.02807V3.32847M8.01667 3.32847V3.32826H8.16667L8.01667 3.32847ZM3.25545 13.9503L3.21598 13.8056L3.25525 13.9504C3.25532 13.9504 3.25538 13.9504 3.25545 13.9503ZM13.2857 7.82526L13.2857 7.82529L9.33393 12.0043C9.33392 12.0043 9.33391 12.0043 9.3339 12.0043C9.33164 12.0067 9.32989 12.0082 9.32871 12.0091C9.32721 12.0088 9.32516 12.0082 9.32267 12.0072L9.32196 12.0069C9.31972 12.006 9.31811 12.0052 9.31701 12.0046C9.31683 12.0031 9.31667 12.0011 9.31667 11.9983V9.66159C9.31667 9.30275 9.02551 9.01159 8.66667 9.01159C6.092 9.01159 4.43092 9.42066 3.51321 10.351C3.13601 10.733 2.92189 11.1632 2.80254 11.6087C2.70245 11.1963 2.65 10.7631 2.65 10.3276C2.65 9.49291 2.853 8.83178 3.1937 8.30739C3.53489 7.78225 4.0199 7.38552 4.59681 7.08952C5.75498 6.49528 7.26796 6.31501 8.66667 6.31501C9.02551 6.31501 9.31667 6.02385 9.31667 5.66501V3.32761C9.31667 3.32517 9.31679 3.3233 9.31695 3.32195C9.31798 3.3214 9.31939 3.32073 9.32126 3.31999L9.32127 3.32001L9.3232 3.31922C9.32506 3.31846 9.32706 3.31782 9.32888 3.3174C9.33009 3.31839 9.33176 3.31988 9.33384 3.32207C9.33386 3.32209 9.33389 3.32212 9.33391 3.32215L13.2857 7.50195L13.286 7.50223C13.3715 7.5922 13.3718 7.7343 13.2857 7.82526Z" fill="white" stroke="white" stroke-width="0.3"/>
</svg>
