<svg width="80" height="80" viewBox="0 0 80 80" fill="none" xmlns="http://www.w3.org/2000/svg">
<path d="M51.263 72.5H28.737C26.7636 72.5 24.8301 71.7002 23.4334 70.3035L9.69645 56.5666C8.29979 55.1699 7.5 53.2364 7.5 51.263V28.737C7.5 26.7636 8.29979 24.8301 9.69645 23.4334L23.4334 9.69645C24.8301 8.29979 26.7636 7.5 28.737 7.5H51.263C53.2364 7.5 55.1699 8.29979 56.5666 9.69645L70.3035 23.4334C71.7002 24.8301 72.5 26.7636 72.5 28.737V51.263C72.5 53.2364 71.7002 55.1699 70.3035 56.5666L56.5666 70.3035C55.1699 71.7002 53.2364 72.5 51.263 72.5ZM28.737 12.5C28.0803 12.5 27.4335 12.7666 26.9702 13.2332L13.2332 26.9702C12.7666 27.4369 12.5 28.0803 12.5 28.737V51.263C12.5 51.9197 12.7666 52.5665 13.2332 53.0298L26.9702 66.7668C27.4369 67.2334 28.0803 67.5 28.737 67.5H51.263C51.9197 67.5 52.5665 67.2334 53.0298 66.7668L66.7668 53.0298C67.2334 52.5631 67.5 51.9197 67.5 51.263V28.737C67.5 28.0803 67.2334 27.4335 66.7668 26.9702L53.0298 13.2332C52.5631 12.7666 51.9197 12.5 51.263 12.5H28.737ZM43.4001 50C43.4001 48.16 41.9101 46.6667 40.0667 46.6667H40.0334C38.1934 46.6667 36.7163 48.16 36.7163 50C36.7163 51.84 38.2267 53.3333 40.0667 53.3333C41.9067 53.3333 43.4001 51.84 43.4001 50ZM42.5 40V26.6667C42.5 25.2867 41.38 24.1667 40 24.1667C38.62 24.1667 37.5 25.2867 37.5 26.6667V40C37.5 41.38 38.62 42.5 40 42.5C41.38 42.5 42.5 41.38 42.5 40Z" fill="#FF8C00"/>
</svg>
