<svg width="26" height="26" viewBox="0 0 26 26" fill="none" xmlns="http://www.w3.org/2000/svg">
<path d="M18.4941 13.0007L24.8618 6.62617C26.3794 5.11341 26.3794 2.65647 24.8618 1.13849C23.3442 -0.379495 20.8879 -0.379495 19.3703 1.13849L13.0026 7.50253L6.63494 1.13849C5.11734 -0.379495 2.6558 -0.379495 1.1382 1.13849C-0.3794 2.65647 -0.3794 5.11341 1.1382 6.62617L7.51108 13.0007L1.1382 19.3699C-0.3794 20.8879 -0.3794 23.3448 1.1382 24.8576C1.89961 25.6192 2.89048 26 3.88657 26C4.88266 26 5.87353 25.6192 6.63494 24.8576L13.0026 18.4936L19.3703 24.8576C20.1265 25.6192 21.1226 26 22.1186 26C23.1095 26 24.1056 25.6192 24.8618 24.8576C26.3794 23.3448 26.3794 20.8879 24.8618 19.3699L18.4941 13.0007Z" fill="#FF3030"/>
</svg>
