<svg width="22" height="22" viewBox="0 0 22 22" fill="none" xmlns="http://www.w3.org/2000/svg">
<path d="M21.6557 10.0842C21.653 10.0438 21.6455 10.0051 21.6321 9.96687C21.6272 9.95265 21.6237 9.93887 21.6175 9.9251C21.5961 9.87887 21.569 9.83532 21.5317 9.79843C21.5312 9.79798 21.5312 9.79799 21.5312 9.79799L18.9948 7.2611V4.77843C18.9948 4.76865 18.9899 4.76021 18.989 4.75043C18.9863 4.71132 18.9788 4.67354 18.9663 4.63621C18.9615 4.62198 18.9579 4.60821 18.9512 4.59443C18.9295 4.54732 18.9023 4.50243 18.8641 4.46421L14.8641 0.464207C14.8259 0.425984 14.781 0.398429 14.7335 0.377095C14.7201 0.370873 14.7068 0.367318 14.693 0.362873C14.6552 0.34954 14.6166 0.341984 14.5761 0.339762C14.5677 0.338429 14.5597 0.333984 14.5503 0.333984H3.43924C3.1939 0.333984 2.99479 0.533095 2.99479 0.778429V7.2611L0.458347 9.79754C0.458347 9.79754 0.457903 9.79798 0.457458 9.79843C0.420125 9.83576 0.393458 9.87932 0.372125 9.9251C0.365903 9.93887 0.362347 9.95265 0.357458 9.96687C0.344125 10.0051 0.336125 10.0438 0.333903 10.0842C0.333014 10.094 0.328125 10.102 0.328125 10.1118V18.5562C0.328125 18.8015 0.527236 19.0007 0.772569 19.0007H2.99479V21.2229C2.99479 21.4682 3.1939 21.6673 3.43924 21.6673H18.5503C18.7957 21.6673 18.9948 21.4682 18.9948 21.2229V19.0007H21.217C21.4623 19.0007 21.6615 18.8015 21.6615 18.5562V10.1118C21.6615 10.102 21.6566 10.094 21.6557 10.0842ZM20.1441 9.66732H18.9948V8.51798L20.1441 9.66732ZM17.4775 4.33398H14.9948V1.85132L17.4775 4.33398ZM3.88368 1.22287H14.1059V4.77843C14.1059 5.02376 14.305 5.22287 14.5503 5.22287H18.1059V7.4451V9.66732H3.88368V7.4451V1.22287ZM2.99479 8.51798V9.66732H1.84546L2.99479 8.51798ZM18.1059 20.7784H3.88368V19.0007H18.1059V20.7784ZM20.7726 18.1118H1.21701V10.5562H3.43924H18.5503H20.7726V18.1118Z" fill="#017EFA"/>
<path d="M10.738 12.7281C10.8033 12.6676 10.8767 12.6236 10.9571 12.5956C11.0376 12.5681 11.1207 12.5543 11.2065 12.5543C11.5038 12.5543 11.7505 12.6725 11.9469 12.9094L12.4456 12.2596C12.2993 12.0885 12.1193 11.9587 11.9056 11.8703C11.6913 11.7823 11.4487 11.7383 11.1767 11.7383C10.9905 11.7383 10.8065 11.7698 10.6251 11.8325C10.4438 11.8956 10.2811 11.9925 10.1376 12.1236C9.99401 12.2547 9.87801 12.4196 9.79001 12.6183C9.70201 12.8174 9.65757 13.0556 9.65757 13.3325C9.65757 13.5543 9.68646 13.7441 9.74424 13.9027C9.80201 14.0618 9.88024 14.2001 9.97846 14.3183C10.0767 14.4369 10.19 14.5387 10.3185 14.6245C10.4469 14.7103 10.5842 14.7881 10.7305 14.8587C10.962 14.9747 11.1536 15.1005 11.3047 15.2365C11.4558 15.3725 11.5313 15.5565 11.5313 15.7881C11.5313 16.0249 11.4682 16.2085 11.3425 16.3396C11.2167 16.4707 11.058 16.5361 10.8665 16.5361C10.6953 16.5361 10.5278 16.4956 10.3638 16.4152C10.1998 16.3347 10.0602 16.2236 9.94424 16.0827L9.45312 16.7476C9.60424 16.9241 9.80557 17.0698 10.0576 17.1858C10.3096 17.3018 10.5838 17.3596 10.8811 17.3596C11.0878 17.3596 11.2842 17.3245 11.4705 17.2538C11.6567 17.1832 11.8193 17.0787 11.958 16.9401C12.0967 16.8018 12.2073 16.6316 12.2905 16.4303C12.3736 16.2289 12.4153 15.9969 12.4153 15.7352C12.4153 15.5085 12.3802 15.3121 12.3096 15.1458C12.2389 14.9796 12.1482 14.8361 12.0376 14.7152C11.9269 14.5943 11.8033 14.4912 11.6673 14.4054C11.5313 14.3196 11.398 14.2441 11.2669 14.1787C11.0451 14.0681 10.8665 13.9507 10.7305 13.8272C10.5945 13.7041 10.5265 13.5289 10.5265 13.3023C10.5265 13.1712 10.5451 13.0578 10.5833 12.9623C10.6211 12.8667 10.6727 12.7885 10.738 12.7281Z" fill="#017EFA"/>
<path d="M7.07217 13.1587C7.16284 12.9823 7.27617 12.8427 7.41217 12.7392C7.54817 12.6361 7.70684 12.5845 7.88817 12.5845C8.21573 12.5845 8.48239 12.7329 8.68906 13.0303L9.21039 12.3956C9.06417 12.1841 8.87528 12.0218 8.64373 11.9081C8.41217 11.7947 8.14239 11.7383 7.83528 11.7383C7.53795 11.7383 7.26728 11.8076 7.02284 11.9458C6.77839 12.0845 6.57084 12.2783 6.39928 12.5276C6.22817 12.7774 6.09573 13.0743 6.00284 13.4192C5.9095 13.7645 5.86328 14.1409 5.86328 14.5489C5.86328 14.9569 5.90995 15.3321 6.00284 15.6747C6.09573 16.0174 6.22684 16.3129 6.39573 16.5623C6.56461 16.8121 6.77084 17.0072 7.01528 17.1481C7.25973 17.2889 7.53306 17.3596 7.83528 17.3596C8.16773 17.3596 8.44328 17.2943 8.66239 17.1632C8.8815 17.0321 9.0615 16.8609 9.20239 16.6494L8.68106 16.0374C8.59528 16.1685 8.48817 16.2792 8.36017 16.3698C8.23217 16.4605 8.07928 16.5058 7.90328 16.5058C7.71706 16.5058 7.55439 16.4543 7.41573 16.3507C7.27706 16.2476 7.16284 16.1081 7.07173 15.9316C6.98061 15.7552 6.91306 15.5476 6.86773 15.3081C6.82239 15.0689 6.79973 14.8161 6.79973 14.5489C6.79973 14.2769 6.82239 14.0214 6.86773 13.7818C6.9135 13.5427 6.9815 13.3352 7.07217 13.1587Z" fill="#017EFA"/>
<path d="M14.5517 16.1646H14.529L13.6374 11.873H12.625L13.9321 17.2224H15.0806L16.4103 11.873H15.4432L14.5517 16.1646Z" fill="#017EFA"/>
</svg>
