<svg width="20" height="23" viewBox="0 0 20 23" fill="none" xmlns="http://www.w3.org/2000/svg">
<g id="Frame">
<g clip-path="url(#clip0_1201_58075)">
<path id="Vector" d="M13.0626 0.333984C13.2415 0.464671 13.4363 0.580573 13.5973 0.728408C15.3937 2.38416 17.1818 4.04642 18.9801 5.69981C19.0959 5.7993 19.1874 5.9206 19.2483 6.05555C19.3093 6.1905 19.3383 6.33596 19.3334 6.48215C19.3257 11.7202 19.324 16.9583 19.3283 22.1964C19.3283 22.7641 19.0727 23.0007 18.4595 23.0007H1.53043C0.935674 23.0007 0.676309 22.7594 0.676309 22.2059C0.676309 15.1973 0.674181 8.18856 0.669922 1.1796C0.669922 0.778081 0.804716 0.498377 1.20143 0.333984H13.0626ZM17.8775 21.6642V6.97415H12.9585C12.4302 6.97415 12.1536 6.71514 12.1536 6.22255C12.1536 4.78402 12.1536 3.34509 12.1536 1.90577V1.67869H2.12007V21.666L17.8775 21.6642ZM16.7391 5.64363L13.6088 2.74606V5.64363H16.7391Z" fill="#147E47"/>
<path id="Vector_2" d="M10.0105 10.0748C11.5727 10.0748 13.1346 10.0748 14.6964 10.0748C15.2247 10.0748 15.5006 10.3332 15.5006 10.8264C15.5006 13.4224 15.5006 16.0184 15.5006 18.6144C15.5006 19.1182 15.2257 19.3701 14.6759 19.3701H5.32853C4.76827 19.3701 4.49805 19.1194 4.49805 18.5954V10.8518C4.49805 10.3196 4.76316 10.0748 5.34641 10.0748C6.90218 10.074 8.45689 10.074 10.0105 10.0748ZM5.94244 12.7151H9.2714V11.4142H5.94244V12.7151ZM14.0518 12.7282V11.4172H10.7369V12.7264L14.0518 12.7282ZM5.95203 14.0664V15.3762H9.26948V14.0664H5.95203ZM10.7362 14.0664V15.3762H14.0556V14.0652L10.7362 14.0664ZM5.95011 16.7274V18.0283H9.27204V16.7274H5.95011ZM14.0569 16.7333H10.7337V18.0343H14.0556L14.0569 16.7333Z" fill="#147E47"/>
</g>
</g>
<defs>
<clipPath id="clip0_1201_58075">
<rect x="0.667969" y="0.333984" width="18.6667" height="22.6667" rx="2" fill="white"/>
</clipPath>
</defs>
</svg>
