<svg width="21" height="22" viewBox="0 0 22 20" fill="none" xmlns="http://www.w3.org/2000/svg">
<g clip-path="url(#clip0_2053_92362)">
<path d="M15.9338 14.9502C14.4381 16.036 12.6168 16.6376 10.7363 16.6668C4.61133 16.6668 1.11133 10.0002 1.11133 10.0002C2.19973 8.06843 3.70932 6.38069 5.53883 5.05018M8.89883 3.53352C9.50112 3.39925 10.1178 3.33213 10.7363 3.33352C16.8613 3.33352 20.3613 10.0002 20.3613 10.0002C19.8302 10.9465 19.1968 11.8375 18.4713 12.6585M12.5913 11.7668C12.351 12.0125 12.0612 12.2095 11.7392 12.3461C11.4172 12.4828 11.0696 12.5562 10.7172 12.5622C10.3647 12.5681 10.0146 12.5063 9.68774 12.3806C9.36088 12.2549 9.06396 12.0677 8.81469 11.8303C8.56543 11.5929 8.36892 11.3101 8.2369 10.9988C8.10487 10.6875 8.04004 10.3541 8.04626 10.0184C8.05248 9.68277 8.12962 9.35172 8.2731 9.04506C8.41657 8.73839 8.62342 8.46239 8.88133 8.23352" stroke="#97979F" stroke-width="2" stroke-linecap="round" stroke-linejoin="round"/>
<path d="M1.11133 0.833496L20.3613 19.1668" stroke="#97979F" stroke-width="2" stroke-linecap="round" stroke-linejoin="round"/>
</g>
<defs>
<clipPath id="clip0_2053_92362">
<rect width="21" height="20" fill="white" transform="translate(0.236328)"/>
</clipPath>
</defs>
</svg>
