<svg width="14" height="12" viewBox="0 0 14 12" fill="none" xmlns="http://www.w3.org/2000/svg">
<path d="M7.00024 0.682031C10.3995 0.682031 12.4033 3.20249 13.2858 4.68043C13.772 5.49379 13.772 6.50361 13.2858 7.31697L7.00024 0.682031ZM7.00024 0.682031C3.60096 0.682031 1.59717 3.20249 0.714711 4.68043M7.00024 0.682031L0.714711 4.68043M0.714711 4.68043L0.8435 4.75732M0.714711 4.68043L0.8435 4.75732M0.8435 4.75732L0.714787 4.6803C0.228392 5.49308 0.228426 6.50366 0.714758 7.31705M0.8435 4.75732C1.71883 3.29132 3.68357 0.832031 7.00024 0.832031C10.3169 0.832031 12.2816 3.29132 13.157 4.75732L0.714758 7.31705M0.714758 7.31705C1.59724 8.79499 3.60102 11.3154 7.00024 11.3154M0.714758 7.31705L7.00024 11.3154M7.00024 11.3154C10.3995 11.3154 12.4032 8.79499 13.2857 7.31705L7.00024 11.3154ZM12.1702 6.64975L12.1701 6.64983C11.4095 7.92374 9.73973 10.0154 7.00024 10.0154C4.26076 10.0154 2.59102 7.92441 1.8304 6.64989C1.59064 6.24791 1.59063 5.74891 1.83036 5.34692C2.591 4.07301 4.26075 1.98138 7.00024 1.98138C9.73974 1.98138 11.4095 4.07237 12.1701 5.34689L12.1701 5.34691C12.4105 5.74959 12.4105 6.24785 12.1702 6.64975ZM7.00024 3.01536C5.35471 3.01536 4.01691 4.35388 4.01691 5.9987C4.01691 7.64352 5.35471 8.98203 7.00024 8.98203C8.64577 8.98203 9.98357 7.64352 9.98357 5.9987C9.98357 4.35388 8.64577 3.01536 7.00024 3.01536ZM7.00024 7.68203C6.07175 7.68203 5.31691 6.92719 5.31691 5.9987C5.31691 5.07021 6.07175 4.31536 7.00024 4.31536C7.92873 4.31536 8.68357 5.07021 8.68357 5.9987C8.68357 6.92719 7.92873 7.68203 7.00024 7.68203Z" fill="#2DB0F6" stroke="#2DB0F6" stroke-width="0.3"/>
</svg>
