<svg width="16" height="16" viewBox="0 0 16 16" fill="none" xmlns="http://www.w3.org/2000/svg">
<path d="M5.1477 6.18917L5.68271 6.32738C5.68276 6.32739 5.6828 6.3274 5.68285 6.32741C5.73483 6.34108 5.78135 6.3964 5.78135 6.47331C5.78135 6.53196 5.75327 6.56927 5.73756 6.58578L5.81002 6.6547M5.1477 6.18917L4.92245 6.12204C5.05567 6.19904 5.15064 6.33633 5.16866 6.5013C5.18199 6.62464 5.27866 6.72201 5.38932 6.72201H5.65934C5.73001 6.72201 5.78068 6.68537 5.81002 6.6547M5.1477 6.18917C5.21253 6.27364 5.25563 6.37656 5.26807 6.49044L5.26808 6.49055C5.27702 6.57321 5.33928 6.62201 5.38932 6.62201H5.65934C5.69308 6.62201 5.71938 6.60479 5.73775 6.58558L5.81002 6.6547M5.1477 6.18917L5.70801 6.23063C5.81001 6.2573 5.88135 6.35731 5.88135 6.47331C5.88135 6.56664 5.83602 6.62737 5.81002 6.6547M4.61988 5.95734C4.61555 5.95771 4.61121 5.95812 4.60686 5.95858L4.60673 5.95859C4.27671 5.99383 4.0394 6.29077 4.07456 6.61991L4.07457 6.62C4.13018 7.13634 4.46721 7.55394 4.9186 7.72953C4.95005 8.03124 5.20534 8.26667 5.51534 8.26667C5.8235 8.26667 6.0776 8.03403 6.1115 7.7349C6.29198 7.66848 6.45963 7.56501 6.60115 7.41896L6.60146 7.41864C6.84611 7.16391 6.98066 6.82839 6.98066 6.47404C6.98066 6.02896 6.7672 5.62423 6.42621 5.37601C6.4307 5.37566 6.4352 5.37528 6.43971 5.37484L6.44063 5.37474C6.77066 5.3395 7.00792 5.04256 6.97277 4.71342L6.97276 4.71333C6.91642 4.19049 6.57117 3.76922 6.11067 3.59786C6.07621 3.29932 5.82238 3.06732 5.51465 3.06732C5.20414 3.06732 4.94851 3.30352 4.91775 3.60596C4.42102 3.79972 4.06602 4.28623 4.06602 4.86068C4.06602 5.15837 4.16267 5.45036 4.33821 5.68096C4.41828 5.78697 4.51346 5.88005 4.61988 5.95734ZM5.89936 5.14459L5.36508 5.00673C5.36497 5.0067 5.36486 5.00667 5.36476 5.00664C5.33454 4.99849 5.31287 4.9792 5.29517 4.95691C5.27851 4.93455 5.26602 4.89929 5.26602 4.86068C5.26602 4.76719 5.33128 4.71133 5.38798 4.71133H5.658C5.70983 4.71133 5.77026 4.75793 5.77922 4.84255L5.77923 4.84265C5.79146 4.95719 5.83446 5.06022 5.89936 5.14459ZM8.66667 9.93333C8.9979 9.93333 9.26667 9.66456 9.26667 9.33333C9.26667 9.0021 8.9979 8.73333 8.66667 8.73333H4.66667C4.33544 8.73333 4.06667 9.0021 4.06667 9.33333C4.06667 9.66456 4.33544 9.93333 4.66667 9.93333H8.66667ZM6.66667 10.7333H4.66667C4.33544 10.7333 4.06667 11.0021 4.06667 11.3333C4.06667 11.6646 4.33544 11.9333 4.66667 11.9333H6.66667C6.9979 11.9333 7.26667 11.6646 7.26667 11.3333C7.26667 11.0021 6.9979 10.7333 6.66667 10.7333ZM14.6 12.6667V7.66667C14.6 6.7841 13.8826 6.06667 13 6.06667H11.9333V4C11.9333 3.17613 11.7061 2.52238 11.2585 2.07479C10.811 1.6272 10.1572 1.4 9.33333 1.4H4C3.17613 1.4 2.52238 1.6272 2.07479 2.07479C1.6272 2.52238 1.4 3.17613 1.4 4V12C1.4 12.8239 1.6272 13.4776 2.07479 13.9252C2.52238 14.3728 3.17613 14.6 4 14.6H12.6667C13.7332 14.6 14.6 13.7332 14.6 12.6667ZM10.7333 12.6667C10.7333 12.9261 10.7849 13.1738 10.8779 13.4H4C3.48578 13.4 3.14281 13.2899 2.92646 13.0735C2.71012 12.8572 2.6 12.5142 2.6 12V4C2.6 3.48578 2.71012 3.14281 2.92646 2.92646C3.14281 2.71012 3.48578 2.6 4 2.6H9.33333C9.84755 2.6 10.1905 2.71012 10.4069 2.92646C10.6232 3.14281 10.7333 3.48578 10.7333 4V12.6667ZM13 7.26667C13.2208 7.26667 13.4 7.4459 13.4 7.66667V12.6667C13.4 13.0708 13.0708 13.4 12.6667 13.4C12.2626 13.4 11.9333 13.0708 11.9333 12.6667V7.26667H13Z" fill="white" stroke="white" stroke-width="0.2"/>
</svg>
