<svg width="24" height="16" viewBox="0 0 24 16" fill="none" xmlns="http://www.w3.org/2000/svg">
<g clip-path="url(#clip0_2978_88465)">
<path d="M23.9988 4.00023C23.828 4.43342 23.5943 4.81204 23.1325 5.00246C23.0954 5.01694 23.0684 5.08153 23.0561 5.1283C22.5662 7.08301 22.0767 9.03809 21.5875 10.9936C21.4752 11.4301 21.2403 11.6071 20.7774 11.6083C14.9429 11.6253 9.10812 11.6394 3.27291 11.6506C2.79763 11.6506 2.56505 11.4691 2.45156 11.0203C1.97403 9.11716 1.49426 7.21515 1.02909 5.31092C1.01575 5.22796 0.982016 5.14953 0.930875 5.08253C0.879735 5.01553 0.812751 4.96203 0.73583 4.92674C0.460285 4.7838 0.241866 4.55238 0.11633 4.27037C-0.00920457 3.98836 -0.0344135 3.67246 0.0448233 3.3744C0.118932 3.06623 0.296563 2.79219 0.548555 2.59728C0.800547 2.40238 1.11192 2.29818 1.43155 2.30181C1.75118 2.30543 2.06006 2.41667 2.30749 2.61724C2.55491 2.81781 2.72616 3.09581 2.79313 3.40558C2.85028 3.65508 2.83689 3.91537 2.75443 4.15781C2.67196 4.40026 2.52362 4.61546 2.32572 4.77974C2.37741 4.83765 2.4201 4.8911 2.46729 4.93787C3.01224 5.48242 3.55493 6.02807 4.10212 6.56928C5.27179 7.72518 6.9774 7.62941 7.98415 6.33431C8.96617 5.0715 9.92347 3.79088 10.8965 2.52251C10.983 2.41115 10.9583 2.34767 10.883 2.24522C10.5167 1.74745 10.474 1.21181 10.792 0.686201C11.11 0.160589 11.6111 -0.0509928 12.2257 0.0180495C12.737 0.0748424 13.21 0.49578 13.3583 1.03253C13.4246 1.26003 13.4305 1.50066 13.3754 1.73108C13.3203 1.96151 13.206 2.17391 13.0437 2.34767C13.0437 2.3666 13.0437 2.38442 13.0527 2.39556C14.0763 3.7519 15.0752 5.12495 16.1313 6.46014C16.3427 6.72551 16.6076 6.94426 16.9091 7.10242C17.2106 7.26057 17.5421 7.35465 17.8824 7.37865C18.2227 7.40265 18.5643 7.35604 18.8853 7.2418C19.2064 7.12755 19.4999 6.94818 19.7471 6.71516C20.4066 6.10268 21.0212 5.44233 21.6572 4.79756C21.5587 4.68496 21.4675 4.56631 21.3841 4.44233C21.2376 4.2205 21.161 3.96048 21.164 3.69535C21.167 3.43023 21.2495 3.17198 21.401 2.95346C21.5299 2.73866 21.7182 2.565 21.9436 2.45309C22.1691 2.34117 22.4222 2.2957 22.6729 2.32206C23.274 2.3666 23.6841 2.68286 23.9089 3.23966C23.937 3.30981 23.9673 3.37997 23.9965 3.45012L23.9988 4.00023Z" fill="#FF8C00"/>
<path d="M12.0425 16.0001H3.58297C3.48184 16.0001 3.37959 16.0001 3.27847 15.9923C3.11648 15.986 2.96313 15.9182 2.85018 15.803C2.73723 15.6877 2.67334 15.5338 2.67173 15.3731C2.65825 14.8163 2.65825 14.2595 2.67173 13.7028C2.67437 13.5342 2.74342 13.3733 2.86414 13.2545C2.98486 13.1356 3.14768 13.0683 3.3178 13.0669C3.3796 13.0669 3.44252 13.0669 3.50431 13.0669H20.5639C21.1762 13.0669 21.4178 13.3041 21.4178 13.9043V15.1593C21.4178 15.7685 21.1841 16.0034 20.5729 16.0034H12.0425V16.0001Z" fill="#FF8C00"/>
</g>
<defs>
<clipPath id="clip0_2978_88465">
<rect width="24" height="16" fill="white"/>
</clipPath>
</defs>
</svg>
