<svg width="16" height="16" viewBox="0 0 16 16" fill="none" xmlns="http://www.w3.org/2000/svg">
<path d="M11.1668 5.53597V4.66667C11.1668 2.92067 9.74616 1.5 8.00016 1.5C6.25416 1.5 4.8335 2.92067 4.8335 4.66667V5.53597C3.5415 5.7073 2.8335 6.564 2.8335 8V12C2.8335 13.612 3.7215 14.5 5.3335 14.5H10.6668C12.2788 14.5 13.1668 13.612 13.1668 12V8C13.1668 6.56467 12.4588 5.70797 11.1668 5.53597ZM8.00016 2.5C9.19483 2.5 10.1668 3.472 10.1668 4.66667V5.5H5.8335V4.66667C5.8335 3.472 6.8055 2.5 8.00016 2.5ZM12.1668 12C12.1668 13.0513 11.7182 13.5 10.6668 13.5H5.3335C4.28216 13.5 3.8335 13.0513 3.8335 12V8C3.8335 6.94867 4.28216 6.5 5.3335 6.5H10.6668C11.7182 6.5 12.1668 6.94867 12.1668 8V12ZM8.84684 9.33333C8.84684 9.608 8.7055 9.84004 8.50016 9.99137V11.3333C8.50016 11.6093 8.27616 11.8333 8.00016 11.8333C7.72416 11.8333 7.50016 11.6093 7.50016 11.3333V9.97461C7.30816 9.82194 7.17676 9.59667 7.17676 9.33333C7.17676 8.87333 7.54684 8.5 8.00684 8.5H8.01351C8.47351 8.5 8.84684 8.87333 8.84684 9.33333Z" fill="#97979F"/>
</svg>
