<svg width="445" height="356" viewBox="0 0 445 356" fill="none" xmlns="http://www.w3.org/2000/svg">
<path d="M211.849 356C247.008 356 281.377 345.561 310.61 326.002C339.844 306.443 362.628 278.643 376.083 246.118C389.538 213.592 393.058 177.803 386.199 143.274C379.34 108.745 362.409 77.0288 337.548 52.1351C312.688 27.2413 281.013 10.2885 246.53 3.4203C212.047 -3.44787 176.304 0.0771249 143.821 13.5495C111.339 27.0219 83.576 49.8366 64.0429 79.1086C44.5097 108.381 34.084 142.795 34.084 178C34.084 225.209 52.8128 270.484 86.1503 303.865C119.488 337.247 164.703 356 211.849 356Z" fill="#F2F6F8"/>
<path d="M282.274 51.2656H145.187C132.097 51.2656 121.485 61.8914 121.485 74.999V257.493C121.485 270.601 132.097 281.227 145.187 281.227H282.274C295.364 281.227 305.976 270.601 305.976 257.493V74.999C305.976 61.8914 295.364 51.2656 282.274 51.2656Z" fill="url(#paint0_linear_1_19808)"/>
<path d="M204.59 80.9297H145.039C141.03 80.9297 137.78 84.1838 137.78 88.198C137.78 92.2122 141.03 95.4664 145.039 95.4664H204.59C208.599 95.4664 211.849 92.2122 211.849 88.198C211.849 84.1838 208.599 80.9297 204.59 80.9297Z" fill="#97979F"/>
<path d="M278.659 122.168H145.039C141.03 122.168 137.78 125.422 137.78 129.436C137.78 133.45 141.03 136.705 145.039 136.705H278.659C282.668 136.705 285.918 133.45 285.918 129.436C285.918 125.422 282.668 122.168 278.659 122.168Z" fill="#DEDEDE"/>
<path d="M278.659 163.402H145.039C141.03 163.402 137.78 166.656 137.78 170.671C137.78 174.685 141.03 177.939 145.039 177.939H278.659C282.668 177.939 285.918 174.685 285.918 170.671C285.918 166.656 282.668 163.402 278.659 163.402Z" fill="#DEDEDE"/>
<path d="M278.659 204.641H145.039C141.03 204.641 137.78 207.895 137.78 211.909C137.78 215.923 141.03 219.177 145.039 219.177H278.659C282.668 219.177 285.918 215.923 285.918 211.909C285.918 207.895 282.668 204.641 278.659 204.641Z" fill="#DEDEDE"/>
<path d="M145.039 245.879H278.659C280.584 245.879 282.431 246.645 283.792 248.008C285.153 249.371 285.918 251.22 285.918 253.147C285.918 255.075 285.153 256.924 283.792 258.287C282.431 259.65 280.584 260.416 278.659 260.416H145.039C143.114 260.416 141.268 259.65 139.906 258.287C138.545 256.924 137.78 255.075 137.78 253.147C137.78 251.22 138.545 249.371 139.906 248.008C141.268 246.645 143.114 245.879 145.039 245.879Z" fill="#DEDEDE"/>
<g filter="url(#filter0_d_1_19808)">
<path d="M416.502 25.8398H327.5C325.456 25.8942 323.516 26.759 322.108 28.2442C320.7 29.7294 319.938 31.7135 319.99 33.7608V77.8455C319.942 79.8903 320.706 81.8706 322.114 83.3526C323.521 84.8346 325.458 85.6973 327.5 85.7517H416.502C418.543 85.6973 420.481 84.8346 421.888 83.3526C423.296 81.8706 424.06 79.8903 424.012 77.8455V33.7608C424.064 31.7135 423.302 29.7294 421.894 28.2442C420.485 26.759 418.546 25.8942 416.502 25.8398Z" fill="white"/>
</g>
<path d="M342.211 65.2648C343.968 65.2648 345.687 64.7429 347.149 63.7649C348.61 62.787 349.749 61.397 350.422 59.7707C351.095 58.1445 351.271 56.355 350.928 54.6285C350.585 52.9021 349.739 51.3163 348.495 50.0716C347.252 48.8269 345.669 47.9793 343.945 47.6359C342.22 47.2925 340.433 47.4687 338.809 48.1423C337.185 48.8159 335.797 49.9567 334.82 51.4203C333.844 52.8839 333.322 54.6046 333.322 56.3648C333.322 58.7253 334.259 60.989 335.926 62.6581C337.592 64.3272 339.853 65.2648 342.211 65.2648Z" fill="#C0E9FF"/>
<path d="M371.838 47.4648H401.466C403.823 47.4648 406.084 48.4025 407.75 50.0716C409.417 51.7407 410.354 54.0044 410.354 56.3648C410.354 58.7253 409.417 60.989 407.75 62.6581C406.084 64.3272 403.823 65.2648 401.466 65.2648H371.838C369.481 65.2648 367.22 64.3272 365.553 62.6581C363.886 60.989 362.95 58.7253 362.95 56.3648C362.95 54.0044 363.886 51.7407 365.553 50.0716C367.22 48.4025 369.481 47.4648 371.838 47.4648Z" fill="#DEDEDE"/>
<path fill-rule="evenodd" clip-rule="evenodd" d="M263.861 291.564C282.215 291.603 300.162 286.148 315.398 275.9L375.69 333.528L397.555 308.133L339.381 252.523C351.394 235.576 357.372 215.079 356.357 194.322C355.343 173.565 347.393 153.752 333.785 138.06C320.177 122.369 301.699 111.71 281.317 107.794C260.934 103.878 239.829 106.932 221.387 116.465C202.945 125.999 188.237 141.459 179.621 160.366C171.006 179.273 168.984 200.53 173.879 220.725C178.774 240.921 190.302 258.884 206.614 271.733C222.926 284.582 243.076 291.571 263.831 291.579L263.861 291.564ZM342.833 198.856C342.836 214.383 338.24 229.562 329.627 242.473C321.014 255.384 308.771 265.448 294.445 271.391C280.12 277.334 264.356 278.89 249.148 275.861C233.939 272.833 219.97 265.356 209.005 254.377C198.04 243.398 190.574 229.41 187.549 214.181C184.525 198.953 186.079 183.168 192.014 168.824C197.949 154.48 208 142.22 220.894 133.596C233.788 124.972 248.947 120.37 264.453 120.373C285.241 120.373 305.177 128.642 319.876 143.36C334.575 158.079 342.833 178.041 342.833 198.856Z" fill="#C0E9FF"/>
<path d="M264.438 278.868C309.028 278.868 345.173 243.001 345.173 198.768C345.173 154.535 309.028 118.668 264.438 118.668C219.849 118.668 183.703 154.535 183.703 198.768C183.703 243.001 219.849 278.868 264.438 278.868Z" fill="white" fill-opacity="0.3"/>
<path d="M278.393 198.765L297.932 179.274C299.294 177.836 300.207 176.03 300.559 174.079C300.911 172.129 300.685 170.118 299.911 168.293C299.137 166.469 297.848 164.911 296.201 163.81C294.555 162.709 292.624 162.114 290.644 162.097C287.98 162.052 285.403 163.046 283.459 164.871L263.875 184.362L244.336 164.871C243.399 163.877 242.27 163.084 241.018 162.542C239.761 161.989 238.406 161.696 237.033 161.682C235.663 161.655 234.301 161.903 233.029 162.413C231.757 162.922 230.599 163.683 229.626 164.648C228.657 165.611 227.896 166.762 227.389 168.03C226.873 169.29 226.615 170.64 226.633 172.001C226.651 173.363 226.943 174.706 227.493 175.951C228.048 177.197 228.844 178.321 229.833 179.259L249.447 198.765L229.863 218.256C228.873 219.194 228.078 220.318 227.522 221.564C226.973 222.809 226.681 224.153 226.663 225.514C226.645 226.875 226.902 228.226 227.419 229.485C227.915 230.756 228.666 231.912 229.626 232.882C230.599 233.847 231.757 234.608 233.029 235.117C234.301 235.627 235.663 235.875 237.033 235.848C238.401 235.832 239.751 235.539 241.003 234.988C242.256 234.446 243.385 233.653 244.321 232.659L263.905 213.168L283.489 232.659C285.448 234.376 287.985 235.283 290.586 235.198C293.188 235.113 295.66 234.041 297.503 232.199C299.346 230.373 300.417 227.906 300.494 225.311C300.571 222.715 299.649 220.189 297.918 218.256L278.393 198.765Z" fill="#97979F"/>
<path d="M375.689 333.512L397.555 308.117L400.843 311.262C404.049 314.409 405.947 318.654 406.156 323.144C406.365 327.635 404.869 332.038 401.969 335.47C400.569 337.119 398.849 338.466 396.914 339.43C394.979 340.393 392.868 340.954 390.711 341.077C388.557 341.176 386.407 340.832 384.392 340.067C382.376 339.301 380.539 338.131 378.993 336.627L375.704 333.482L375.689 333.512Z" fill="#C0E9FF"/>
<path fill-rule="evenodd" clip-rule="evenodd" d="M73.059 92.218C73.0406 90.0622 72.7671 87.9162 72.2442 85.8248C70.3777 78.2895 62.0968 73.439 53.2677 72.3117C44.4387 71.1843 35.269 73.795 31.7285 80.3217C30.8362 81.753 30.2447 83.3515 29.99 85.0194C29.7353 86.6873 29.8228 88.3897 30.2471 90.0227C31.2063 92.8289 33.1272 95.2043 35.669 96.7273C43.0759 101.608 55.9935 102.661 61.9042 100.554C64.643 99.6069 67.3154 98.477 69.9036 97.1723C68.4222 105.701 62.8819 113.771 55.4898 121.054C39.4465 136.866 14.5297 148.867 0.960297 153.287C0.61218 153.418 0.325997 153.675 0.158589 154.008C-0.00881952 154.34 -0.0452061 154.724 0.0566558 155.082C0.104316 155.261 0.187514 155.428 0.301277 155.574C0.41504 155.721 0.557033 155.842 0.718796 155.932C0.880558 156.022 1.05877 156.079 1.24279 156.098C1.42681 156.118 1.61287 156.1 1.78987 156.046C15.6259 151.596 41.0168 139.284 57.386 123.16C65.8447 114.824 71.8739 105.449 72.896 95.5852C92.0206 84.9052 107.708 65.5328 121.13 49.2162C121.371 48.9244 121.491 48.5514 121.466 48.1735C121.442 47.7957 121.273 47.4417 120.996 47.184C120.861 47.0602 120.701 46.9654 120.527 46.9056C120.354 46.8457 120.17 46.822 119.987 46.8359C119.804 46.8498 119.625 46.901 119.463 46.9863C119.3 47.0717 119.157 47.1895 119.041 47.3323C106.183 62.9815 91.2355 81.5825 73.059 92.218ZM70.2888 93.7755C70.3975 91.3402 70.153 88.9019 69.5629 86.5368C67.963 80.025 60.5709 76.1535 52.927 75.1745C48.415 74.4807 43.7992 75.0559 39.5946 76.8358C37.2742 77.8227 35.3391 79.5415 34.0839 81.7308C33.3853 82.8181 32.9148 84.0362 32.7009 85.3112C32.487 86.5862 32.5341 87.8914 32.8396 89.1475C33.6088 91.3063 35.1145 93.1238 37.0911 94.2798C43.8314 98.7298 55.6083 99.6792 60.9857 97.8102C64.1889 96.7149 67.2998 95.3657 70.2888 93.7755Z" fill="#97979F"/>
<path d="M411.836 238.816C416.744 238.816 420.724 234.831 420.724 229.916C420.724 225 416.744 221.016 411.836 221.016C406.927 221.016 402.947 225 402.947 229.916C402.947 234.831 406.927 238.816 411.836 238.816Z" fill="#DEDEDE"/>
<path fill-rule="evenodd" clip-rule="evenodd" d="M76.1253 291.313C77.7813 290.756 79.3223 289.901 80.6731 288.791C82.0384 287.454 82.937 285.711 83.2359 283.822C83.784 281.449 83.9914 278.927 84.6432 276.554C84.763 276.002 85.0855 275.515 85.5468 275.189C85.9684 274.863 86.4978 274.71 87.0282 274.759C87.4241 274.781 87.8068 274.909 88.1355 275.131C88.4641 275.353 88.7266 275.66 88.8947 276.02C88.9914 276.234 89.0658 276.458 89.1169 276.687C89.1169 276.91 89.117 277.592 89.2503 277.874C89.3688 278.571 89.4725 279.268 89.5762 279.966C89.7157 282.178 90.2162 284.353 91.0576 286.403C92.4352 289.37 93.8277 291.076 95.6943 291.877C97.8943 292.56 100.249 292.56 102.449 291.877L103.234 291.699C103.836 291.605 104.449 291.754 104.941 292.112C105.432 292.471 105.762 293.011 105.857 293.612C105.979 294.215 105.865 294.841 105.54 295.363C105.215 295.884 104.703 296.261 104.109 296.416L103.368 296.579C99.6199 297.558 95.2943 301.029 92.7759 304.085C91.9908 305.034 90.865 307.659 89.7095 309.336C89.08 310.36 88.1627 311.175 87.0727 311.679C86.6301 311.825 86.1524 311.825 85.7098 311.679C85.1555 311.548 84.6729 311.208 84.3617 310.73C84.1286 310.403 83.9717 310.028 83.9025 309.632C83.9025 309.41 83.9025 308.846 83.9025 308.579C83.6655 307.734 83.384 306.888 83.1766 306.028C82.6275 304.174 81.7216 302.446 80.5101 300.94C79.5403 299.433 78.1566 298.238 76.5252 297.499C75.6183 297.284 74.7233 297.021 73.8439 296.712C73.1989 296.433 72.6739 295.934 72.3626 295.303C72.1398 294.816 72.0527 294.278 72.1107 293.746C72.1885 293.111 72.4938 292.526 72.9699 292.099C73.3529 291.759 73.8173 291.524 74.318 291.417C74.718 291.387 75.9623 291.328 76.1253 291.313ZM86.7468 287.961L87.0134 288.554C89.0429 292.811 91.2946 295.185 94.0351 296.327H94.1388C92.3888 297.678 90.7895 299.215 89.3688 300.91C88.6309 301.957 87.9723 303.058 87.3986 304.203C86.6771 302.033 85.6008 299.998 84.2136 298.181C83.2667 296.727 82.0557 295.464 80.6435 294.458C81.7045 293.889 82.6984 293.202 83.6062 292.411C84.9784 291.187 86.0527 289.665 86.7468 287.961Z" fill="#C0E9FF"/>
<defs>
<filter id="filter0_d_1_19808" x="299.987" y="9.83984" width="144.027" height="99.9102" filterUnits="userSpaceOnUse" color-interpolation-filters="sRGB">
<feFlood flood-opacity="0" result="BackgroundImageFix"/>
<feColorMatrix in="SourceAlpha" type="matrix" values="0 0 0 0 0 0 0 0 0 0 0 0 0 0 0 0 0 0 127 0" result="hardAlpha"/>
<feOffset dy="4"/>
<feGaussianBlur stdDeviation="10"/>
<feComposite in2="hardAlpha" operator="out"/>
<feColorMatrix type="matrix" values="0 0 0 0 0 0 0 0 0 0 0 0 0 0 0 0 0 0 0.1 0"/>
<feBlend mode="normal" in2="BackgroundImageFix" result="effect1_dropShadow_1_19808"/>
<feBlend mode="normal" in="SourceGraphic" in2="effect1_dropShadow_1_19808" result="shape"/>
</filter>
<linearGradient id="paint0_linear_1_19808" x1="213.731" y1="51.2656" x2="213.731" y2="281.227" gradientUnits="userSpaceOnUse">
<stop stop-color="white"/>
<stop offset="0.72" stop-color="#FAFAFA"/>
</linearGradient>
</defs>
</svg>
