<svg width="22" height="22" viewBox="0 0 22 22" fill="none" xmlns="http://www.w3.org/2000/svg">
<path d="M21.6576 10.0842C21.655 10.0438 21.6474 10.0051 21.6341 9.96687C21.6292 9.95265 21.6256 9.93887 21.6194 9.9251C21.5981 9.87887 21.571 9.83532 21.5336 9.79843C21.5332 9.79798 21.5332 9.79799 21.5332 9.79799L18.9967 7.2611V4.77843C18.9967 4.76865 18.9919 4.76021 18.991 4.75043C18.9883 4.71132 18.9807 4.67354 18.9683 4.63621C18.9634 4.62198 18.9599 4.60821 18.9532 4.59443C18.9314 4.54732 18.9043 4.50243 18.8661 4.46421L14.8661 0.464207C14.8279 0.425984 14.783 0.398429 14.7354 0.376651C14.7221 0.370873 14.7087 0.366873 14.6954 0.362429C14.6572 0.349095 14.6181 0.34154 14.5781 0.338873C14.5692 0.338429 14.5612 0.333984 14.5523 0.333984H3.44119C3.19586 0.333984 2.99674 0.533095 2.99674 0.778429V7.2611L0.4603 9.79754C0.4603 9.79754 0.459856 9.79798 0.459411 9.79843C0.422078 9.83576 0.395411 9.87932 0.374078 9.9251C0.367856 9.93887 0.3643 9.95265 0.359411 9.96687C0.346078 10.0051 0.338078 10.0438 0.335856 10.0842C0.334967 10.094 0.330078 10.102 0.330078 10.1118V18.5562C0.330078 18.8015 0.529189 19.0007 0.774523 19.0007H2.99674V21.2229C2.99674 21.4682 3.19586 21.6673 3.44119 21.6673H18.5523C18.7976 21.6673 18.9967 21.4682 18.9967 21.2229V19.0007H21.219C21.4643 19.0007 21.6634 18.8015 21.6634 18.5562V10.1118C21.6634 10.102 21.6585 10.094 21.6576 10.0842ZM20.1461 9.66732H18.9967V8.51798L20.1461 9.66732ZM17.4794 4.33398H14.9967V1.85132L17.4794 4.33398ZM3.88563 1.22287H14.1079V4.77843C14.1079 5.02376 14.307 5.22287 14.5523 5.22287H18.1079V7.4451V9.66732H3.88563V7.4451V1.22287ZM2.99674 8.51798V9.66732H1.84741L2.99674 8.51798ZM18.1079 20.7784H3.88563V19.0007H18.1079V20.7784ZM20.7745 18.1118H1.21897V10.5562H3.44119H18.5523H20.7745V18.1118Z" fill="#F23B3D"/>
<path d="M8.44265 12.209C8.29909 12.0859 8.13687 11.9988 7.95509 11.9486C7.77376 11.8984 7.59731 11.873 7.4262 11.873H5.94531V17.2224H6.83687V15.0766H7.47153C7.65776 15.0766 7.83909 15.0437 8.01553 14.9784C8.19198 14.913 8.34798 14.8122 8.48398 14.6762C8.61998 14.5402 8.72931 14.3704 8.81287 14.1659C8.89598 13.9619 8.93776 13.7242 8.93776 13.4522C8.93776 13.1499 8.89109 12.8979 8.79776 12.6966C8.70442 12.4953 8.5862 12.3326 8.44265 12.209ZM7.87242 14.1135C7.73642 14.2619 7.56265 14.3362 7.35109 14.3362H6.83731V12.6362H7.35109C7.56265 12.6362 7.73642 12.7015 7.87242 12.8326C8.00842 12.9637 8.07642 13.1726 8.07642 13.4597C8.07642 13.7468 8.00842 13.9646 7.87242 14.1135Z" fill="#F23B3D"/>
<path d="M13.9863 17.2224H14.9006V14.9255H16.2681V14.1473H14.8934V12.689H16.3814V11.873H13.9863V17.2224Z" fill="#F23B3D"/>
<path d="M11.0285 11.873H9.68359V17.2224H11.0209C11.7111 17.2224 12.2338 16.9895 12.5889 16.5237C12.944 16.0575 13.1214 15.4015 13.1214 14.5553C13.1214 13.709 12.944 13.0504 12.5889 12.5793C12.2338 12.1086 11.7138 11.873 11.0285 11.873ZM12.128 15.3748C12.0703 15.6095 11.988 15.8046 11.8827 15.9606C11.7769 16.1166 11.6512 16.2339 11.5049 16.3117C11.3587 16.3899 11.2 16.429 11.0289 16.429H10.5983V12.6664H11.0289C11.2 12.6664 11.3587 12.7055 11.5049 12.7837C11.6512 12.8615 11.7769 12.9788 11.8827 13.1348C11.9885 13.2908 12.0703 13.4873 12.128 13.7242C12.1858 13.961 12.2151 14.2379 12.2151 14.5553C12.2151 14.8677 12.1858 15.1406 12.128 15.3748Z" fill="#F23B3D"/>
</svg>
