<svg width="25" height="25" viewBox="0 0 16 17" fill="none" xmlns="http://www.w3.org/2000/svg">
<g id="plus-circle">
<path id="plus-circle_2" d="M8.00016 1.33398C4.04816 1.33398 0.833496 4.54932 0.833496 8.50065C0.833496 12.452 4.04816 15.6673 8.00016 15.6673C11.9522 15.6673 15.1668 12.452 15.1668 8.50065C15.1668 4.54932 11.9522 1.33398 8.00016 1.33398ZM8.00016 14.6673C4.5995 14.6673 1.8335 11.9013 1.8335 8.50065C1.8335 5.09998 4.5995 2.33398 8.00016 2.33398C11.4008 2.33398 14.1668 5.09998 14.1668 8.50065C14.1668 11.9013 11.4008 14.6673 8.00016 14.6673ZM10.8335 8.50065C10.8335 8.77665 10.6095 9.00065 10.3335 9.00065H8.50016V10.834C8.50016 11.11 8.27616 11.334 8.00016 11.334C7.72416 11.334 7.50016 11.11 7.50016 10.834V9.00065H5.66683C5.39083 9.00065 5.16683 8.77665 5.16683 8.50065C5.16683 8.22465 5.39083 8.00065 5.66683 8.00065H7.50016V6.16732C7.50016 5.89132 7.72416 5.66732 8.00016 5.66732C8.27616 5.66732 8.50016 5.89132 8.50016 6.16732V8.00065H10.3335C10.6095 8.00065 10.8335 8.22465 10.8335 8.50065Z" fill="#2DB0F6"/>
</g>
</svg>
