<svg width="21" height="20" viewBox="0 0 21 20" fill="none" xmlns="http://www.w3.org/2000/svg">
<path d="M4.42383 7.19935V0.666016H15.9156V7.19935" stroke="#0A51CE" stroke-linecap="round" stroke-linejoin="round"/>
<path d="M4.42435 15.5992H2.50905C2.00108 15.5992 1.51392 15.4026 1.15473 15.0525C0.79554 14.7024 0.59375 14.2276 0.59375 13.7326V9.06589C0.59375 8.57081 0.79554 8.09602 1.15473 7.74595C1.51392 7.39589 2.00108 7.19922 2.50905 7.19922H17.8314C18.3394 7.19922 18.8266 7.39589 19.1858 7.74595C19.5449 8.09602 19.7467 8.57081 19.7467 9.06589V13.7326C19.7467 14.2276 19.5449 14.7024 19.1858 15.0525C18.8266 15.4026 18.3394 15.5992 17.8314 15.5992H15.9161" stroke="#0A51CE" stroke-linecap="round" stroke-linejoin="round"/>
<path d="M15.9176 11.8672H4.42578V19.3339H15.9176V11.8672Z" stroke="#0A51CE" stroke-linecap="round" stroke-linejoin="round"/>
</svg>
