<svg width="52" height="57" viewBox="0 0 52 57" fill="none" xmlns="http://www.w3.org/2000/svg">
<g id="objects">
<g id="Group">
<g id="Group_2">
<path id="Vector" d="M26.5914 56.6919L31.8591 53.8247C43.6905 47.3849 51.0686 34.8983 51.0686 21.315V7.60162C51.0686 6.53405 50.2317 5.64796 49.176 5.61898C36.7276 5.278 29.0051 1.64567 26.4631 0.239707C25.8855 -0.0799022 25.1833 -0.0799022 24.6054 0.239707C22.0635 1.64567 14.3409 5.27785 1.89255 5.61898C0.836893 5.64796 0 6.53405 0 7.60162V21.315C0 34.8983 7.37812 47.3849 19.2095 53.8247L24.4772 56.6919C25.1371 57.0511 25.9315 57.0511 26.5914 56.6919Z" fill="#DEDEDE"/>
<path id="Vector_2" d="M48.5435 9.21601V20.8533C48.5435 33.8077 41.5412 45.6645 30.2703 51.8006L26.5335 53.8336C26.2228 54.0024 25.8784 54.0885 25.534 54.0885C25.1895 54.0885 24.8451 54.0024 24.5344 53.8336L20.7976 51.8006C9.52683 45.6645 2.52441 33.8077 2.52441 20.8533V9.21601C2.52441 8.66559 2.96007 8.21472 3.50878 8.17584C14.1127 7.45486 21.3935 4.64508 25.0779 2.8452C25.2248 2.77262 25.3785 2.73718 25.5338 2.73718C25.6892 2.73718 25.8428 2.77262 25.9897 2.8452C29.6741 4.64523 36.9567 7.45486 47.5589 8.17584C48.1079 8.21472 48.5435 8.66559 48.5435 9.21601Z" fill="#2DB0F6"/>
<path id="Vector_3" d="M48.5437 9.21601V20.8533C48.5437 33.8077 41.5415 45.6645 30.2705 51.8006L26.5337 53.8336C26.223 54.0024 25.8786 54.0885 25.5342 54.0885V2.73718C25.6895 2.73718 25.8432 2.77262 25.9901 2.8452C29.6745 4.64523 36.957 7.45486 47.5592 8.17584C48.1081 8.21472 48.5437 8.66559 48.5437 9.21601Z" fill="#158CB5"/>
<path id="Vector_4" d="M34.2847 23.8083H16.7848C15.7429 23.8083 14.897 24.6542 14.897 25.6961V39.65C14.897 40.6919 15.7429 41.5378 16.7848 41.5378H34.2847C35.3266 41.5378 36.1725 40.6919 36.1725 39.65V25.6961C36.1723 24.6542 35.3264 23.8083 34.2847 23.8083ZM27.2233 33.5578V34.9526C27.2233 35.8846 26.4669 36.6411 25.5347 36.6411C24.6026 36.6411 23.8462 35.8847 23.8462 34.9526V33.5578C23.1285 33.0378 22.6641 32.1917 22.6641 31.2378C22.6641 29.6522 23.9492 28.3673 25.5346 28.3673C27.12 28.3673 28.405 29.6522 28.405 31.2378C28.4052 32.1919 27.9408 33.0378 27.2233 33.5578Z" fill="white"/>
<path id="Vector_5" d="M31.7813 18.5805V20.7689C31.7813 21.515 31.1765 22.1198 30.4304 22.1198C29.6843 22.1198 29.0795 21.515 29.0795 20.7689V18.6676C29.0795 16.7474 27.5891 15.1097 25.6703 15.0373C23.6531 14.9611 21.9877 16.58 21.9877 18.5807V22.4576H19.2861V18.6824C19.2861 15.2776 21.9688 12.4207 25.3725 12.3351C27.162 12.2901 28.7845 12.997 29.9509 14.1634C31.0823 15.2946 31.7813 16.8548 31.7813 18.5805Z" fill="white"/>
</g>
</g>
</g>
</svg>
