<svg width="32" height="32" viewBox="0 0 32 32" fill="none" xmlns="http://www.w3.org/2000/svg">
<circle cx="16" cy="16" r="16" fill="#2DB0F6"/>
<path d="M19.9582 12.92V11.8333C19.9582 9.65083 18.1823 7.875 15.9998 7.875C13.8173 7.875 12.0415 9.65083 12.0415 11.8333V12.92C10.4265 13.1341 9.5415 14.205 9.5415 16V21C9.5415 23.015 10.6515 24.125 12.6665 24.125H19.3332C21.3482 24.125 22.4582 23.015 22.4582 21V16C22.4582 14.2058 21.5732 13.135 19.9582 12.92ZM15.9998 9.125C17.4932 9.125 18.7082 10.34 18.7082 11.8333V12.875H13.2915V11.8333C13.2915 10.34 14.5065 9.125 15.9998 9.125ZM21.2082 21C21.2082 22.3142 20.6473 22.875 19.3332 22.875H12.6665C11.3523 22.875 10.7915 22.3142 10.7915 21V16C10.7915 14.6858 11.3523 14.125 12.6665 14.125H19.3332C20.6473 14.125 21.2082 14.6858 21.2082 16V21ZM17.0582 17.6667C17.0582 18.01 16.8815 18.3001 16.6248 18.4892V20.1667C16.6248 20.5117 16.3448 20.7917 15.9998 20.7917C15.6548 20.7917 15.3748 20.5117 15.3748 20.1667V18.4683C15.1348 18.2774 14.9706 17.9958 14.9706 17.6667C14.9706 17.0917 15.4332 16.625 16.0082 16.625H16.0165C16.5915 16.625 17.0582 17.0917 17.0582 17.6667Z" fill="white"/>
</svg>
