<svg width="50" height="50" viewBox="0 0 50 50" fill="none" xmlns="http://www.w3.org/2000/svg">
<circle cx="25" cy="25" r="23.5" fill="white" stroke="#2DB0F6" stroke-width="3"/>
<path d="M27.9375 13.75C29.15 13.7625 30.1375 14.3868 30.7125 15.5105C30.8609 15.8071 31.068 16.2402 31.2848 16.6971L31.5465 17.2496L31.675 17.5208L31.8 17.7955C31.85 17.8829 31.9375 17.9453 32.05 17.9453C35.05 17.9453 37.5 20.3926 37.5 23.3893V30.806C37.5 33.8027 35.05 36.25 32.05 36.25H17.95C14.9375 36.25 12.5 33.8027 12.5 30.806V23.3893C12.5 20.3926 14.9375 17.9453 17.95 17.9453C18.05 17.9453 18.15 17.8954 18.1875 17.7955L18.2625 17.6457C18.6125 16.909 19.0375 16.01 19.2875 15.5105C19.8625 14.3868 20.8375 13.7625 22.05 13.75H27.9375ZM25 21.7536C23.6875 21.7536 22.45 22.2655 21.5125 23.202C20.5875 24.1385 20.075 25.3621 20.0875 26.6607C20.0875 27.9717 20.6 29.1953 21.525 30.1318C22.4625 31.0558 23.6875 31.5677 25 31.5677C26.35 31.5677 27.575 31.0183 28.4625 30.1318C29.35 29.2453 29.9 28.0216 29.9125 26.6607C29.9125 25.3621 29.4 24.126 28.475 23.1895C27.55 22.2655 26.3125 21.7536 25 21.7536ZM25 23.6265C25.8125 23.6265 26.575 23.9387 27.15 24.513C27.725 25.0874 28.0375 25.8491 28.0375 26.6607C28.025 28.3338 26.675 29.6948 25 29.6948C24.1875 29.6948 23.425 29.3826 22.85 28.8083C22.275 28.2339 21.9625 27.4723 21.9625 26.6607V26.6482C21.95 25.8615 22.2625 25.0999 22.8375 24.5255C23.425 23.9387 24.1875 23.6265 25 23.6265ZM32.0125 21.4539C31.3875 21.4539 30.8875 21.9659 30.8875 22.5902C30.8875 23.2145 31.3875 23.7139 32.0125 23.7139C32.6375 23.7139 33.15 23.2145 33.15 22.5902C33.15 21.9659 32.6375 21.4539 32.0125 21.4539Z" fill="#2DB0F6"/>
</svg>
