<svg width="29" height="30" viewBox="0 0 29 30" fill="none" xmlns="http://www.w3.org/2000/svg">
<path d="M14.4897 29.6074C14.4897 29.6084 14.4889 29.6092 14.4879 29.6092C14.3746 29.6092 14.2613 29.6092 14.148 29.6092C11.3404 29.6092 10.2053 28.5691 10.121 25.9193C10.0659 24.1893 8.38937 23.2676 6.78485 24.086C6.54422 24.2087 6.31211 24.348 6.06607 24.4595C4.99903 24.943 3.88516 24.9785 2.94753 24.3093C1.45838 23.2464 0.568502 21.7432 0.293216 20.0052C0.105307 18.8187 0.74446 17.872 1.79859 17.2103C2.06432 17.0435 2.35342 16.9092 2.61273 16.7345C3.88359 15.8782 3.87332 14.1651 2.5937 13.3149C2.37036 13.1666 2.12384 13.0503 1.89167 12.9135C0.303064 11.9777 -0.199466 10.2404 0.679362 8.67442C1.01158 8.0824 1.37022 7.50318 1.73337 6.92757C2.7732 5.2792 4.6303 4.81654 6.38574 5.76011C6.56404 5.85596 6.73831 5.95947 6.92172 6.04548C8.40559 6.74125 10.0385 5.82759 10.1177 4.25694C10.1297 4.01886 10.1174 3.77981 10.1241 3.54139C10.1723 1.82948 11.551 0.50166 13.3432 0.457396C14.0945 0.438809 14.8469 0.442012 15.5984 0.455737C17.435 0.489308 18.8252 1.80975 18.8731 3.5538C18.8808 3.83557 18.8605 4.11963 18.8909 4.39889C19.048 5.84149 20.5753 6.68269 21.9653 6.09066C22.2966 5.94958 22.602 5.75416 22.9292 5.60324C24.4302 4.91102 26.1686 5.34142 27.0864 6.66873C27.561 7.35512 27.9972 8.07079 28.3874 8.80384C29.1534 10.2426 28.6663 11.9183 27.2589 12.8163C26.9757 12.997 26.6654 13.1401 26.3869 13.3267C25.1132 14.1804 25.1211 15.8953 26.4023 16.7443C26.6818 16.9295 26.9922 17.0724 27.2744 17.2543C28.68 18.1601 29.1536 19.8324 28.3804 21.2715C27.9976 21.9841 27.5729 22.6802 27.1151 23.3516C26.1591 24.7536 24.3424 25.1793 22.7878 24.3978C22.5062 24.2562 22.2398 24.0839 21.9496 23.9621C20.5347 23.3679 18.9832 24.2696 18.8825 25.7405C18.8632 26.0214 18.8817 26.3044 18.8702 26.586C18.8029 28.2282 17.4396 29.5365 15.7197 29.6034C15.3109 29.6193 14.9009 29.6058 14.4915 29.6057C14.4905 29.6057 14.4897 29.6064 14.4897 29.6074ZM19.9647 15.0805C20.0036 12.2766 17.5896 9.881 14.6717 9.82799C11.5593 9.77143 9.06222 12.0674 9.03321 15.0123C9.00571 17.8115 11.4297 20.1881 14.3588 20.2337C17.4314 20.2816 19.9245 17.9898 19.9647 15.0805Z" fill="#2DB0F6"/>
<path d="M16.2946 14.9014C16.2814 15.8567 15.4628 16.6092 14.4539 16.5935C13.492 16.5786 12.6961 15.7982 12.7052 14.879C12.7146 13.912 13.5346 13.1581 14.5566 13.1767C15.5147 13.1941 16.3074 13.9807 16.2946 14.9014Z" fill="#2DB0F6"/>
</svg>
