<svg width="29" height="30" viewBox="0 0 29 30" fill="none" xmlns="http://www.w3.org/2000/svg">
<path d="M14.2397 29.1629C14.2397 29.1639 14.2389 29.1648 14.2379 29.1648C14.1246 29.1648 14.0113 29.1648 13.898 29.1648C11.0904 29.1647 9.95528 28.1246 9.87097 25.4749C9.8159 23.7448 8.13937 22.8232 6.53485 23.6415C6.29422 23.7643 6.06211 23.9035 5.81607 24.015C4.74903 24.4985 3.63516 24.534 2.69753 23.8649C1.20838 22.802 0.318502 21.2988 0.0432155 19.5607C-0.144693 18.3742 0.49446 17.4275 1.54859 16.7658C1.81432 16.599 2.10342 16.4648 2.36273 16.2901C3.63359 15.4338 3.62332 13.7206 2.3437 12.8705C2.12036 12.7221 1.87384 12.6058 1.64167 12.4691C0.0530645 11.5332 -0.449466 9.79599 0.429362 8.22998C0.76158 7.63795 1.12022 7.05874 1.48337 6.48313C2.5232 4.83476 4.3803 4.3721 6.13574 5.31566C6.31404 5.41151 6.48831 5.51503 6.67172 5.60104C8.15559 6.29681 9.78845 5.38315 9.86766 3.8125C9.87967 3.57442 9.86742 3.33537 9.87415 3.09695C9.92225 1.38504 11.301 0.0572177 13.0932 0.0129531C13.8445 -0.0056334 14.5969 -0.0024308 15.3484 0.0112946C17.185 0.0448648 18.5752 1.36531 18.6231 3.10936C18.6308 3.39113 18.6105 3.67519 18.6409 3.95444C18.798 5.39705 20.3253 6.23824 21.7153 5.64622C22.0466 5.50513 22.352 5.30972 22.6792 5.15879C24.1802 4.46657 25.9186 4.89698 26.8364 6.22429C27.311 6.91068 27.7472 7.62634 28.1374 8.3594C28.9034 9.79817 28.4163 11.4738 27.0089 12.3719C26.7257 12.5526 26.4154 12.6957 26.1369 12.8823C24.8632 13.736 24.8711 15.4508 26.1523 16.2999C26.4318 16.4851 26.7422 16.6279 27.0244 16.8099C28.43 17.7157 28.9036 19.388 28.1304 20.8271C27.7476 21.5397 27.3229 22.2358 26.8651 22.9072C25.9091 24.3092 24.0924 24.7349 22.5378 23.9533C22.2562 23.8118 21.9898 23.6395 21.6996 23.5176C20.2847 22.9235 18.7332 23.8252 18.6325 25.2961C18.6132 25.5769 18.6317 25.86 18.6202 26.1416C18.5529 27.7838 17.1896 29.0921 15.4697 29.1589C15.0609 29.1748 14.6509 29.1613 14.2415 29.1613C14.2405 29.1613 14.2397 29.162 14.2397 29.1629ZM19.7147 14.6361C19.7536 11.8321 17.3396 9.43656 14.4217 9.38354C11.3093 9.32698 8.81222 11.6229 8.78321 14.5678C8.75571 17.3671 11.1797 19.7437 14.1088 19.7893C17.1814 19.8371 19.6745 17.5454 19.7147 14.6361Z" fill="#97979F"/>
<path d="M16.0446 14.457C16.0314 15.4123 15.2128 16.1648 14.2039 16.1491C13.242 16.1341 12.4461 15.3538 12.4552 14.4346C12.4646 13.4676 13.2846 12.7137 14.3066 12.7323C15.2647 12.7497 16.0574 13.5362 16.0446 14.457Z" fill="#97979F"/>
</svg>
