<svg width="16" height="16" viewBox="0 0 16 16" fill="none" xmlns="http://www.w3.org/2000/svg">
<path d="M8.00619 7.16667C6.44352 7.16667 5.17285 5.89533 5.17285 4.33333C5.17285 2.77133 6.44352 1.5 8.00619 1.5C9.56885 1.5 10.8395 2.77133 10.8395 4.33333C10.8395 5.89533 9.56885 7.16667 8.00619 7.16667ZM8.00619 2.5C6.99485 2.5 6.17285 3.322 6.17285 4.33333C6.17285 5.34467 6.99485 6.16667 8.00619 6.16667C9.01752 6.16667 9.83952 5.34467 9.83952 4.33333C9.83952 3.322 9.01685 2.5 8.00619 2.5ZM10.6648 14.5H5.33553C3.7222 14.5 2.8335 13.6167 2.8335 12.0127C2.8335 10.2387 3.8375 8.16667 6.66683 8.16667H9.3335C12.1628 8.16667 13.1668 10.238 13.1668 12.0127C13.1668 13.6167 12.2781 14.5 10.6648 14.5ZM6.66683 9.16667C4.03816 9.16667 3.8335 11.3447 3.8335 12.0127C3.8335 13.0554 4.28286 13.5 5.33553 13.5H10.6648C11.7175 13.5 12.1668 13.0554 12.1668 12.0127C12.1668 11.3454 11.9622 9.16667 9.3335 9.16667H6.66683Z" fill="#97979F"/>
</svg>
