<svg width="16" height="16" viewBox="0 0 16 16" fill="none" xmlns="http://www.w3.org/2000/svg">
<circle cx="8" cy="8" r="7.5" fill="#2DB0F6" stroke="white"/>
<path d="M11.6164 9.39922V10.7992C11.6164 11.9276 10.9948 12.5492 9.86637 12.5492H5.19971C4.07131 12.5492 3.44971 11.9276 3.44971 10.7992V6.13255C3.44971 5.00415 4.07131 4.38255 5.19971 4.38255H6.59971C6.79291 4.38255 6.94971 4.53935 6.94971 4.73255C6.94971 4.92575 6.79291 5.08255 6.59971 5.08255H5.19971C4.46377 5.08255 4.14971 5.39662 4.14971 6.13255V10.7992C4.14971 11.5352 4.46377 11.8492 5.19971 11.8492H9.86637C10.6023 11.8492 10.9164 11.5352 10.9164 10.7992V9.39922C10.9164 9.20602 11.0732 9.04922 11.2664 9.04922C11.4596 9.04922 11.6164 9.20602 11.6164 9.39922ZM12.5497 5.22535C12.5492 5.49929 12.4424 5.75642 12.2482 5.94962L8.0655 10.1137C7.9997 10.179 7.91104 10.2159 7.81864 10.2159H6.13304C5.93984 10.2159 5.78304 10.0591 5.78304 9.86589V8.18076C5.78304 8.08836 5.81944 7.99921 5.88524 7.93388L10.0493 3.75068C10.2421 3.55655 10.4996 3.44969 10.7736 3.44922C10.774 3.44922 10.7745 3.44922 10.775 3.44922C11.0484 3.44922 11.3056 3.55562 11.4993 3.74929L12.2501 4.50016C12.4433 4.69383 12.5502 4.95142 12.5497 5.22535ZM10.621 6.58196L9.41697 5.37795L6.48304 8.32542V9.51636H7.67397L10.621 6.58196ZM11.8497 5.22441C11.8497 5.13761 11.8161 5.05596 11.755 4.99482L11.0041 4.24395C10.943 4.18282 10.8613 4.14922 10.775 4.14922H10.7745C10.6877 4.14922 10.6065 4.18329 10.5454 4.24442L9.91118 4.88142L11.1175 6.08775L11.7545 5.45356C11.8156 5.39289 11.8492 5.31121 11.8497 5.22441Z" fill="white"/>
</svg>
