<svg width="24" height="24" viewBox="0 0 24 24" fill="none" xmlns="http://www.w3.org/2000/svg">
<g clip-path="url(#clip0_178_113188)">
<path d="M0.512578 11.8563C0.512016 13.8728 1.04302 15.8417 2.0527 17.5771L0.416016 23.5066L6.53152 21.9156C8.22298 22.8292 10.1181 23.308 12.044 23.3081H12.0491C18.4067 23.3081 23.582 18.1748 23.5847 11.8653C23.586 8.80792 22.3871 5.93295 20.2089 3.76997C18.0311 1.60718 15.1347 0.415458 12.0486 0.414062C5.6902 0.414062 0.515297 5.54709 0.512672 11.8563" fill="url(#paint0_linear_178_113188)"/>
<path d="M0.100801 11.8527C0.100145 13.9417 0.650176 15.981 1.69586 17.7786L0.000488281 23.9207L6.33527 22.2726C8.08071 23.2168 10.0459 23.7147 12.0456 23.7154H12.0507C18.6365 23.7154 23.9977 18.3975 24.0005 11.8621C24.0016 8.69488 22.7596 5.71656 20.5036 3.47609C18.2473 1.23591 15.2473 0.00130233 12.0507 0C5.46386 0 0.103426 5.31721 0.100801 11.8527ZM3.8733 17.469L3.63677 17.0965C2.64246 15.5277 2.11764 13.7149 2.11839 11.8534C2.12055 6.4213 6.57593 2.00186 12.0545 2.00186C14.7076 2.00298 17.201 3.02921 19.0764 4.89116C20.9516 6.7533 21.9836 9.22865 21.9829 11.8614C21.9805 17.2935 17.525 21.7135 12.0507 21.7135H12.0468C10.2643 21.7126 8.51618 21.2376 6.99161 20.34L6.6288 20.1265L2.86961 21.1045L3.8733 17.4689V17.469Z" fill="url(#paint1_linear_178_113188)"/>
<path d="M9.06383 6.8938C8.84014 6.4005 8.60473 6.39054 8.39202 6.38189C8.21783 6.37445 8.0187 6.37501 7.81977 6.37501C7.62064 6.37501 7.29711 6.44934 7.02364 6.74561C6.74989 7.04217 5.97852 7.75882 5.97852 9.2164C5.97852 10.6741 7.04848 12.0827 7.19764 12.2806C7.34698 12.4781 9.26323 15.565 12.2981 16.7525C14.8204 17.7394 15.3336 17.5431 15.881 17.4936C16.4285 17.4443 17.6477 16.7771 17.8964 16.0853C18.1453 15.3936 18.1453 14.8007 18.0707 14.6768C17.996 14.5533 17.7969 14.4792 17.4983 14.3311C17.1996 14.1829 15.7317 13.4662 15.458 13.3673C15.1843 13.2685 14.9853 13.2192 14.7861 13.5158C14.587 13.812 14.0152 14.4792 13.841 14.6768C13.6669 14.8748 13.4926 14.8995 13.1941 14.7513C12.8953 14.6026 11.9337 14.2902 10.7929 13.281C9.90523 12.4957 9.30598 11.5259 9.1318 11.2292C8.95761 10.9331 9.11314 10.7725 9.26286 10.6249C9.39702 10.4921 9.56155 10.2789 9.71098 10.106C9.85986 9.93296 9.90955 9.80952 10.0091 9.61194C10.1088 9.41417 10.0589 9.24115 9.98436 9.09296C9.90955 8.94478 9.32933 7.47957 9.06383 6.8938Z" fill="white"/>
</g>
<defs>
<linearGradient id="paint0_linear_178_113188" x1="1158.85" y1="2309.67" x2="1158.85" y2="0.414062" gradientUnits="userSpaceOnUse">
<stop stop-color="#1FAF38"/>
<stop offset="1" stop-color="#60D669"/>
</linearGradient>
<linearGradient id="paint1_linear_178_113188" x1="1200" y1="2392.07" x2="1200" y2="0" gradientUnits="userSpaceOnUse">
<stop stop-color="#F9F9F9"/>
<stop offset="1" stop-color="white"/>
</linearGradient>
<clipPath id="clip0_178_113188">
<rect width="24" height="24" fill="white" transform="translate(0.000488281)"/>
</clipPath>
</defs>
</svg>
