<svg width="111" height="44" viewBox="0 0 111 44" fill="none" xmlns="http://www.w3.org/2000/svg">
<path d="M56.7216 31V13.5455H59.8835V28.3494H67.571V31H56.7216ZM75.1692 31.2557C73.8908 31.2557 72.7828 30.9744 71.8453 30.4119C70.9078 29.8494 70.1806 29.0625 69.6635 28.0511C69.1522 27.0398 68.8965 25.858 68.8965 24.5057C68.8965 23.1534 69.1522 21.9687 69.6635 20.9517C70.1806 19.9347 70.9078 19.1449 71.8453 18.5824C72.7828 18.0199 73.8908 17.7386 75.1692 17.7386C76.4476 17.7386 77.5556 18.0199 78.4931 18.5824C79.4306 19.1449 80.155 19.9347 80.6664 20.9517C81.1834 21.9687 81.4419 23.1534 81.4419 24.5057C81.4419 25.858 81.1834 27.0398 80.6664 28.0511C80.155 29.0625 79.4306 29.8494 78.4931 30.4119C77.5556 30.9744 76.4476 31.2557 75.1692 31.2557ZM75.1862 28.7841C75.8794 28.7841 76.459 28.5937 76.9249 28.2131C77.3908 27.8267 77.7374 27.3097 77.9647 26.6619C78.1976 26.0142 78.3141 25.2926 78.3141 24.4972C78.3141 23.696 78.1976 22.9716 77.9647 22.3239C77.7374 21.6705 77.3908 21.1506 76.9249 20.7642C76.459 20.3778 75.8794 20.1847 75.1862 20.1847C74.476 20.1847 73.8851 20.3778 73.4135 20.7642C72.9476 21.1506 72.5982 21.6705 72.3652 22.3239C72.138 22.9716 72.0243 23.696 72.0243 24.4972C72.0243 25.2926 72.138 26.0142 72.3652 26.6619C72.5982 27.3097 72.9476 27.8267 73.4135 28.2131C73.8851 28.5937 74.476 28.7841 75.1862 28.7841ZM89.0337 36.1818C87.9258 36.1818 86.9741 36.0313 86.1786 35.7301C85.3832 35.4347 84.7439 35.0369 84.261 34.5369C83.778 34.0369 83.4428 33.483 83.2553 32.875L86.0337 32.2017C86.1587 32.4574 86.3405 32.7102 86.5792 32.9602C86.8178 33.2159 87.1388 33.4261 87.5422 33.5909C87.9513 33.7614 88.4655 33.8466 89.0849 33.8466C89.9599 33.8466 90.6843 33.6335 91.2582 33.2074C91.832 32.7869 92.1189 32.0938 92.1189 31.1278V28.6477H91.9655C91.8064 28.9659 91.5735 29.2926 91.2667 29.6278C90.9655 29.9631 90.565 30.2443 90.065 30.4716C89.5707 30.6989 88.9485 30.8125 88.1985 30.8125C87.1928 30.8125 86.2809 30.5767 85.4627 30.1051C84.6502 29.6278 84.0025 28.9176 83.5195 27.9744C83.0422 27.0256 82.8036 25.8381 82.8036 24.4119C82.8036 22.9744 83.0422 21.7614 83.5195 20.7727C84.0025 19.7784 84.653 19.0256 85.4712 18.5142C86.2894 17.9972 87.2013 17.7386 88.207 17.7386C88.9741 17.7386 89.6047 17.8693 90.0991 18.1307C90.5991 18.3864 90.9968 18.696 91.2922 19.0597C91.5877 19.4176 91.8121 19.7557 91.9655 20.0739H92.136V17.9091H95.1786V31.2131C95.1786 32.3324 94.9116 33.2585 94.3775 33.9915C93.8434 34.7244 93.1133 35.2727 92.1871 35.6364C91.261 36 90.2099 36.1818 89.0337 36.1818ZM89.0593 28.392C89.7127 28.392 90.2695 28.233 90.7297 27.9148C91.19 27.5966 91.5394 27.1392 91.778 26.5426C92.0167 25.946 92.136 25.2301 92.136 24.3949C92.136 23.571 92.0167 22.8494 91.778 22.2301C91.5451 21.6108 91.1985 21.1307 90.7383 20.7898C90.2837 20.4432 89.7241 20.2699 89.0593 20.2699C88.3718 20.2699 87.7979 20.4489 87.3377 20.8068C86.8775 21.1648 86.5309 21.6562 86.2979 22.2812C86.065 22.9006 85.9485 23.6051 85.9485 24.3949C85.9485 25.196 86.065 25.8977 86.2979 26.5C86.5366 27.0966 86.886 27.5625 87.3462 27.8977C87.8121 28.2273 88.3832 28.392 89.0593 28.392ZM103.331 31.2557C102.052 31.2557 100.944 30.9744 100.007 30.4119C99.0694 29.8494 98.3421 29.0625 97.8251 28.0511C97.3137 27.0398 97.058 25.858 97.058 24.5057C97.058 23.1534 97.3137 21.9687 97.8251 20.9517C98.3421 19.9347 99.0694 19.1449 100.007 18.5824C100.944 18.0199 102.052 17.7386 103.331 17.7386C104.609 17.7386 105.717 18.0199 106.655 18.5824C107.592 19.1449 108.317 19.9347 108.828 20.9517C109.345 21.9687 109.603 23.1534 109.603 24.5057C109.603 25.858 109.345 27.0398 108.828 28.0511C108.317 29.0625 107.592 29.8494 106.655 30.4119C105.717 30.9744 104.609 31.2557 103.331 31.2557ZM103.348 28.7841C104.041 28.7841 104.621 28.5937 105.086 28.2131C105.552 27.8267 105.899 27.3097 106.126 26.6619C106.359 26.0142 106.476 25.2926 106.476 24.4972C106.476 23.696 106.359 22.9716 106.126 22.3239C105.899 21.6705 105.552 21.1506 105.086 20.7642C104.621 20.3778 104.041 20.1847 103.348 20.1847C102.638 20.1847 102.047 20.3778 101.575 20.7642C101.109 21.1506 100.76 21.6705 100.527 22.3239C100.3 22.9716 100.186 23.696 100.186 24.4972C100.186 25.2926 100.3 26.0142 100.527 26.6619C100.76 27.3097 101.109 27.8267 101.575 28.2131C102.047 28.5937 102.638 28.7841 103.348 28.7841Z" fill="black"/>
<circle cx="22" cy="22" r="22" fill="#E5E5E5"/>
</svg>
