<svg width="17" height="20" viewBox="0 0 17 20" fill="none" xmlns="http://www.w3.org/2000/svg">
<path d="M11.5476 4.56135C11.7851 4.87206 11.8994 5.22206 11.9136 5.64349C9.59757 4.45421 7.29222 4.49885 4.97079 5.64171C5.00115 4.95063 5.29043 4.43992 5.869 4.10599C6.29757 3.85599 6.77615 3.75242 7.25829 3.68635C8.28507 3.54706 9.3065 3.57206 10.3154 3.83099C10.794 3.95599 11.2333 4.15421 11.5476 4.56135ZM5.63686 2.90956C8.14222 2.25599 9.02436 2.25599 11.2422 2.90956C11.519 2.4167 11.7922 1.93099 12.0636 1.44349C12.344 0.939919 12.1886 0.58099 11.6351 0.429204C10.7851 0.197061 9.92079 0.0595614 9.04043 0.0149185C7.70472 -0.0511529 6.39222 0.102419 5.1065 0.472062C4.76365 0.572062 4.569 0.936347 4.72615 1.24349C5.01186 1.80956 5.33329 2.35778 5.63686 2.90956ZM16.8886 14.9328C16.8761 15.3399 16.8297 15.7364 16.7351 16.1203C16.5726 16.7756 16.2672 17.3899 15.7619 17.9381C15.1029 18.656 14.2511 19.106 13.2994 19.4096C11.9315 19.7828 10.2636 20.0006 8.46543 20.0006H7.69936C7.69222 19.9953 7.68507 19.9899 7.67972 19.9864C7.64936 19.9864 7.62079 19.9846 7.59222 19.9846C7.60115 19.9881 7.61007 19.9935 7.619 20.0006H7.50472C7.51186 19.9917 7.519 19.9864 7.52793 19.981C7.49757 19.9792 7.46543 19.9774 7.43507 19.9756C5.91722 19.9042 4.52436 19.6774 3.36722 19.3346C3.1315 19.2524 2.89936 19.156 2.67079 19.0489C1.31722 18.406 0.485074 17.4399 0.163646 16.1828C0.106503 15.9578 0.0654317 15.7221 0.0404317 15.4792C-0.20064 13.0899 0.651146 10.9846 2.19936 9.08456C3.12436 7.95064 4.27436 7.04528 5.71722 6.47564C7.83865 5.63635 9.90829 5.77206 11.894 6.80956C13.8244 7.81671 15.1279 9.33099 16.0172 11.1471C16.6083 12.3506 16.9261 13.6114 16.8886 14.9328ZM10.2797 13.5614C10.2511 13.4828 10.2136 13.4078 10.169 13.3328C9.81186 12.7274 9.23686 12.4131 8.47436 12.3846C8.09757 12.3703 7.86543 12.256 7.80293 12.0239C7.73329 11.7631 7.81186 11.5328 8.03507 11.3506C8.24579 11.1792 8.49043 11.1721 8.74222 11.2649C8.89043 11.3185 9.01186 11.4096 9.13329 11.506C9.43865 11.7453 9.82793 11.7364 10.0779 11.4881C10.3279 11.2399 10.2958 10.8828 10.0029 10.6364C9.74043 10.4149 9.4315 10.2649 9.09222 10.1506C9.09222 9.92564 9.094 9.70421 9.09222 9.48278C9.08686 9.12385 8.80829 8.86492 8.43507 8.86849C8.07257 8.87028 7.79757 9.12742 7.79222 9.47564C7.78865 9.69706 7.79222 9.91671 7.79222 10.1489C7.72793 10.1739 7.6815 10.1899 7.63507 10.2096C6.72793 10.5792 6.28686 11.4596 6.57972 12.3185C6.77615 12.8935 7.29579 13.3328 7.92972 13.4917C7.92972 13.4917 7.92972 13.4917 7.9315 13.4917C8.07793 13.5274 8.22972 13.5489 8.38686 13.5524C8.644 13.5596 8.87793 13.5989 9.01543 13.8221C9.15293 14.0489 9.08865 14.3774 8.87079 14.581C8.67436 14.7649 8.39579 14.8006 8.11543 14.6756C7.919 14.5881 7.76543 14.4506 7.61722 14.306C7.33329 14.0256 6.94222 13.9953 6.66007 14.231C6.37972 14.4649 6.38329 14.8114 6.66365 15.0989C6.97436 15.4167 7.34936 15.6471 7.79222 15.7953C7.79222 16.0256 7.78865 16.2471 7.79222 16.4667C7.79936 16.8114 8.07972 17.0703 8.44222 17.0703C8.80293 17.0703 9.08329 16.8131 9.09043 16.4685C9.09579 16.2471 9.09222 16.0256 9.09222 15.8042C9.15829 15.7774 9.21722 15.7542 9.27436 15.731C10.1851 15.3381 10.6119 14.3917 10.2797 13.5614Z" fill="white"/>
</svg>
