<svg width="21" height="20" viewBox="0 0 21 20" fill="none" xmlns="http://www.w3.org/2000/svg">
<path d="M19.8882 10.4415C19.7167 10.5583 19.5269 10.6532 19.3407 10.7518C18.9977 10.9343 18.6564 11.1168 18.3133 11.2993C15.7785 12.6497 13.2455 13.9983 10.7161 15.3561C10.3165 15.5696 9.96427 15.5751 9.56279 15.3597C7.02979 14.0001 4.49132 12.6479 1.95285 11.2993C1.58604 11.104 1.2174 10.9087 0.850593 10.7135C0.565905 10.5602 0.286691 10.4105 0.107849 10.1459C0.0549258 10.0674 0.0239021 9.97801 0.0147774 9.88494C0.0129525 9.86121 0.0111276 9.83749 0.0111276 9.81377V9.70062C0.0111276 9.64405 0.0166024 9.58747 0.0330267 9.53455C0.0348516 9.52725 0.0366765 9.51995 0.0385015 9.51265C0.0476261 9.48893 0.0567507 9.46703 0.0695252 9.44513C0.100549 9.39038 0.131573 9.34111 0.162596 9.29366L0.164421 9.29184C0.494733 8.80641 0.872493 8.75531 1.48749 9.0838C2.87079 9.82106 4.2559 10.5602 5.6392 11.2993C7.07906 12.0675 8.51711 12.8358 9.95515 13.606C10.0865 13.6753 10.1796 13.6771 10.3128 13.606C11.7509 12.8358 13.1907 12.0675 14.6288 11.2993C16.0467 10.5419 17.4665 9.78457 18.8845 9.02905C19.3772 8.76626 19.8535 8.86115 20.1182 9.27359C20.3736 9.66777 20.2788 10.1769 19.8882 10.4415ZM20.2503 14.1065C20.2019 13.7684 20.0081 13.5295 19.684 13.4072C19.3876 13.2955 19.1201 13.3835 18.8549 13.5246C16.0092 15.0447 13.1617 16.5607 10.3168 18.0825C10.1887 18.1506 10.0937 18.1597 9.96062 18.0882C7.19203 16.606 4.42015 15.1285 1.649 13.651C1.50373 13.5738 1.36084 13.4917 1.20901 13.4295C0.813365 13.2645 0.402939 13.3943 0.172269 13.7266C0.172269 13.7266 0.171356 13.7273 0.170626 13.729C0.168071 13.733 0.163326 13.7395 0.156757 13.7503C0.146902 13.7651 0.133033 13.7872 0.118251 13.816C0.112593 13.825 0.107666 13.8348 0.102739 13.8456C0.0945267 13.8611 0.087227 13.8775 0.0790148 13.8956C0.0771899 13.8998 0.074635 13.9047 0.073905 13.9089C0.0607656 13.9375 0.0492685 13.9688 0.0394139 14.0025C0.0271869 14.0403 0.0173323 14.0814 0.0107626 14.1248C-0.00237686 14.2011 -0.00474927 14.2848 0.0107626 14.371C0.0271869 14.4646 0.0649629 14.5622 0.134675 14.6575C0.134675 14.6584 0.135588 14.6584 0.135588 14.6591C0.291619 14.8635 0.500938 15.0088 0.74055 15.136C3.68324 16.6963 6.62338 18.2641 9.55859 19.8392C9.95588 20.0525 10.3128 20.0542 10.711 19.8408C13.693 18.2402 16.68 16.6512 19.6652 15.0579C19.7523 15.0112 19.841 14.9652 19.918 14.9051C20.1764 14.7026 20.297 14.4308 20.2503 14.1065ZM20.2386 5.15108C20.1729 5.45949 19.9722 5.65111 19.7039 5.79528C18.1308 6.6311 16.5614 7.47056 14.9901 8.31003C13.5576 9.07285 12.1232 9.83202 10.6961 10.6058C10.311 10.812 9.96062 10.8102 9.57556 10.604C6.58816 9.0035 3.59528 7.40851 0.600579 5.81718C0.325015 5.67118 0.146172 5.45767 0.0111276 5.1894V4.75507C0.188145 4.33169 0.56408 4.1638 0.952789 3.99225C3.8599 2.70386 6.76335 1.40816 9.66316 0.108812C9.988 -0.0371818 10.2855 -0.0353569 10.6103 0.108812C13.6068 1.45196 16.607 2.78598 19.6072 4.12365C20.1109 4.34811 20.3317 4.70762 20.2386 5.15108ZM11.6633 7.0709C11.5319 6.89571 11.2892 6.78439 10.9589 6.76431C10.7654 6.74972 10.5683 6.74972 10.3731 6.74607C9.66316 6.73512 8.79449 6.51978 8.26344 6.22231C7.92035 6.0307 7.68129 5.8044 7.53895 5.53796C7.95868 5.54709 8.36564 5.55439 8.7726 5.56351C8.87844 5.56534 8.97881 5.55986 9.06093 5.52337C9.26532 5.43577 9.25985 5.28248 9.04816 5.15838C8.31454 4.735 7.58092 4.30979 6.84547 3.88641C6.63926 3.76779 6.41479 3.76231 6.22317 3.87363C5.87279 4.07438 5.5224 4.27877 5.17202 4.47951C4.83258 4.6766 4.49314 4.87004 4.15553 5.06713C4.05151 5.12553 4.00041 5.1967 4.03691 5.2843C4.08619 5.40475 4.23948 5.47227 4.4749 5.47592C4.9366 5.48504 5.39831 5.49417 5.86366 5.50329C5.87279 5.52702 5.88374 5.54709 5.89104 5.56534C6.06988 6.03069 6.44399 6.43948 7.02067 6.79534C7.61012 7.15667 8.54995 7.46874 9.36022 7.60196C9.9004 7.69138 10.4442 7.69503 10.9881 7.7005C11.1997 7.70233 11.3804 7.65488 11.5173 7.57093C11.7436 7.43041 11.8001 7.25887 11.6633 7.0709ZM16.2365 4.6985C16.1854 4.57623 16.0322 4.50871 15.7949 4.50506C15.335 4.49593 14.8733 4.48681 14.408 4.47768C14.397 4.45396 14.3879 4.43389 14.3806 4.41564C14.2017 3.95028 13.8295 3.5415 13.251 3.18564C12.6652 2.8243 11.7235 2.51224 10.9132 2.38084C10.3749 2.29142 9.83105 2.28595 9.2854 2.28412C9.07553 2.28047 8.89487 2.32792 8.75617 2.41187C8.5317 2.55239 8.47331 2.72393 8.61383 2.9119C8.74522 3.08892 8.98429 3.19659 9.3146 3.22031C9.50986 3.23126 9.70696 3.23308 9.9004 3.23491C10.6103 3.24951 11.479 3.4612 12.01 3.75866C12.3531 3.95028 12.5922 4.17657 12.7327 4.44301C12.3148 4.43389 11.906 4.42659 11.5027 4.41746C11.395 4.41564 11.2965 4.42294 11.2125 4.45761C11.0081 4.54703 11.0136 4.6985 11.2253 4.82259C11.9589 5.24598 12.6907 5.67119 13.4262 6.09457C13.6342 6.21319 13.8587 6.21684 14.0503 6.10552C14.3988 5.90478 14.7492 5.70221 15.0996 5.50147C15.439 5.30437 15.7767 5.11093 16.1161 4.91384C16.2201 4.85544 16.2712 4.78427 16.2365 4.6985Z" fill="white"/>
</svg>
