<svg width="17" height="20" viewBox="0 0 17 20" fill="none" xmlns="http://www.w3.org/2000/svg">
<path d="M4.72863 15.1348C4.92827 14.9889 5.11041 14.8534 5.29505 14.7214C5.48684 14.5844 5.67309 14.593 5.78988 14.7398C5.9138 14.8955 5.87541 15.0896 5.68113 15.2369C5.41398 15.4394 5.14452 15.6393 4.87077 15.833C4.67541 15.9712 4.51791 15.9434 4.37113 15.7527C4.27113 15.6227 4.17577 15.4887 4.08416 15.3528C3.95845 15.1662 3.97613 14.9932 4.12559 14.8782C4.28238 14.7577 4.46202 14.7943 4.6072 14.9771C4.64238 15.0212 4.6763 15.0666 4.72863 15.1348ZM4.5622 8.7448C4.42345 8.5714 4.24916 8.53105 4.09702 8.63605C3.93327 8.7489 3.91095 8.92997 4.04184 9.12372C4.1297 9.25372 4.2213 9.3814 4.31559 9.50694C4.47327 9.71694 4.63095 9.7423 4.84809 9.58694C5.10916 9.39997 5.36648 9.20765 5.62398 9.01587C5.82113 8.86908 5.86988 8.68069 5.75559 8.52229C5.63845 8.3598 5.45077 8.34694 5.24845 8.49176C5.0638 8.6239 4.88184 8.75962 4.68327 8.90515C4.63077 8.83533 4.59773 8.78908 4.5622 8.7448ZM16.7027 16.8557C16.7113 18.5896 15.3079 20 13.5738 20H12.3722V19.9966C9.33613 20.0012 6.30005 20.0023 3.26416 19.9927C1.92898 19.988 0.785054 18.8562 0.781661 17.5303C0.769518 13.3766 0.776304 9.22319 0.776304 5.06962C0.776304 5.03462 0.780233 4.99962 0.784876 4.93658H1.01702C2.08238 4.93658 3.14755 4.93712 4.21291 4.93658C5.22202 4.93605 5.82148 4.33479 5.82255 3.31944C5.82363 2.3114 5.82255 1.30337 5.82255 0.295508V0.00550838H6.03863C8.70505 0.00550838 11.372 0.00265124 14.0384 0.0072941C15.2934 0.00961553 16.2877 0.799794 16.5749 2.01069C16.6208 2.20497 16.6408 2.40444 16.6418 2.60372C16.6447 3.57337 16.6447 4.54229 16.6436 5.5114L16.6454 5.50801L16.7027 16.8557ZM3.00505 9.02997C3.00505 9.45122 3.00273 9.87301 3.00559 10.2941C3.00791 10.7268 3.22791 10.9582 3.66166 10.9618C4.51148 10.968 5.3613 10.9687 6.21059 10.9612C6.63059 10.9573 6.86095 10.721 6.86327 10.3052C6.8672 9.45587 6.86791 8.60605 6.86273 7.75622C6.86041 7.3523 6.62827 7.11551 6.22202 7.11212C5.36523 7.10462 4.50863 7.10515 3.65184 7.11158C3.23005 7.11444 3.00827 7.34605 3.00541 7.76658C3.00273 8.18765 3.00505 8.6089 3.00505 9.02997ZM6.86273 13.9818C6.85988 13.5789 6.61863 13.3444 6.2163 13.3434C5.35952 13.3405 4.50238 13.3405 3.64505 13.3434C3.2422 13.3444 3.00898 13.5789 3.00559 13.9828C3.0022 14.4109 3.00505 14.8396 3.00505 15.2682C3.00505 15.6968 3.00166 16.1255 3.00613 16.5541C3.00952 16.9552 3.24452 17.1959 3.6463 17.1987C4.50363 17.2039 5.36095 17.2039 6.21755 17.1982C6.61577 17.1959 6.85988 16.9518 6.8622 16.553C6.86845 15.6957 6.86845 14.8385 6.86273 13.9818ZM8.12005 4.1264C9.1138 4.12694 10.1074 4.1264 11.1011 4.1264C12.1022 4.1264 13.1027 4.12694 14.104 4.1264C14.442 4.12587 14.5476 4.01747 14.5486 3.67426C14.5492 3.32408 14.5497 2.9739 14.5481 2.62337C14.5463 2.24979 14.3797 2.15747 13.9022 2.21069C12.0518 2.41747 10.1865 2.41462 8.33613 2.21247C7.82613 2.15694 7.65934 2.24051 7.65648 2.63997C7.65416 2.98265 7.6547 3.32587 7.65648 3.66926C7.65809 4.02212 7.76363 4.1264 8.12005 4.1264ZM14.5927 13.7548C14.5927 12.5978 13.9183 11.8855 12.5418 11.5909L11.9688 11.4734V9.56622C12.5309 9.64694 12.9327 10.0487 12.9488 10.5359H14.4427C14.4215 9.29872 13.4577 8.42587 11.9688 8.28658V7.55819H11.2186V8.28658C9.62273 8.41497 8.68005 9.2614 8.68005 10.5787C8.68005 11.6978 9.37113 12.4371 10.6565 12.7368L11.2186 12.8709V14.8634C10.5493 14.7934 10.0943 14.3975 10.0565 13.8668H8.5247C8.53041 15.1739 9.54237 16.0198 11.2186 16.1166V16.7859H11.9688V16.1057C13.6449 15.9668 14.5927 15.1205 14.5927 13.7548ZM13.0718 13.9371C13.0718 14.478 12.6651 14.8259 11.9686 14.8689V13.0053C12.7183 13.1446 13.0718 13.4443 13.0718 13.9371ZM11.2186 9.56122V11.3182C10.5706 11.1893 10.2336 10.8787 10.2336 10.4287C10.2334 9.95212 10.6404 9.59337 11.2186 9.56122ZM5.17398 0.287473C5.17398 0.21783 5.16738 0.148366 5.16309 0.0626513C2.24791 0.482294 1.21773 2.98944 0.930411 3.93265C0.900411 4.02105 0.875947 4.11319 0.854697 4.20765C0.841661 4.2614 0.835947 4.29122 0.835947 4.29122C0.898804 4.29122 0.953268 4.29122 1.00523 4.29122C1.0322 4.29122 1.0588 4.29122 1.08505 4.29122C2.12845 4.29122 3.17202 4.2914 4.21541 4.29122C4.86434 4.29105 5.17327 3.98301 5.17398 3.33212C5.17541 2.31712 5.1747 1.30229 5.17398 0.287473Z" fill="white"/>
</svg>
