<svg width="17" height="17" viewBox="0 0 17 17" fill="none" xmlns="http://www.w3.org/2000/svg">
<path d="M14.9617 9.59417C14.0303 9.59417 13.1234 9.59417 12.2203 9.597C12.0561 9.59615 11.8923 9.61464 11.7324 9.65209C11.1767 9.7896 10.9194 10.2054 10.81 10.7211C10.6799 11.3087 10.6875 11.9184 10.8322 12.5026C11.008 13.1958 11.4529 13.5415 12.1666 13.5443C13.0254 13.5481 13.8842 13.5443 14.7425 13.5443H14.948C14.9527 13.5956 14.9612 13.6385 14.9612 13.6856C14.9612 14.2083 14.964 14.7315 14.9612 15.2547C14.9595 15.6232 14.8121 15.9761 14.5513 16.2366C14.2905 16.4971 13.9372 16.6442 13.5684 16.6458C9.51064 16.648 5.45261 16.648 1.39426 16.6458C1.02528 16.6446 0.671776 16.4975 0.41091 16.2368C0.150044 15.9761 0.00300371 15.6229 0.00188541 15.2542C-0.00062847 12.7979 -0.00062847 10.3414 0.00188541 7.88471C0.00288063 7.51607 0.149895 7.16282 0.410801 6.90215C0.671706 6.64148 1.02529 6.49459 1.39426 6.4936C5.45229 6.49172 9.51033 6.49172 13.5684 6.4936C13.9372 6.49484 14.2906 6.64172 14.5515 6.90222C14.8125 7.16272 14.9597 7.51572 14.9612 7.88424C14.9645 8.44747 14.9617 9.01069 14.9617 9.59417Z" fill="white"/>
<path d="M2.44238 5.92796L3.68676 4.83777C4.90222 3.77348 6.11831 2.7095 7.33502 1.64584C7.72672 1.30442 8.24332 1.33409 8.54452 1.7339C8.65661 1.8891 8.72468 2.07164 8.74154 2.26228C8.77124 2.63619 8.75521 3.01576 8.74578 3.38967C8.74221 3.42374 8.7311 3.45659 8.71325 3.48583C8.69539 3.51507 8.67125 3.53998 8.64256 3.55874C7.09181 4.33765 5.53901 5.11279 3.98418 5.88417C3.94379 5.90763 3.89874 5.92194 3.8522 5.92608C3.40064 5.9289 2.94956 5.92796 2.44238 5.92796Z" fill="white"/>
<path d="M13.8111 12.9796H12.2236C11.6787 12.9796 11.4647 12.8185 11.3548 12.2859C11.2527 11.7957 11.2562 11.2894 11.3652 10.8006C11.468 10.3358 11.6952 10.1602 12.1712 10.1602C13.2761 10.1602 14.3811 10.1602 15.4863 10.1602C16.0161 10.1602 16.3705 10.5138 16.3719 11.0413C16.3719 11.4053 16.3719 11.7698 16.3719 12.1338C16.3731 12.2454 16.352 12.3561 16.3097 12.4594C16.2674 12.5627 16.2049 12.6564 16.1258 12.7352C16.0467 12.814 15.9526 12.8762 15.8491 12.918C15.7456 12.9599 15.6347 12.9807 15.523 12.9791C14.9517 12.9815 14.3814 12.9796 13.8111 12.9796ZM12.9947 10.4413C12.7712 10.4392 12.5522 10.5032 12.3651 10.6254C12.1781 10.7475 12.0314 10.9222 11.9437 11.1275C11.8559 11.3328 11.8309 11.5595 11.872 11.779C11.913 11.9984 12.0181 12.2008 12.1742 12.3606C12.3302 12.5204 12.5301 12.6305 12.7486 12.677C12.9672 12.7234 13.1946 12.7041 13.4023 12.6216C13.6099 12.539 13.7884 12.3969 13.9152 12.2131C14.0421 12.0294 14.1116 11.8122 14.1151 11.5889C14.1168 11.2889 14.0001 11.0003 13.7905 10.7856C13.5808 10.5708 13.2949 10.4471 12.9947 10.4413Z" fill="white"/>
<path d="M14.119 5.3702L12.9878 4.52254C13.8645 4.01488 14.2501 3.27835 14.119 2.2621C13.9121 2.2621 13.7132 2.27199 13.5162 2.25692C13.4398 2.25127 13.3342 2.20558 13.3036 2.14625C13.273 2.08691 13.2946 1.96965 13.338 1.91079C13.7553 1.33626 14.1781 0.765969 14.6064 0.199917C14.802 -0.0605043 15.1094 -0.0689829 15.3059 0.189084C15.7427 0.763612 16.1729 1.34332 16.5965 1.92821C16.6176 1.96047 16.6312 1.99712 16.6361 2.03539C16.641 2.07365 16.6371 2.11253 16.6248 2.14908C16.5965 2.20512 16.4998 2.25268 16.4296 2.25786C16.2316 2.27246 16.0323 2.26304 15.8235 2.26304C15.7702 3.58398 15.2126 4.61672 14.119 5.3702Z" fill="white"/>
<path d="M11.2886 5.91949H5.18359C5.26231 5.8724 5.30379 5.84791 5.3481 5.82531C6.89743 5.0544 8.44818 4.28915 9.99045 3.50742C10.5702 3.21262 11.1594 3.53379 11.2711 4.02544C11.2799 4.05329 11.2856 4.08203 11.2881 4.11114C11.289 4.71016 11.2886 5.30776 11.2886 5.91949Z" fill="white"/>
<path d="M12.4223 11.5557C12.4249 11.4435 12.461 11.3346 12.5258 11.2429C12.5907 11.1512 12.6814 11.0809 12.7864 11.0409C12.8914 11.0009 13.006 10.9931 13.1155 11.0185C13.225 11.0439 13.3244 11.1012 13.4011 11.1833C13.4778 11.2653 13.5283 11.3684 13.5462 11.4792C13.564 11.5901 13.5484 11.7037 13.5014 11.8057C13.4543 11.9076 13.3779 11.9933 13.2819 12.0517C13.1859 12.1101 13.0747 12.1386 12.9624 12.1336C12.8889 12.1313 12.8166 12.1146 12.7496 12.0842C12.6825 12.0539 12.6222 12.0107 12.572 11.957C12.5218 11.9033 12.4827 11.8402 12.457 11.7713C12.4313 11.7024 12.4195 11.6292 12.4223 11.5557Z" fill="white"/>
</svg>
