<svg width="20" height="20" viewBox="0 0 20 20" fill="none" xmlns="http://www.w3.org/2000/svg">
<path d="M0 14.597V4.36329C0.0147264 4.342 0.0264445 4.31858 0.0347766 4.29375C0.294399 2.96145 1.27957 2.10742 2.56377 2.10742H14.8727C14.7915 2.19771 14.744 2.25139 14.6953 2.30385C13.6236 3.4328 12.5515 4.56094 11.479 5.68826C11.3222 5.84318 11.1984 6.03141 11.1159 6.24048C11.0334 6.44955 10.994 6.67469 11.0004 6.90099C11.0085 7.24992 11.0004 7.60007 11.0004 7.94901C11.0018 8.29417 11.1163 8.62823 11.3245 8.89492C11.5326 9.1616 11.8218 9.3446 12.1432 9.41306C12.5361 9.48627 12.9464 9.446 13.3474 9.46797C13.5912 9.48166 13.8349 9.43796 14.0607 9.34003C14.2864 9.2421 14.4886 9.09241 14.6525 8.90186C16.0305 7.43781 17.4202 5.98351 18.8029 4.52433C18.8465 4.46429 18.8827 4.39871 18.9107 4.32913L18.9803 4.38769C18.9803 4.44625 18.9907 4.50969 18.9907 4.56582C18.9907 7.75014 18.9907 10.9349 18.9907 14.12C18.9908 14.4209 18.949 14.7201 18.8667 15.0082C18.7064 15.5482 18.3844 16.019 17.9488 16.3504C17.5132 16.6818 16.9875 16.856 16.4501 16.8468C14.9144 16.8468 13.3787 16.8468 11.843 16.8529C11.7227 16.8579 11.6065 16.9003 11.5092 16.9749C10.2922 17.9249 9.07907 18.8806 7.86982 19.842C7.68437 19.9897 7.49081 20.0568 7.27291 19.9421C7.05502 19.8274 6.98896 19.6261 6.99012 19.3796C6.99012 18.6122 6.99012 17.846 6.99012 17.0786V16.8517H6.72701C5.33618 16.8517 3.94534 16.8602 2.55451 16.8517C1.5647 16.8432 0.800886 16.3869 0.315253 15.4743C0.170374 15.201 0.103154 14.8886 0 14.597ZM9.50405 11.5884H3.66833C3.59647 11.5884 3.52462 11.5884 3.45391 11.5884C3.34973 11.5981 3.25107 11.642 3.172 11.7141C3.09292 11.7862 3.03746 11.8826 3.01348 11.9898C2.98754 12.0971 2.99704 12.2105 3.04043 12.3114C3.08382 12.4123 3.15852 12.4946 3.25224 12.5449C3.37063 12.5976 3.49811 12.6238 3.62661 12.6218C7.5364 12.6218 11.4466 12.6218 15.3571 12.6218C15.4163 12.6218 15.4731 12.6218 15.5333 12.6218C15.6544 12.6117 15.7675 12.5543 15.8503 12.4608C15.9331 12.3673 15.9796 12.2445 15.9807 12.1167C15.9807 11.7885 15.7779 11.5872 15.4209 11.5872L9.50405 11.5884ZM5.99334 6.31292C6.78612 6.31292 7.57889 6.31292 8.37167 6.31292C8.4814 6.31611 8.59082 6.29918 8.69505 6.2629C8.80142 6.21647 8.88827 6.13114 8.9396 6.02263C8.99093 5.91412 9.00328 5.78974 8.97438 5.6724C8.92106 5.42839 8.71242 5.26856 8.41223 5.26856C6.80118 5.26856 5.18936 5.26856 3.57676 5.26856C3.48611 5.26878 3.3961 5.28444 3.3102 5.31492C3.21859 5.35164 3.13989 5.41708 3.08476 5.5024C3.02962 5.58771 3.0007 5.68879 3.00189 5.79196C2.99916 5.89516 3.0272 5.99667 3.08208 6.08223C3.13696 6.16779 3.21592 6.2331 3.30788 6.269C3.41377 6.30043 3.52357 6.31483 3.63356 6.3117C4.42401 6.31536 5.21563 6.31292 5.99682 6.31292H5.99334ZM5.99334 9.46675C6.80466 9.46675 7.61598 9.46675 8.4273 9.46675C8.76806 9.46675 8.97784 9.26422 8.97668 8.94701C8.97552 8.62979 8.75995 8.42971 8.42268 8.42971H3.55475C3.49002 8.4274 3.42529 8.43438 3.36235 8.45045C3.24857 8.48366 3.14981 8.55861 3.08392 8.66175C3.01803 8.76489 2.98935 8.88943 3.00305 9.01289C3.01745 9.13999 3.07641 9.25684 3.16839 9.34057C3.26036 9.4243 3.37871 9.46886 3.50026 9.46553C4.33593 9.46919 5.16812 9.46675 5.99914 9.46675H5.99334Z" fill="white"/>
<path d="M12.981 8.42824C12.8188 8.42824 12.6554 8.43434 12.4931 8.42824C12.4261 8.42874 12.3597 8.41512 12.2978 8.38818C12.2359 8.36124 12.1797 8.32153 12.1326 8.27139C12.0855 8.22124 12.0485 8.16168 12.0236 8.09621C11.9987 8.03075 11.9865 7.9607 11.9878 7.8902C11.9808 7.54858 11.9692 7.20453 11.9947 6.86414C12.0075 6.71004 12.0682 6.56469 12.1674 6.45054C14.1439 4.35694 16.1247 2.26944 18.1098 0.18804C18.3485 -0.0632896 18.622 -0.0620696 18.8678 0.18804C19.1761 0.501592 19.4774 0.823685 19.7799 1.14578C20.0824 1.46787 20.0662 1.72408 19.773 2.03397L16.1104 5.89542C15.415 6.62135 14.7196 7.33874 14.0462 8.07808C13.8144 8.33429 13.5617 8.47826 13.2221 8.43068C13.1449 8.42529 13.0675 8.42529 12.9903 8.43068L12.981 8.42824Z" fill="white"/>
</svg>
