<svg width="18" height="16" viewBox="0 0 18 16" fill="none" xmlns="http://www.w3.org/2000/svg">
<path d="M12.7628 0.5C15.6369 0.5 17.3332 2.15383 17.3332 4.98483H13.8072V5.01372C12.1708 5.01372 10.8443 6.30707 10.8443 7.9025C10.8443 9.49793 12.1708 10.7913 13.8072 10.7913H17.3332V11.0513C17.3332 13.8462 15.6369 15.5 12.7628 15.5H5.23687C2.3628 15.5 0.666504 13.8462 0.666504 11.0513V4.94872C0.666504 2.15383 2.3628 0.5 5.23687 0.5H12.7628ZM16.7109 6.22701C17.0546 6.22701 17.3332 6.49861 17.3332 6.83365V8.94246C17.3292 9.27588 17.0529 9.54521 16.7109 9.54911H13.8739C13.0455 9.55998 12.3211 9.00698 12.1332 8.22027C12.0391 7.73191 12.1712 7.22797 12.4941 6.84351C12.817 6.45906 13.2976 6.2334 13.8072 6.22701H16.7109ZM14.2072 7.20197H13.9332C13.7649 7.20004 13.6028 7.26387 13.4832 7.3792C13.3635 7.49453 13.2961 7.65177 13.2961 7.81584C13.2961 8.16005 13.5801 8.44019 13.9332 8.44415H14.2072C14.5591 8.44415 14.8443 8.16608 14.8443 7.82306C14.8443 7.48004 14.5591 7.20197 14.2072 7.20197ZM9.31836 3.74266H4.61465C4.2657 3.74263 3.98167 4.01633 3.97761 4.35652C3.97761 4.70073 4.26163 4.98088 4.61465 4.98483H9.31836C9.67018 4.98483 9.95539 4.70676 9.95539 4.36375C9.95539 4.02073 9.67018 3.74266 9.31836 3.74266Z" fill="white"/>
</svg>
