<svg width="20" height="20" viewBox="0 0 20 20" fill="none" xmlns="http://www.w3.org/2000/svg">
<path d="M8.7907 20C8.70696 19.9438 8.64104 19.8648 8.60074 19.7723C8.56043 19.6799 8.54741 19.5778 8.56323 19.4782C8.56844 19.4133 8.56844 19.348 8.56323 19.283C8.55175 19.0707 8.4302 18.9465 8.22047 18.9381C8.09683 18.9329 7.97318 18.9381 7.84954 18.9381H0.527963C0.110601 18.9381 0.00626018 18.8338 0.00626018 18.4236C0.00626018 13.9194 0.0119992 9.41513 0 4.9088C0 4.26072 0.222246 4.25759 0.720994 4.29777V4.55867C0.720994 8.70495 0.720994 12.8512 0.720994 16.9975C0.720994 17.2835 0.758034 17.5564 0.942195 17.7881C1.15661 18.0578 1.43468 18.2055 1.7837 18.2055C7.26297 18.2055 12.7424 18.2055 18.222 18.2055C18.4816 18.2077 18.7327 18.1129 18.9263 17.9398C19.1198 17.7667 19.2418 17.5277 19.2686 17.2694C19.28 17.1595 19.2853 17.049 19.2842 16.9386C19.2842 12.8184 19.2842 8.698 19.2842 4.57746V4.29777C19.5701 4.28159 19.8435 4.22419 20 4.53154V18.7111C19.868 18.8995 19.6828 18.9418 19.4616 18.9413C16.9665 18.9367 14.4713 18.9357 11.9762 18.9381C11.9178 18.9381 11.8593 18.9381 11.8009 18.9381C11.5693 18.9465 11.4488 19.0691 11.4404 19.3034C11.4362 19.3619 11.4362 19.4207 11.4404 19.4792C11.4557 19.5783 11.4424 19.6797 11.4022 19.7715C11.3621 19.8634 11.2966 19.9419 11.2135 19.9979L8.7907 20Z" fill="white"/>
<path d="M9.64697 16.186C9.31256 16.0462 8.9891 15.8881 8.64948 15.7785C8.45697 15.7164 8.2389 15.72 8.03178 15.72C6.00201 15.7141 3.97154 15.7129 1.94038 15.7164C1.52563 15.7164 1.42285 15.612 1.42285 15.1946V2.66128C1.42285 2.24383 1.52145 2.14573 1.94455 2.14573C3.99432 2.14573 6.04409 2.16504 8.09334 2.13738C9.02771 2.12434 9.65845 2.84182 9.65845 3.69863C9.64019 7.80474 9.6501 11.9114 9.6501 16.0175L9.64697 16.186ZM5.00382 9.24597C5.00382 9.38268 4.99756 9.51313 5.00382 9.64254C5.01738 9.85544 5.17494 10.0078 5.36536 10.0042C5.55578 10.0005 5.70133 9.84396 5.70864 9.62845C5.71359 9.57012 5.71359 9.51146 5.70864 9.45312C5.68986 9.30493 5.73681 9.23136 5.89123 9.17291C6.16959 9.06549 6.40591 8.87117 6.56511 8.61879C6.72431 8.3664 6.79792 8.0694 6.775 7.77186C6.72283 7.12378 6.31277 6.63015 5.68777 6.483C5.53126 6.44595 5.36536 6.44804 5.20728 6.41516C5.04959 6.38509 4.90737 6.30083 4.80524 6.17695C4.7031 6.05307 4.64749 5.89738 4.64802 5.73681C4.64087 5.57199 4.69179 5.40989 4.7919 5.27877C4.89201 5.14765 5.03495 5.05583 5.19581 5.01933C5.63351 4.92279 6.05766 5.22492 6.08687 5.7342C6.09992 5.96432 6.25016 6.0786 6.46145 6.06399C6.65918 6.0499 6.79169 5.8944 6.7797 5.67211C6.75048 5.1456 6.51884 4.71616 6.04514 4.49073C5.77385 4.36185 5.67055 4.22409 5.70238 3.93188C5.72429 3.73307 5.57247 3.59792 5.38362 3.58748C5.33807 3.58319 5.29212 3.58799 5.24844 3.60161C5.20475 3.61522 5.16422 3.63739 5.12917 3.66681C5.09413 3.69623 5.06527 3.73232 5.04429 3.77299C5.02331 3.81365 5.01062 3.85809 5.00695 3.9037C4.99557 3.99407 4.99434 4.08544 5.0033 4.17609C5.01634 4.30028 4.96887 4.35141 4.84992 4.39733C4.6695 4.4645 4.5048 4.56804 4.36606 4.70153C4.22731 4.83501 4.11747 4.99559 4.04336 5.17331C3.96924 5.35102 3.93243 5.54207 3.93522 5.7346C3.938 5.92713 3.98032 6.11704 4.05954 6.29254C4.32039 6.86653 4.7941 7.12273 5.41127 7.15248C5.58801 7.16199 5.75469 7.2377 5.87814 7.36456C6.00159 7.49142 6.07276 7.66012 6.07748 7.83709C6.0817 8.01121 6.02223 8.18088 5.91022 8.31424C5.79821 8.4476 5.64138 8.53547 5.46918 8.56136C5.37285 8.5775 5.27421 8.57346 5.17952 8.54949C5.08483 8.52551 4.99616 8.48213 4.91911 8.42209C4.84206 8.36204 4.77832 8.28665 4.73192 8.20068C4.68552 8.11471 4.65749 8.02004 4.64958 7.92266C4.62089 7.64298 4.47534 7.48382 4.26352 7.50209C4.05171 7.52035 3.91816 7.69203 3.94581 7.97171C4.00945 8.6198 4.38143 9.02368 5.00225 9.24127L5.00382 9.24597ZM5.54639 13.5671C6.42441 13.5671 7.30296 13.5671 8.18099 13.5671C8.43871 13.5671 8.58166 13.4173 8.56236 13.183C8.54514 12.9785 8.39332 12.8626 8.12673 12.8626C7.15741 12.8605 6.18809 12.8605 5.21876 12.8626C4.47064 12.8626 3.72252 12.8564 2.97544 12.8689C2.84554 12.8715 2.68276 12.9237 2.59825 13.0124C2.53042 13.0839 2.52416 13.2555 2.55286 13.3662C2.59199 13.517 2.73337 13.5702 2.89301 13.5702C3.77521 13.5613 4.66002 13.5624 5.54483 13.5624L5.54639 13.5671ZM5.54639 11.0822H3.02761C2.9495 11.0797 2.87132 11.0837 2.79388 11.0942C2.71504 11.1035 2.64238 11.1415 2.58982 11.201C2.53726 11.2605 2.5085 11.3373 2.50904 11.4167C2.5001 11.4957 2.52098 11.5752 2.56759 11.6396C2.61421 11.7039 2.68319 11.7486 2.76102 11.7647C2.84987 11.7843 2.94084 11.7928 3.03178 11.7898C4.70332 11.7898 6.37503 11.7898 8.04691 11.7898C8.13125 11.7923 8.2156 11.7853 8.29837 11.7689C8.47314 11.7287 8.55923 11.6124 8.56183 11.4313C8.56183 11.2074 8.41889 11.0838 8.1403 11.0827C7.27531 11.0759 6.41033 11.0775 5.54483 11.0775L5.54639 11.0822Z" fill="white"/>
<path d="M16.4207 2.14949C17.0499 2.14949 17.6483 2.14636 18.2467 2.14949C18.4168 2.14949 18.5232 2.25646 18.5597 2.42083C18.5755 2.51037 18.5821 2.60128 18.5795 2.69217C18.5795 6.85132 18.5795 11.0105 18.5795 15.1696C18.5795 15.6147 18.4835 15.7128 18.0458 15.7128H12.4015C11.2919 15.7128 11.2919 15.7128 10.3549 16.2346V16.0369C10.3549 11.9104 10.3622 7.78345 10.3486 3.65699C10.346 2.8221 10.9909 2.09574 11.8689 2.13905C12.1866 2.15523 12.5059 2.13905 12.8565 2.13905V2.39161C12.8565 5.10501 12.8565 7.81928 12.8565 10.5344C12.8496 10.939 12.9549 11.3376 13.1606 11.686C13.4429 12.1609 13.7094 12.6451 13.9854 13.1236C14.3193 13.7044 14.9667 13.707 15.3012 13.1283C15.5777 12.6503 15.8443 12.1666 16.126 11.6913C16.3283 11.3487 16.4317 10.9567 16.4249 10.5589C16.4197 7.84554 16.4197 5.13214 16.4249 2.41874L16.4207 2.14949Z" fill="white"/>
<path d="M1.42463 16.4243H2.14928C4.14566 16.4243 6.14204 16.4243 8.13843 16.4243C8.81194 16.4243 9.33835 16.7745 9.55329 17.3584C9.56633 17.3938 9.57311 17.4324 9.58771 17.4893C9.51676 17.493 9.45625 17.4992 9.39573 17.4992H1.88321C1.55767 17.4992 1.43142 17.3787 1.4262 17.0583C1.42203 16.8381 1.42463 16.6179 1.42463 16.4243Z" fill="white"/>
<path d="M10.4082 17.4996C10.5605 16.9815 10.8777 16.6486 11.3697 16.4952C11.5511 16.4451 11.7388 16.4221 11.9269 16.4268C13.8843 16.4219 15.8416 16.4211 17.7986 16.4242H18.5655C18.5655 16.6554 18.5801 16.9267 18.5608 17.196C18.5462 17.3922 18.4043 17.4965 18.1957 17.4986C17.8899 17.5023 17.5842 17.4986 17.2785 17.4986H10.4082V17.4996Z" fill="white"/>
<path d="M13.5747 3.5752H14.2764V10.701H13.5747V3.5752Z" fill="white"/>
<path d="M15.7012 10.7072H15.0151V3.57617H15.7012V10.7072Z" fill="white"/>
<path d="M15.7138 1.06423H13.5686C13.5686 0.812193 13.5561 0.572683 13.5722 0.333695C13.5868 0.120798 13.734 0.00339175 13.9541 0.00182633C14.4146 -0.000608776 14.8753 -0.000608776 15.3361 0.00182633C15.5667 0.00182633 15.7013 0.128104 15.7117 0.357177C15.7222 0.586251 15.7138 0.823673 15.7138 1.06423Z" fill="white"/>
<path d="M15.7017 2.84997H13.5747V1.80322H15.7001L15.7017 2.84997Z" fill="white"/>
<path d="M14.6431 12.8578C14.376 12.3881 14.1287 11.9576 13.8814 11.524C13.8689 11.4965 13.8584 11.468 13.8501 11.439H15.4528C15.1799 11.9169 14.9212 12.3699 14.6431 12.8578Z" fill="white"/>
</svg>
