<svg width="17" height="18" viewBox="0 0 17 18" fill="none" xmlns="http://www.w3.org/2000/svg">
<path d="M1.849 18.0005C1.34707 16.9106 0.853921 15.8551 0.365089 14.7866C0.247245 14.5378 0.125131 14.2889 0.0247462 14.0357C-0.00824872 13.956 -0.00824872 13.8667 0.0247462 13.7869C0.49612 13.0189 0.954417 12.2465 1.46071 11.4999C1.77831 11.0002 2.22136 10.5893 2.74727 10.3067C3.27319 10.0242 3.8642 9.87951 4.46348 9.88655C6.32279 9.88655 8.17774 9.88655 10.037 9.88655C10.242 9.88816 10.4442 9.93289 10.6301 10.0177C10.816 10.1025 10.9812 10.2254 11.1148 10.3783C11.2483 10.5311 11.3471 10.7103 11.4044 10.9037C11.4616 11.0972 11.4761 11.3005 11.4468 11.4999C11.4182 11.67 11.3275 11.824 11.1917 11.933C11.0559 12.042 10.8844 12.0985 10.7092 12.092H5.94739C5.85479 12.092 5.76587 12.1282 5.70039 12.1926C5.63491 12.2569 5.59831 12.3442 5.59831 12.4353C5.59831 12.5263 5.63491 12.6136 5.70039 12.678C5.76587 12.7424 5.85479 12.7786 5.94739 12.7786H10.7047C11.0376 12.7879 11.3629 12.6797 11.6215 12.4734C11.8802 12.2671 12.0551 11.9765 12.1145 11.6543C12.1349 11.5768 12.1706 11.5039 12.2193 11.4398C13.0311 10.3499 13.8386 9.2601 14.6548 8.17452C14.8511 7.91589 15.1351 7.73506 15.4555 7.66498C15.7758 7.5949 16.1113 7.64016 16.4006 7.79258C16.4953 7.83298 16.5789 7.89463 16.6451 7.97244C16.7113 8.05026 16.7582 8.1421 16.7819 8.24083C16.8056 8.33956 16.8057 8.44245 16.7819 8.54117C16.7581 8.63988 16.7111 8.73177 16.6448 8.80955C15.2045 10.6846 13.7643 12.5684 12.3065 14.4349C12.0433 14.7615 11.7129 15.0297 11.3368 15.222C10.9607 15.4143 10.5474 15.5262 10.1242 15.5504C8.94577 15.6749 7.77615 15.8293 6.60208 15.9795C6.29656 16.0138 5.99547 16.0396 5.68995 16.0825C5.20722 16.159 4.74447 16.3282 4.32815 16.5803C3.5338 17.0523 2.70009 17.5156 1.849 18.0005Z" fill="white"/>
<path d="M8.53101 8.97332C7.32518 8.97789 6.16675 8.51202 5.31001 7.6778C4.45327 6.84358 3.96835 5.70924 3.96143 4.52379C4.0138 1.58887 6.21342 0.00124921 8.53101 0.00124921C9.13597 -0.0129491 9.73764 0.0940118 10.2992 0.315623C10.8608 0.537235 11.3705 0.868919 11.7976 1.29038C12.2247 1.71184 12.56 2.21431 12.7833 2.76724C13.0065 3.32017 13.1131 3.91194 13.0963 4.50661C13.0958 5.09484 12.9772 5.67714 12.7473 6.22022C12.5174 6.7633 12.1808 7.25646 11.7567 7.67141C11.3326 8.08635 10.8293 8.415 10.2758 8.63841C9.72227 8.86183 9.12935 8.97558 8.53101 8.97332ZM8.88457 4.12048V2.70019H10.0718C10.325 2.70019 10.4863 2.56287 10.4863 2.3612C10.4863 2.15953 10.3205 2.01791 10.0499 2.01362C9.77927 2.00933 9.5873 2.01362 9.35597 2.01362H8.86283C8.86283 1.84199 8.86283 1.70047 8.86283 1.55887C8.85026 1.47594 8.80675 1.40047 8.74093 1.34716C8.67511 1.29385 8.59149 1.26643 8.50629 1.27016C8.42109 1.2739 8.34049 1.30852 8.27975 1.36738C8.21902 1.42624 8.18247 1.50513 8.17746 1.58883C8.17746 1.72614 8.17746 1.86345 8.17746 2.01792C7.16051 2.13377 6.62381 2.58434 6.58017 3.33952C6.5543 3.67569 6.65342 4.00961 6.85935 4.27919C7.01328 4.47255 7.21324 4.62572 7.44157 4.72524C7.66991 4.82476 7.9196 4.8676 8.16872 4.8499V6.2573H7.9767C7.6319 6.2573 7.28279 6.2573 6.93799 6.2573C6.8477 6.2573 6.76101 6.29259 6.69717 6.35535C6.63332 6.41812 6.59764 6.50323 6.59764 6.592C6.59764 6.68076 6.63332 6.76588 6.69717 6.82864C6.76101 6.89141 6.8477 6.92669 6.93799 6.92669C7.07329 6.92669 7.21293 6.92669 7.34823 6.92669H8.19493C8.19493 7.08546 8.19493 7.20989 8.19493 7.35578C8.19493 7.59177 8.31714 7.72474 8.52227 7.73332C8.57209 7.73606 8.62207 7.7281 8.66847 7.71006C8.71487 7.69203 8.75657 7.66437 8.79101 7.62888C8.82545 7.59338 8.8518 7.55095 8.86794 7.50453C8.88409 7.45812 8.8897 7.40876 8.88457 7.35997C8.88457 7.23124 8.88457 7.09827 8.88457 6.96954C9.88405 6.90089 10.482 6.36451 10.4863 5.55355C10.4907 4.74258 9.91024 4.19342 8.88457 4.12048Z" fill="white"/>
<path d="M1.91903 8.03418C2.0456 7.89687 2.17223 7.75527 2.30753 7.6051C2.34067 7.56917 2.38092 7.54052 2.42602 7.52087C2.47112 7.50123 2.51991 7.49102 2.56924 7.49102C2.61857 7.49102 2.66735 7.50123 2.71245 7.52087C2.75755 7.54052 2.79801 7.56917 2.83115 7.6051C2.86618 7.63721 2.89411 7.6761 2.9132 7.71928C2.9323 7.76246 2.94219 7.80901 2.94219 7.85609C2.94219 7.90318 2.9323 7.94983 2.9132 7.99301C2.89411 8.03619 2.86618 8.07508 2.83115 8.10719C2.48635 8.45475 2.13297 8.80227 1.77944 9.14124C1.74666 9.17849 1.70608 9.20834 1.66052 9.22882C1.61496 9.2493 1.56549 9.25993 1.51539 9.25993C1.46529 9.25993 1.41561 9.2493 1.37005 9.22882C1.32448 9.20834 1.28412 9.17849 1.25134 9.14124C0.897811 8.80227 0.544212 8.45475 0.199411 8.10719C0.164387 8.07508 0.136458 8.03619 0.117362 7.99301C0.0982672 7.94983 0.0883789 7.90318 0.0883789 7.85609C0.0883789 7.80901 0.0982672 7.76246 0.117362 7.71928C0.136458 7.6761 0.164387 7.63721 0.199411 7.6051C0.23255 7.56917 0.273015 7.54052 0.318116 7.52087C0.363216 7.50123 0.411998 7.49102 0.461328 7.49102C0.510658 7.49102 0.55944 7.50123 0.60454 7.52087C0.649641 7.54052 0.689892 7.56917 0.723032 7.6051C0.858333 7.73811 0.989339 7.87542 1.12028 8.03418H1.1727V4.78181C1.17182 4.69507 1.182 4.60852 1.20318 4.52432C1.22488 4.45505 1.26854 4.39441 1.32785 4.35136C1.38716 4.30831 1.45893 4.28516 1.53265 4.28516C1.60637 4.28516 1.67836 4.30831 1.73767 4.35136C1.79697 4.39441 1.84064 4.45505 1.86234 4.52432C1.88352 4.60707 1.89371 4.69219 1.89281 4.77751V8.00411L1.91903 8.03418Z" fill="white"/>
<path d="M15.2131 1.44356V4.01806C15.2131 4.25834 15.2131 4.4986 15.2131 4.73889C15.2131 4.97917 15.3527 5.16797 15.5709 5.16797C15.7892 5.16797 15.9115 5.00492 15.9115 4.73889V1.34918C16.0904 1.5251 16.2214 1.6667 16.3479 1.77826C16.3781 1.81965 16.4171 1.85411 16.4622 1.87925C16.5072 1.90439 16.5572 1.9196 16.6088 1.92387C16.6604 1.92814 16.7123 1.92136 16.761 1.90397C16.8096 1.88658 16.854 1.85895 16.8907 1.8231C16.9275 1.78725 16.956 1.74405 16.9741 1.69634C16.9922 1.64864 16.9995 1.59763 16.9956 1.54685C16.9917 1.49608 16.9767 1.44668 16.9515 1.40219C16.9263 1.35769 16.8917 1.31908 16.8498 1.28905C16.5138 0.945783 16.1733 0.611162 15.8241 0.280768C15.7915 0.238945 15.7496 0.205093 15.7016 0.181774C15.6535 0.158454 15.6007 0.146261 15.5471 0.146261C15.4935 0.146261 15.4406 0.158454 15.3926 0.181774C15.3445 0.205093 15.3024 0.238945 15.2698 0.280768C14.925 0.615453 14.5845 0.950074 14.2441 1.28905C14.2044 1.32028 14.1719 1.35952 14.1488 1.40407C14.1257 1.44862 14.1126 1.49754 14.1103 1.54748C14.1079 1.59743 14.1164 1.64726 14.1352 1.69372C14.154 1.74019 14.1826 1.78218 14.2192 1.81692C14.2557 1.85165 14.2993 1.87834 14.3472 1.89517C14.3951 1.912 14.4462 1.91861 14.4968 1.91455C14.5475 1.91049 14.5968 1.89583 14.6413 1.8716C14.6858 1.84736 14.7245 1.81407 14.7549 1.77397C14.8859 1.64524 15.0079 1.50364 15.1345 1.34488L15.2131 1.44356Z" fill="white"/>
<path d="M8.17771 4.12838C8.02787 4.16299 7.8708 4.14999 7.72889 4.09141C7.58698 4.03283 7.46749 3.93167 7.3877 3.80228C7.30468 3.68602 7.26025 3.5474 7.26025 3.40536C7.26025 3.26331 7.30468 3.1247 7.3877 3.00843C7.46869 2.88559 7.5868 2.79064 7.72527 2.7368C7.86374 2.68296 8.01568 2.67295 8.16023 2.7081L8.17771 4.12838Z" fill="white"/>
<path d="M8.88477 5.53421C8.88477 5.34112 8.88477 5.148 8.88477 4.95491C8.88477 4.83906 8.93272 4.80469 9.04183 4.80469C9.23655 4.80673 9.42318 4.88231 9.56289 5.01567C9.7026 5.14902 9.78481 5.33004 9.79263 5.52133C9.79042 5.71719 9.71084 5.90455 9.57078 6.04385C9.43071 6.18315 9.24102 6.26349 9.04183 6.26792C8.93272 6.26792 8.88477 6.23356 8.88477 6.1177C8.88913 5.92462 8.88477 5.73159 8.88477 5.53421Z" fill="white"/>
</svg>
