<svg width="22" height="20" viewBox="0 0 22 20" fill="none" xmlns="http://www.w3.org/2000/svg">
<path d="M10.567 9.26047C7.3653 9.26047 4.16362 9.25099 0.962127 9.26898C0.360215 9.27246 -0.0273228 8.9629 0.0015055 8.29637C0.0349773 7.51877 0.00963162 6.73867 0.00924466 5.95953C0.00847074 4.759 0.407424 3.70937 1.20862 2.81647C1.85252 2.09886 2.50725 1.39092 3.15095 0.673115C3.56287 0.213797 4.06997 2.71863e-06 4.68601 0.000583154C8.71327 0.00445273 12.7405 0.00522668 16.7676 2.76069e-06C17.4417 -0.000964632 17.9735 0.252299 18.3897 0.778754C18.9446 1.4805 19.5086 2.1749 20.0693 2.872C20.772 3.74555 21.1241 4.74139 21.1212 5.86318C21.1189 6.71932 21.1218 7.57566 21.1205 8.4318C21.1195 8.96735 20.8256 9.25989 20.2877 9.26008C17.0474 9.26086 13.8072 9.26047 10.567 9.26047ZM7.78728 8.50997C7.78728 7.55592 7.78592 6.62336 7.78844 5.69098C7.78902 5.50621 7.79405 5.32047 7.81379 5.13705C7.92078 4.1476 8.23151 3.21271 8.59505 2.29408C8.7982 1.78059 9.02283 1.2758 9.24785 0.743348C8.81523 0.743348 8.40061 0.751087 7.98675 0.739285C7.83352 0.735028 7.75458 0.788621 7.67854 0.917865C6.78893 2.433 6.31684 4.06383 6.30659 5.82351C6.30194 6.63361 6.30581 7.44351 6.30581 8.25361C6.30581 8.33603 6.30581 8.41826 6.30581 8.50997C6.80654 8.50997 7.28191 8.50997 7.78728 8.50997ZM12.2636 0.743348C12.5457 1.43639 12.828 2.09383 13.0818 2.7621C13.5148 3.90266 13.7797 5.07359 13.7189 6.30818C13.6868 6.96233 13.7133 7.61938 13.7133 8.27508C13.7133 8.34977 13.7133 8.42464 13.7133 8.50474C14.2185 8.50474 14.6993 8.50474 15.2186 8.50474C15.1936 7.28002 15.2213 6.06691 15.1311 4.86289C15.0243 3.43734 14.5389 2.11279 13.7963 0.88865C13.7565 0.823061 13.6623 0.75186 13.5912 0.749926C13.1522 0.736963 12.7127 0.743348 12.2636 0.743348ZM1.86122 10.6079C1.86122 12.9681 1.85967 15.3282 1.8618 17.6884C1.86296 19.0443 2.82107 19.9972 4.182 19.9991C5.42394 20.0009 6.66607 19.9995 7.90801 19.9995C7.98869 19.9995 8.06937 19.9995 8.1576 19.9995C8.1576 19.8776 8.1576 19.7931 8.1576 19.7085C8.15837 18.4205 8.14386 17.1321 8.16398 15.8444C8.18526 14.4757 9.32408 13.3614 10.6916 13.3353C12.1349 13.3078 13.321 14.4399 13.3388 15.8887C13.3544 17.1689 13.3428 18.4493 13.343 19.7296C13.343 19.8122 13.343 19.8948 13.343 19.9995C13.4401 19.9995 13.5154 19.9995 13.5907 19.9995C14.8249 19.9995 16.0593 20.0003 17.2935 19.9993C18.697 19.9981 19.6386 19.0532 19.639 17.6441C19.64 15.3071 19.6392 12.97 19.6392 10.633C19.6392 10.5512 19.6392 10.4691 19.6392 10.3795C13.704 10.3795 7.79773 10.3795 1.86103 10.3795C1.86122 10.4711 1.86122 10.5396 1.86122 10.6079Z" fill="white"/>
</svg>
