<svg width="22" height="20" viewBox="0 0 22 20" fill="none" xmlns="http://www.w3.org/2000/svg">
<path d="M7.95118 13.1745C12.2402 13.1745 15.9024 13.8545 15.9024 16.5754C15.9024 19.2953 12.2637 20 7.95118 20C3.6622 20 0 19.32 0 16.6002C0 13.8793 3.63869 13.1745 7.95118 13.1745ZM14.8087 11.5361C16.4484 11.5057 18.2113 11.7309 18.8627 11.8907C20.2427 12.162 21.1504 12.7159 21.5265 13.5208C21.8444 14.1816 21.8444 14.9483 21.5265 15.608C20.9512 16.8564 19.0966 17.2572 18.3758 17.3608C18.2269 17.3833 18.1072 17.2538 18.1228 17.1041C18.4911 13.6446 15.562 12.0044 14.8043 11.6273C14.7718 11.6104 14.7651 11.5845 14.7684 11.5687C14.7707 11.5575 14.7841 11.5395 14.8087 11.5361ZM7.95118 0C10.8713 0 13.2128 2.35284 13.2128 5.29107C13.2128 8.22817 10.8713 10.5833 7.95118 10.5833C5.03104 10.5833 2.68957 8.22817 2.68957 5.29107C2.68957 2.35284 5.03104 0 7.95118 0ZM15.0941 0.88237C17.9147 0.88237 20.1297 3.55154 19.3753 6.52467C18.866 8.52627 17.0226 9.85579 14.9688 9.80175C14.7628 9.79613 14.5603 9.77699 14.3644 9.74321C14.2222 9.71845 14.1506 9.55746 14.2312 9.43813C15.0147 8.2786 15.4613 6.88379 15.4613 5.38653C15.4613 3.82398 14.9733 2.36724 14.126 1.17282C14.0991 1.13567 14.079 1.07825 14.1058 1.03547C14.1282 1.00057 14.1696 0.982562 14.2088 0.973556C14.4942 0.915017 14.7875 0.88237 15.0941 0.88237Z" fill="white"/>
</svg>
