<svg width="19" height="20" viewBox="0 0 19 20" fill="none" xmlns="http://www.w3.org/2000/svg">
<path d="M18.369 6.16582C18.3677 9.18067 18.361 12.1956 18.3626 15.2104C18.3628 15.442 18.3173 15.5858 18.0973 15.7108C15.6697 17.0896 13.0473 18.483 10.6255 19.8724C10.5328 19.9256 10.4173 19.8572 10.4173 19.7504C10.4173 19.0582 10.4173 18.4238 10.4173 17.7895C10.4173 15.3974 10.419 13.0054 10.4145 10.6133C10.4141 10.389 10.439 10.2265 10.6645 10.098C13.1143 8.70218 15.7597 7.29317 18.2047 5.88843C18.2671 5.85257 18.3554 5.87608 18.3719 5.94612C18.3891 6.01939 18.3691 6.09593 18.369 6.16582ZM7.96852 10.513C7.9595 13.5242 7.96219 16.5363 7.96133 19.5475C7.96133 19.5475 7.96134 19.5475 7.96135 19.5475C7.96137 19.5475 7.96138 19.5475 7.96138 19.5475V19.8828C7.96138 19.9348 7.90501 19.9673 7.85999 19.9412C7.50548 19.7379 6.96943 19.5461 6.6369 19.3549C4.53028 18.1384 2.42468 16.9207 0.315981 15.7073C0.127653 15.5994 -0.00200324 15.5031 2.3427e-05 15.2323C0.0164901 12.1612 0.0154768 9.0901 0.0205941 6.019C0.0205941 5.9188 0.139769 5.86357 0.226583 5.9136C0.625472 6.14345 1.00506 6.36343 1.38621 6.58181C3.4105 7.74765 5.63644 8.91447 7.6628 10.0771C7.83785 10.1766 7.96959 10.2601 7.96852 10.513ZM2.82814 9.6328C2.82504 9.12817 2.54101 8.81291 2.12524 8.80869C1.70019 8.80551 1.42751 9.1102 1.42234 9.61905C1.41514 10.3839 1.42026 11.1488 1.42026 11.9126C1.42026 12.6626 1.41509 13.4137 1.42234 14.1638C1.42644 14.6695 1.70121 14.99 2.11287 14.9943C2.52044 14.9985 2.82504 14.6706 2.82707 14.1765C2.83533 12.6616 2.83533 11.1477 2.82814 9.6328ZM16.2725 4.44103C14.0185 5.74108 11.7615 7.03708 9.50854 8.33916C9.34235 8.4352 9.2135 8.49989 9.0119 8.38265C6.69299 7.0351 4.36719 5.69968 2.04432 4.3602C1.95494 4.30915 1.96563 4.17523 2.05493 4.12404C4.41686 2.76995 6.73698 1.44005 9.05522 0.108271C9.18011 0.0365003 9.27846 0.0162919 9.41612 0.0961357C11.6843 1.40808 13.9552 2.71362 16.2245 4.01973C16.4148 4.12928 16.4629 4.33146 16.2725 4.44103ZM9.8173 2.05119C9.63439 1.69431 9.2361 1.5902 8.83188 1.81463C8.28904 2.11588 7.75304 2.43025 7.21415 2.74062C6.66441 3.05702 6.11174 3.36942 5.56591 3.69291C5.27382 3.86676 5.13124 4.13671 5.22269 4.48041C5.30629 4.79681 5.52462 4.97676 5.91404 5.00004C5.99272 5.01218 6.1166 4.96161 6.23167 4.89593C7.32131 4.27119 8.41191 3.64843 9.49663 3.01358C9.87536 2.79223 9.99433 2.39489 9.8173 2.05119Z" fill="white"/>
</svg>
