<svg width="20" height="20" viewBox="0 0 20 20" fill="none" xmlns="http://www.w3.org/2000/svg">
<path d="M18.7882 13.7189C16.7509 13.7189 14.53 13.7189 12.4743 13.7189C10.2902 13.7189 7.75727 13.7189 5.57311 13.7189C4.83893 13.7189 4.43514 13.4326 4.32501 12.8778C4.17818 12.1083 4.67374 11.6073 5.57311 11.6073C8.49144 11.6073 11.9604 11.6073 14.8787 11.6073C16.5673 11.6073 17.7971 10.7483 18.2743 9.19145C18.8433 7.34828 19.3756 5.5051 19.9262 3.66192C20.1831 2.76717 19.761 2.23032 18.7882 2.23032C14.6585 2.23032 9.97814 2.23032 5.83007 2.24822C5.31615 2.24822 4.94906 2.21243 4.76552 1.63979C4.6921 1.38926 4.47185 1.15663 4.26995 0.959781C3.31552 -0.0960209 2.01237 -0.0960209 0.709211 0.100823C0.213644 0.154508 -0.0616707 0.691357 0.0117466 1.21031C0.0851639 1.72926 0.415542 2.06927 0.929463 2.10506C1.25984 2.14085 1.60857 2.10506 1.93895 2.12295C2.63641 2.14085 3.07692 2.51664 3.2054 3.17875C3.24211 3.41139 3.31552 3.66192 3.37059 3.89455C3.93957 5.75563 4.50855 7.5988 5.07754 9.47777C4.94906 9.51356 4.85729 9.54935 4.76552 9.56725C3.04021 9.99673 1.97566 11.3925 2.17756 12.9494C2.39781 14.6315 3.79274 15.8126 5.59146 15.8305C6.06867 15.8305 6.52753 15.8305 7.00474 15.8305C10.749 15.8305 15.0439 15.8305 18.7882 15.8305C19.6325 15.8305 20.073 15.3831 19.9812 14.6136C19.9078 14.0231 19.5224 13.7189 18.7882 13.7189ZM8.49144 4.44929C8.61992 4.32403 8.78511 4.25245 8.96865 4.25245H14.2731C14.6401 4.25245 14.9522 4.55666 14.9522 4.91456C14.9522 5.09351 14.8787 5.25457 14.7503 5.37983C14.6218 5.5051 14.4566 5.57668 14.2731 5.57668H8.96865C8.60157 5.57668 8.28955 5.27246 8.28955 4.91456C8.28955 4.73561 8.36296 4.57456 8.49144 4.44929ZM8.49144 7.31249C8.61992 7.18722 8.78511 7.11564 8.96865 7.11564H14.2731C14.6401 7.11564 14.9522 7.41986 14.9522 7.77775C14.9522 7.9567 14.8787 8.13565 14.7503 8.24302C14.6218 8.36829 14.4566 8.43987 14.2731 8.43987H8.96865C8.60157 8.43987 8.28955 8.13565 8.28955 7.77775C8.28955 7.5988 8.36296 7.43775 8.49144 7.31249ZM15.8148 16.9221C14.9338 16.9221 14.2363 17.62 14.2363 18.461C14.2363 19.32 14.9522 20 15.8148 20C16.6958 20 17.3933 19.3021 17.3933 18.461C17.3933 17.6021 16.6775 16.9221 15.8148 16.9221ZM7.04145 16.9221C6.16044 16.9221 5.46298 17.62 5.46298 18.461C5.46298 19.32 6.1788 20 7.04145 20C7.9041 20 8.61992 19.3021 8.61992 18.461C8.61992 17.6021 7.9041 16.9221 7.04145 16.9221Z" fill="white"/>
</svg>
