<svg width="17" height="20" viewBox="0 0 17 20" fill="none" xmlns="http://www.w3.org/2000/svg">
<path d="M16.0843 10.0055C16.0843 12.449 16.0861 14.8926 16.0835 17.3362C16.0822 18.5741 15.3571 19.5803 14.2419 19.9032C14.0006 19.9731 13.7537 20.0001 13.5029 20C10.1677 19.9993 6.8326 20.0002 3.49741 19.9992C2.0224 19.9987 0.920101 18.8739 0.917162 17.3569C0.912653 15.0348 0.915946 12.7127 0.915895 10.3907C0.915895 9.07436 0.919594 7.75806 0.914578 6.44176C0.911335 5.58514 1.20014 4.87988 1.82602 4.29337C3.04856 3.14775 4.26476 1.99348 5.44509 0.802486C6.00764 0.234881 6.64072 -0.00345185 7.40599 3.77341e-05C9.43463 0.00925648 11.4633 0.00300648 13.492 0.00321482C14.9802 0.00337107 16.08 1.12275 16.083 2.65446C16.0877 5.10478 16.0842 7.55514 16.0843 10.0055ZM6.57546 14.7263C6.9769 14.288 7.68507 14.3507 8.00473 14.8518C8.33744 15.3733 8.66634 15.8887 8.99586 16.4036C9.34196 16.9445 10.0025 16.9989 10.4199 16.5188C10.8487 16.0259 11.2732 15.5289 11.6992 15.0334C12.2817 14.3558 12.8671 13.6808 13.4448 12.999C13.8581 12.5114 13.6735 11.8377 13.0925 11.713C12.7514 11.6398 12.4616 11.7475 12.2283 12.0227C11.6074 12.7553 10.9822 13.4841 10.3582 14.214C10.1564 14.45 9.78299 14.4215 9.61596 14.1597C9.17882 13.4746 8.74932 12.8005 8.31687 12.1283C7.99241 11.6239 7.34534 11.5506 6.94269 11.9817C5.83776 13.1645 4.7394 14.3539 3.63918 15.5414C3.50831 15.6826 3.43129 15.8515 3.41974 16.0477C3.39973 16.3865 3.59697 16.7093 3.90918 16.8538C4.22245 16.9989 4.54788 16.9347 4.80578 16.6564C5.39893 16.0162 5.98575 15.3698 6.57546 14.7263ZM2.5468 6.117C2.53795 6.17475 2.58124 6.22944 2.63958 6.23254C3.61617 6.2841 4.59283 6.33431 5.56943 6.38665C6.59264 6.4415 7.28444 5.76972 7.28621 4.7142C7.28779 3.76254 7.28702 2.81087 7.28556 1.8592C7.28535 1.72989 7.1808 1.65724 7.05341 1.67945C6.85079 1.71477 6.6695 1.80541 6.51162 1.96499C6.2402 2.23936 5.96204 2.50676 5.68697 2.77733C4.75734 3.6917 3.82735 4.60566 2.89848 5.52082C2.72898 5.6878 2.58463 5.87003 2.5468 6.117ZM11.4276 6.31144C11.4274 6.31144 11.4272 6.31163 11.4272 6.31186C11.4272 6.31209 11.427 6.31228 11.4268 6.31228C10.8497 6.31227 10.2727 6.30754 9.69567 6.31374C9.21879 6.31884 8.90785 6.64347 8.90111 7.12707C8.89448 7.60118 9.19052 7.95858 9.65245 7.96426C10.846 7.979 12.0398 7.97608 13.2334 7.96493C13.5677 7.96181 13.821 7.78733 13.9363 7.44775C14.1317 6.87191 13.7543 6.31858 13.1587 6.31275C12.5817 6.30702 12.0047 6.31144 11.4276 6.31144ZM11.4349 2.99327C10.8512 2.99327 10.2673 2.98884 9.68366 2.99467C9.22244 2.99931 8.91251 3.32499 8.90121 3.80118C8.88981 4.28228 9.19837 4.64332 9.66436 4.64733C10.8514 4.65759 12.0387 4.65561 13.2258 4.64759C13.5271 4.64556 13.7689 4.50415 13.9036 4.21129C14.17 3.63269 13.788 2.99931 13.1664 2.9942C12.5893 2.98946 12.0121 2.99321 11.4349 2.99327Z" fill="white"/>
</svg>
