<svg width="19" height="20" viewBox="0 0 19 20" fill="none" xmlns="http://www.w3.org/2000/svg">
<path d="M13.0648 0.401665C13.1746 0.401665 13.2845 0.401665 13.3943 0.401665C13.4557 0.439998 13.5278 0.467342 13.5768 0.518331C13.9789 0.937186 14.3767 1.36047 14.7484 1.75328C14.2472 2.27219 13.7376 2.79995 13.2073 3.34906C13.1035 3.23401 12.993 3.09995 12.8708 2.97838C12.6382 2.74703 12.2979 2.74719 12.0833 2.97052C11.8722 3.19005 11.8664 3.53312 12.0889 3.76666C12.6016 4.30453 13.1208 4.83594 13.6412 5.36594C13.785 5.51239 13.9646 5.56495 14.1636 5.50932C14.5756 5.39417 14.7067 4.89437 14.4107 4.56396C14.2889 4.42802 14.1588 4.30005 14.05 4.18677C14.5767 3.64364 15.0839 3.12062 15.5925 2.59614C15.9803 2.99219 16.388 3.38906 16.7688 3.81161C16.859 3.91161 16.8895 4.09708 16.8927 4.24453C16.8969 4.43635 16.8463 4.62943 16.8195 4.82203C16.5931 6.44953 16.3647 8.07672 16.1431 9.70489C16.1138 9.92015 16.0381 10.0946 15.8875 10.2494C13.6944 12.5035 11.505 14.7614 9.3116 17.0152C9.1745 17.156 9.02331 17.2896 8.85915 17.3941C8.04529 17.9121 7.0504 17.7698 6.33488 17.0362C5.23268 15.9061 4.13463 14.7718 3.03486 13.6392C2.27147 12.853 1.50544 12.0696 0.745591 11.2798C-0.0984648 10.4026 -0.117059 9.14166 0.714583 8.28177C2.93556 5.98536 5.16261 3.69515 7.39351 1.40896C7.49393 1.30604 7.64953 1.22521 7.78957 1.20364C9.182 0.989425 10.5767 0.791508 11.9703 0.58505C12.3361 0.530831 12.7 0.463175 13.0648 0.401665ZM7.02927 13.7894C7.29699 13.7926 7.47944 13.6443 7.58063 13.3324C8.13999 11.6089 8.69803 9.88479 9.25658 8.16088C9.5474 7.26328 9.83975 6.36614 10.1284 5.46776C10.249 5.09234 10.0772 4.75594 9.73269 4.67781C9.44526 4.61265 9.18919 4.79041 9.07732 5.13604C8.41718 7.17489 7.75771 9.21401 7.09782 11.253C6.90737 11.8415 6.71235 12.4285 6.52671 13.0186C6.40121 13.4174 6.64572 13.7848 7.02927 13.7894ZM5.21703 10.9231C6.13009 10.9266 6.87408 10.1661 6.87393 9.22948C6.87377 8.30448 6.13338 7.53823 5.234 7.53234C4.33391 7.5264 3.58764 8.28484 3.58156 9.21177C3.57537 10.1571 4.30401 10.9195 5.21703 10.9231ZM9.79334 9.22838C9.79278 10.1629 10.5211 10.9186 11.4263 10.923C12.3422 10.9274 13.0809 10.1731 13.0825 9.23182C13.0841 8.29635 12.3357 7.52672 11.4296 7.53213C10.5285 7.5375 9.79385 8.29901 9.79334 9.22838Z" fill="white"/>
<path d="M8.52613 19.7025C8.33558 19.6405 8.13909 19.5931 7.95573 19.5135C7.60587 19.3616 7.33035 19.1119 7.09814 18.7585C7.23459 18.7768 7.33927 18.7928 7.44435 18.8046C8.4323 18.9157 9.29505 18.624 9.99815 17.9039C12.2461 15.6014 14.4837 13.2882 16.7265 10.9805C17.0439 10.654 17.1807 10.2526 17.24 9.8038C17.4026 8.57333 17.5782 7.34469 17.7577 6.04984C18.1414 6.59583 18.4949 7.0988 18.8484 7.60177C18.8484 11.0322 18.8484 14.4626 18.8484 17.893C18.8375 17.9213 18.8217 17.9485 18.8163 17.9778C18.6815 18.7088 18.2814 19.2273 17.6256 19.5304C17.4565 19.6085 17.2699 19.6462 17.0914 19.7025C14.2363 19.7025 11.3812 19.7025 8.52613 19.7025Z" fill="white"/>
<path d="M16.5057 0.401665C16.5399 0.424373 16.573 0.449061 16.6084 0.469477C16.9262 0.652758 17.0149 1.05896 16.7658 1.33182C16.3829 1.75114 15.976 2.14708 15.5909 2.54109C15.3358 2.27838 15.0834 2.01849 14.8291 1.75656C15.2183 1.35182 15.6144 0.936821 16.0152 0.526821C16.0686 0.472186 16.1463 0.442758 16.2128 0.401665C16.3105 0.401665 16.4081 0.401665 16.5057 0.401665Z" fill="white"/>
<path d="M5.20794 9.79182C4.90805 9.78365 4.67402 9.52875 4.67979 9.21656C4.68542 8.91166 4.94047 8.65713 5.23409 8.66338C5.52816 8.66963 5.7783 8.93317 5.77582 9.23427C5.77323 9.54828 5.5166 9.80021 5.20794 9.79182Z" fill="white"/>
<path d="M11.4239 9.79193C11.1228 9.78573 10.8844 9.52776 10.8918 9.21599C10.899 8.90708 11.1554 8.65364 11.4508 8.66333C11.7501 8.67318 11.9925 8.93687 11.9841 9.24364C11.9757 9.5551 11.7274 9.79823 11.4239 9.79193Z" fill="white"/>
</svg>
