<svg width="20" height="20" viewBox="0 0 20 20" fill="none" xmlns="http://www.w3.org/2000/svg">
<path d="M9.94511 19.9987C9.87071 19.9987 9.79636 19.9987 9.72197 19.9987C7.8886 19.9987 7.14735 19.2854 7.09229 17.4685C7.05633 16.2822 5.96155 15.6502 4.91379 16.2113C4.75665 16.2955 4.60508 16.391 4.44442 16.4675C3.74764 16.799 3.02027 16.8233 2.40799 16.3645C1.43556 15.6357 0.854469 14.6049 0.674704 13.4131C0.551999 12.5995 0.96937 11.9503 1.65772 11.4966C1.83125 11.3822 2.02003 11.2901 2.18937 11.1703C3.01925 10.5832 3.01254 9.40842 2.17693 8.82548C2.03109 8.72376 1.87011 8.64399 1.71851 8.55023C0.681136 7.9085 0.35298 6.71725 0.92686 5.64341C1.1438 5.23745 1.378 4.84028 1.61513 4.44557C2.29415 3.31526 3.50685 2.99801 4.65316 3.64503C4.76959 3.71075 4.8834 3.78173 5.00316 3.84071C5.97214 4.31781 7.03841 3.6913 7.09014 2.61429C7.09798 2.45103 7.08998 2.28711 7.09437 2.12362C7.12578 0.949742 8.02609 0.039235 9.19644 0.00888215C9.68703 -0.0038629 10.1784 -0.00166683 10.6691 0.0077449C11.8684 0.0307644 12.7762 0.936212 12.8075 2.13213C12.8125 2.32535 12.7993 2.52013 12.8191 2.71162C12.9217 3.70083 13.919 4.27765 14.8267 3.87169C15.0431 3.77495 15.2425 3.64095 15.4561 3.53746C16.4363 3.06279 17.5715 3.35793 18.1708 4.26808C18.4808 4.73875 18.7656 5.22949 19.0204 5.73216C19.5206 6.71874 19.2025 7.86776 18.2835 8.48356C18.0985 8.60748 17.8959 8.7056 17.7141 8.83356C16.8823 9.41897 16.8875 10.5948 17.7241 11.177C17.9067 11.3041 18.1093 11.402 18.2936 11.5268C19.2115 12.1479 19.5207 13.2946 19.0158 14.2814C18.7658 14.7701 18.4885 15.2474 18.1896 15.7078C17.5653 16.6691 16.379 16.9611 15.3638 16.4251C15.18 16.3281 15.006 16.2099 14.8165 16.1264C13.8925 15.7189 12.8794 16.3373 12.8136 17.3459C12.8011 17.5385 12.8131 17.7326 12.8056 17.9256C12.7616 19.0517 11.8714 19.9489 10.7483 19.9947C10.481 20.0056 10.2129 19.9963 9.94515 19.9963C9.94511 19.9971 9.94511 19.9979 9.94511 19.9987ZM13.5203 10.0362C13.5457 8.11345 11.9694 6.47078 10.0639 6.43443C8.0315 6.39565 6.40092 7.96999 6.38198 9.98936C6.36402 11.9088 7.94692 13.5385 9.85966 13.5698C11.866 13.6026 13.494 12.0311 13.5203 10.0362Z" fill="white"/>
<path d="M11.1238 9.91336C11.1151 10.5684 10.5806 11.0844 9.92176 11.0737C9.29368 11.0634 8.77391 10.5283 8.77984 9.89799C8.78603 9.23489 9.32148 8.71795 9.98885 8.7307C10.6145 8.74262 11.1321 9.28199 11.1238 9.91336Z" fill="white"/>
</svg>
