<svg width="20" height="20" viewBox="0 0 20 20" fill="none" xmlns="http://www.w3.org/2000/svg">
<path d="M19.9632 9.30825C19.7782 8.13736 18.7621 7.20558 17.5823 7.19058C15.7541 7.16665 13.9248 7.17933 12.0966 7.17933C10.9571 7.17933 9.8189 7.16415 8.68086 7.19058C7.40301 7.2195 6.30622 8.31486 6.29247 9.59415C6.26979 11.6049 6.28247 13.6156 6.29247 15.6263C6.29372 15.8616 6.34783 16.1072 6.42586 16.33C6.79604 17.3927 7.74783 18.0399 8.91997 18.0411C10.9634 18.0436 13.0069 18.0436 15.0503 18.0386C15.1901 18.0386 15.2909 18.0738 15.3916 18.1759C15.8789 18.6745 16.3698 19.1668 16.8684 19.654C16.9993 19.7824 17.158 19.8856 17.3041 20.0002H17.5773C17.9248 19.8706 18.0544 19.6124 18.0432 19.2536C18.0332 18.8772 18.0444 18.4995 18.0394 18.1231C18.0382 18.0199 18.0596 17.9618 18.1703 17.9254C19.2041 17.5829 19.8096 16.8741 19.9721 15.7938C19.9771 15.7624 19.9898 15.7334 19.9998 15.7031V9.41522C19.9871 9.38004 19.9682 9.34468 19.9632 9.30825ZM15.9014 11.4172C14.8916 12.4358 13.8769 13.4504 12.8596 14.4627C12.5435 14.7763 12.1759 14.7686 11.8562 14.454C11.3626 13.9679 10.8741 13.4783 10.3882 12.9859C10.086 12.68 10.0746 12.2859 10.3503 12.0152C10.6198 11.7495 11.0189 11.7697 11.3223 12.0681C11.345 12.0908 11.3689 12.1134 11.3916 12.1374C11.4344 12.165 11.4759 12.1991 11.5162 12.2381C11.7994 12.5175 12.0791 12.8009 12.3762 13.0993C12.6368 12.8361 12.8823 12.5868 13.1303 12.3375C13.7435 11.7243 14.3541 11.1088 14.9698 10.4993C15.2669 10.2059 15.6535 10.1959 15.9253 10.4629C16.1935 10.7247 16.191 11.1263 15.9014 11.4172Z" fill="white"/>
<path d="M13.7079 6.00676C13.6161 6.00676 13.5393 6.00659 13.4627 6.00676C11.8421 6.0098 10.2213 5.99319 8.60126 6.02123C6.92929 6.05016 5.3784 7.46676 5.16037 9.12391C5.12572 9.3873 5.11715 9.6548 5.10983 9.92087C5.10144 10.2255 5.10786 10.5305 5.10786 10.8675C4.72733 10.7657 4.56679 11.0534 4.36126 11.2562C3.91662 11.6952 3.47376 12.1359 3.03626 12.5821C2.83626 12.7862 2.61304 12.8887 2.33519 12.7787C2.04733 12.6648 1.95751 12.4244 1.9584 12.135C1.95947 11.7444 1.95358 11.3539 1.96162 10.9635C1.96412 10.8409 1.93251 10.7794 1.8084 10.7428C0.723937 10.423 -0.00284875 9.41962 8.39382e-06 8.24248C0.00465125 6.36159 -0.00231304 4.48069 0.00232982 2.5998C0.00607982 1.11891 1.11608 0.00569231 2.59554 0.00337088C5.43965 -0.00127198 8.28394 -0.000914837 11.128 0.00319231C12.5879 0.00515659 13.6914 1.07998 13.7163 2.54033C13.7352 3.65301 13.7205 4.76605 13.7204 5.87909C13.7204 5.91105 13.7143 5.94301 13.7079 6.00676Z" fill="white"/>
</svg>
