<svg width="20" height="20" viewBox="0 0 20 20" fill="none" xmlns="http://www.w3.org/2000/svg">
<path d="M7.07157 19.9999V4.68906H6.85765C6.35051 4.68906 5.84286 4.68906 5.3352 4.68906C5.05502 4.68906 4.8552 4.55054 4.76128 4.30317C4.7171 4.18912 4.71064 4.06396 4.74284 3.94599C4.77504 3.82802 4.84421 3.72343 4.94024 3.64751C6.30129 2.47715 7.66444 1.30906 9.02967 0.143213C9.10221 0.0899282 9.17859 0.0420604 9.25819 0H9.57124C9.91507 0.274969 10.2657 0.542127 10.6012 0.826991C11.6812 1.74616 12.7544 2.67262 13.8329 3.59335C14.0316 3.7626 14.1459 3.96258 14.0896 4.22505C14.0713 4.32862 14.0236 4.42476 13.9521 4.50197C13.8806 4.57918 13.7883 4.63419 13.6862 4.66042C13.6044 4.67975 13.5204 4.68815 13.4363 4.68542C12.8848 4.68542 12.3328 4.68542 11.7579 4.68542V5.55147C11.7579 5.84414 11.7511 6.13734 11.7605 6.43001C11.7652 6.56281 11.7224 6.63155 11.604 6.69978C9.7956 7.73143 8.6728 9.26668 8.33262 11.3232C7.88705 14.0167 9.19559 16.6523 11.5899 17.973C11.726 18.048 11.7667 18.1292 11.762 18.2751C11.7516 18.5932 11.7433 18.9135 11.762 19.2312C11.7845 19.5895 11.6655 19.8499 11.3295 19.9967L7.07157 19.9999Z" fill="white"/>
<path d="M3.55566 20.0001C3.55566 16.3162 3.55566 12.6322 3.55566 8.94823C3.55566 8.45766 3.76436 8.24466 4.25063 8.24414H5.89829V20.0001H3.55566Z" fill="white"/>
<path d="M0.00208902 13.3601C0.146612 13.0367 0.393393 12.9133 0.747135 12.9263C1.27149 12.9456 1.79741 12.931 2.34524 12.931V20H0.429395C0.237244 19.9158 0.083936 19.7624 0 19.5704L0.00208902 13.3601Z" fill="white"/>
<path d="M0.00208902 19.5703C0.085521 19.7619 0.23803 19.9153 0.429395 20H0L0.00208902 19.5703Z" fill="white"/>
<path d="M9.41455 12.3513C9.41455 9.43499 11.7671 7.07432 14.6779 7.07275C17.6101 7.07275 19.9997 9.43812 19.9997 12.3472C19.9997 15.2463 17.6138 17.6153 14.6941 17.6164C14.001 17.6171 13.3145 17.4815 12.6739 17.2172C12.0333 16.953 11.4512 16.5652 10.9609 16.0762C10.4705 15.5872 10.0816 15.0066 9.81625 14.3674C9.55092 13.7283 9.41441 13.0432 9.41455 12.3513ZM14.0998 9.51415C14.068 9.53081 14.0513 9.54071 14.0336 9.548C13.2249 9.89744 12.8111 10.6635 12.9671 11.5217C13.1095 12.306 13.8129 12.8929 14.6612 12.9278C14.9372 12.9393 15.1308 13.0549 15.2351 13.3148C15.2774 13.4282 15.2835 13.5519 15.2525 13.6689C15.2215 13.7859 15.155 13.8904 15.0621 13.9682C14.9692 14.0459 14.8544 14.093 14.7336 14.103C14.6128 14.113 14.4918 14.0855 14.3873 14.0241C14.2124 13.9139 14.0505 13.7845 13.9047 13.6382C13.6662 13.4158 13.3245 13.3934 13.0928 13.6002C13.0355 13.6488 12.9885 13.7084 12.9545 13.7754C12.9205 13.8425 12.9003 13.9156 12.895 13.9905C12.8897 14.0655 12.8995 14.1407 12.9237 14.2118C12.9479 14.2829 12.9861 14.3485 13.036 14.4048C13.2025 14.5865 13.3858 14.7523 13.5833 14.9C13.7424 15.0219 13.997 15.0739 14.0795 15.2271C14.1666 15.3885 14.0956 15.6333 14.1014 15.8411C14.1113 16.1816 14.3753 16.4478 14.6915 16.4441C15.0077 16.4405 15.2581 16.1837 15.2717 15.8504C15.2816 15.6815 15.2816 15.5121 15.2717 15.3432C15.2617 15.2114 15.3124 15.1562 15.4282 15.101C16.1247 14.7735 16.5395 14.0136 16.4242 13.3007C16.275 12.3774 15.6311 11.8102 14.6716 11.7571C14.5567 11.7567 14.4446 11.7212 14.3504 11.6555C14.2561 11.5899 14.1842 11.497 14.1442 11.3895C14.0994 11.2907 14.0849 11.181 14.1024 11.0741C14.12 10.9672 14.1688 10.8678 14.2428 10.7885C14.4071 10.5989 14.6273 10.5281 14.86 10.6156C15.0269 10.6846 15.1824 10.7784 15.3212 10.8937C15.6009 11.1119 15.9411 11.1046 16.1618 10.8567C16.213 10.7996 16.2522 10.7329 16.2771 10.6605C16.3021 10.588 16.3122 10.5113 16.3069 10.4349C16.3016 10.3584 16.281 10.2838 16.2463 10.2155C16.2116 10.1472 16.1635 10.0865 16.1049 10.037C15.8868 9.85786 15.627 9.73079 15.3917 9.57143C15.334 9.53348 15.2934 9.47466 15.2784 9.40739C15.2638 9.22668 15.2784 9.04285 15.2727 8.8611C15.2638 8.50541 15.003 8.23617 14.6774 8.24294C14.3518 8.24971 14.1082 8.51322 14.1035 8.86005C14.0988 9.07513 14.0988 9.29022 14.0988 9.51415H14.0998Z" fill="white"/>
</svg>
