<svg width="20" height="20" viewBox="0 0 20 20" fill="none" xmlns="http://www.w3.org/2000/svg">
<path d="M7.32969 14.8861C8.30666 15.4034 9.32523 15.6543 10.4195 15.6357C12.1133 15.6068 14.1154 14.8032 15.2995 13.687C15.625 13.3802 15.9443 13.0645 16.2961 12.7856C16.894 12.3113 17.5886 12.2282 18.2974 12.5134C19.0463 12.8148 19.4368 13.3879 19.4633 14.1461C19.4793 14.6045 19.3149 15.0272 18.9695 15.365C18.0792 16.2364 17.1818 17.1013 16.0608 17.7273C14.3781 18.6668 11.9799 19.3113 10.0161 19.25C8.08594 19.1898 6.33058 18.6456 4.73898 17.6311C4.67094 17.5877 4.59951 17.5493 4.52148 17.5038C3.74255 18.2314 2.97201 18.9541 2.19773 19.6734C1.80255 20.0406 1.36344 20.0997 0.947191 19.8447C0.639691 19.6564 0.530405 19.3754 0.530763 19.0439C0.532191 17.9464 0.531298 16.8489 0.531298 15.7514C0.531298 14.6186 0.530227 13.4857 0.531655 12.3527C0.53237 11.7306 0.906477 11.3818 1.57755 11.3814C3.9538 11.38 6.33005 11.3798 8.7063 11.3814C9.39416 11.382 9.83344 11.8084 9.75005 12.3848C9.71558 12.6223 9.56933 12.7986 9.39451 12.9613C8.71255 13.5959 8.03148 14.2316 7.32969 14.8861Z" fill="white"/>
<path d="M12.664 5.11148C11.6876 4.59434 10.6696 4.34362 9.57582 4.36237C7.88297 4.3913 5.8819 5.19451 4.69832 6.31005C4.37297 6.61666 4.05386 6.93219 3.70225 7.21112C3.10475 7.68505 2.41029 7.76826 1.70207 7.48309C0.953503 7.18184 0.563325 6.60898 0.536718 5.8513C0.520646 5.39309 0.68511 4.97076 1.03011 4.63309C1.92011 3.76201 2.81672 2.89773 3.93725 2.27201C5.6194 1.33291 8.01636 0.6888 9.97904 0.75005C11.9081 0.810229 13.6626 1.35434 15.2535 2.36809C15.3215 2.41148 15.393 2.44987 15.4708 2.49541C16.2492 1.76826 17.0196 1.04576 17.7935 0.326836C18.1885 -0.0401282 18.6273 -0.0990568 19.0435 0.155586C19.3508 0.3438 19.4601 0.624693 19.4596 0.955943C19.4581 2.05291 19.459 3.14987 19.459 4.24684C19.459 5.37916 19.4601 6.51148 19.4587 7.6438C19.458 8.26559 19.0842 8.61416 18.4133 8.61452C16.0383 8.61594 13.6633 8.61612 11.2883 8.61452C10.6008 8.61398 10.1617 8.18791 10.2451 7.61166C10.2796 7.37434 10.4258 7.19809 10.6005 7.03559C11.2821 6.40094 11.9628 5.76541 12.664 5.11148Z" fill="white"/>
</svg>
