<svg width="18" height="22" viewBox="0 0 18 22" fill="none" xmlns="http://www.w3.org/2000/svg">
<path d="M5.54187e-05 8.6003C5.54187e-05 7.28082 5.54187e-05 5.96133 5.54187e-05 4.64185C5.54187e-05 4.1016 0.297104 3.81849 0.855949 3.80266C3.0861 3.73932 5.13542 3.156 6.92751 1.8266C7.45298 1.4375 7.90983 0.968203 8.28022 0.437023C8.685 -0.143127 9.30456 -0.145027 9.70802 0.427524C10.622 1.72273 11.9153 2.52455 13.3862 3.09267C14.5851 3.5488 15.8596 3.78959 17.1473 3.80329C17.6853 3.81279 17.9902 4.10983 17.9902 4.63235C17.9902 7.04226 17.9666 9.45216 17.998 11.8621C18.0398 13.773 17.4285 15.6437 16.2594 17.1822C14.5287 19.4997 12.2405 21.0824 9.41946 21.9368C9.11558 22.0285 8.78901 22.0202 8.49045 21.9134C5.16089 20.8265 2.54946 18.8847 0.903606 15.8294C0.293287 14.6892 -0.0168859 13.4203 0.000708912 12.1357C0.0052789 10.9551 5.54187e-05 9.7777 5.54187e-05 8.6003ZM3.51764 11.0007C3.51242 13.9141 5.98218 16.3209 8.97944 16.3209C10.4331 16.32 11.8272 15.7602 12.8563 14.7641C13.8853 13.7679 14.4653 12.4167 14.4693 11.0064C14.4752 8.10945 12.01 5.70778 9.02057 5.69828C5.99915 5.68878 3.52287 8.07525 3.51764 11.0007Z" fill="white"/>
<path d="M6.86546 11.9977L8.30697 10.6006C9.12434 9.8076 9.9391 9.01147 10.7604 8.22358C11.2128 7.7891 11.9146 7.94617 12.0896 8.51683C12.1843 8.82463 12.0896 9.08684 11.8552 9.31358C11.333 9.82026 10.8107 10.3269 10.2838 10.8336C9.28756 11.7997 8.29151 12.7654 7.29569 13.7306C6.78124 14.2284 6.20868 14.1366 5.8816 13.5051C5.6518 13.0618 5.4246 12.6184 5.19545 12.1751C4.9663 11.7317 5.1047 11.282 5.52188 11.0838C5.93905 10.8856 6.37059 11.054 6.59975 11.486C6.68331 11.6475 6.76688 11.809 6.86546 11.9977Z" fill="white"/>
</svg>
