<svg width="12" height="10" viewBox="0 0 12 10" fill="none" xmlns="http://www.w3.org/2000/svg">
<path d="M11.3874 3.91364C10.6214 2.63089 8.90229 0.479004 6.00021 0.479004C3.09813 0.479004 1.37898 2.63089 0.613062 3.91364C0.212312 4.5833 0.212312 5.41579 0.613062 6.08604C1.37898 7.36879 3.09813 9.52067 6.00021 9.52067C8.90229 9.52067 10.6214 7.36879 11.3874 6.08604C11.7881 5.41579 11.7881 4.58389 11.3874 3.91364ZM10.6365 5.63686C9.96571 6.76036 8.47063 8.64567 6.00021 8.64567C3.52979 8.64567 2.03471 6.76094 1.36388 5.63686C1.12938 5.24369 1.12938 4.75541 1.36388 4.36224C2.03471 3.23874 3.52979 1.35343 6.00021 1.35343C8.47063 1.35343 9.96571 3.23816 10.6365 4.36224C10.8716 4.75599 10.8716 5.24369 10.6365 5.63686ZM6.00021 2.52067C4.63288 2.52067 3.52104 3.63309 3.52104 4.99984C3.52104 6.36659 4.63288 7.479 6.00021 7.479C7.36754 7.479 8.47938 6.36659 8.47938 4.99984C8.47938 3.63309 7.36754 2.52067 6.00021 2.52067ZM6.00021 6.604C5.11529 6.604 4.39604 5.88475 4.39604 4.99984C4.39604 4.11492 5.11529 3.39567 6.00021 3.39567C6.88513 3.39567 7.60438 4.11492 7.60438 4.99984C7.60438 5.88475 6.88513 6.604 6.00021 6.604Z" fill="#585865"/>
</svg>
