<svg width="14" height="14" viewBox="0 0 14 14" fill="none" xmlns="http://www.w3.org/2000/svg">
<path d="M12.2627 10.3822C12.2353 10.297 12.2137 10.1704 12.2668 10.0549C12.5421 9.46458 12.6874 8.81183 12.6874 8.16667C12.6874 6.38225 11.6053 4.75591 9.98247 4.0425C9.28772 2.43833 7.68993 1.3125 5.83377 1.3125C3.34177 1.3125 1.3135 3.34018 1.3135 5.83276C1.3135 6.48201 1.45758 7.13533 1.73291 7.72625C1.77433 7.81433 1.77605 7.92927 1.74046 8.04302L1.35907 9.17817C1.25174 9.50017 1.33506 9.84957 1.57597 10.0905C1.74747 10.262 1.97385 10.353 2.20602 10.353C2.30052 10.353 2.39623 10.3378 2.48957 10.3069L3.61707 9.92774C3.73724 9.88924 3.85159 9.89159 3.94434 9.93475C3.97351 9.94817 4.00504 9.95751 4.0342 9.97093C4.74704 11.5996 6.37802 12.6869 8.1671 12.6869C8.81226 12.6869 9.46556 12.5417 10.0524 12.2681C10.1708 12.2138 10.2974 12.2354 10.3791 12.2617L11.5131 12.6414C11.8357 12.747 12.1851 12.6636 12.4249 12.4232C12.6646 12.1829 12.748 11.8341 12.6412 11.5092L12.2627 10.3822ZM3.78398 9.0265C3.6399 9.0265 3.49164 9.04982 3.34406 9.09707L2.1885 9.45585L2.57174 8.31485C2.67791 7.98177 2.65981 7.63876 2.52389 7.35351C2.30456 6.88101 2.1885 6.35483 2.1885 5.83216C2.1885 3.82199 3.82418 2.18693 5.83377 2.18693C7.84335 2.18693 9.47903 3.82199 9.47903 5.83216C9.47903 7.84233 7.84335 9.47742 5.83377 9.47742C5.3111 9.47742 4.7849 9.36133 4.3159 9.14374C4.15257 9.06616 3.9724 9.0265 3.78398 9.0265ZM11.4327 10.6563L11.7879 11.8113L10.6527 11.431C10.3225 11.3237 9.97953 11.3388 9.68553 11.4736C9.2107 11.6947 8.68511 11.8119 8.16653 11.8119C6.96953 11.8119 5.89382 11.2385 5.22124 10.3052C5.42424 10.3332 5.62901 10.3524 5.83377 10.3524C8.32576 10.3524 10.354 8.32474 10.354 5.83216C10.354 5.62799 10.336 5.42851 10.3092 5.23134C11.2303 5.90684 11.8124 6.9936 11.8124 8.1661C11.8124 8.68468 11.6957 9.20966 11.4728 9.68741C11.3387 9.98025 11.3242 10.3233 11.4327 10.6563ZM5.24986 5.83333C5.24986 5.51133 5.50765 5.25 5.82907 5.25H5.8349C6.15632 5.25 6.4171 5.51133 6.4171 5.83333C6.4171 6.15533 6.1569 6.41667 5.8349 6.41667C5.51349 6.41667 5.24986 6.15533 5.24986 5.83333ZM6.99701 5.83333C6.99701 5.51133 7.25536 5.25 7.57736 5.25H7.5832C7.90578 5.25 8.16653 5.51133 8.16653 5.83333C8.16653 6.15533 7.90578 6.41667 7.5832 6.41667C7.2612 6.41667 6.99701 6.15533 6.99701 5.83333ZM4.0832 6.41667C3.7612 6.41667 3.49701 6.15533 3.49701 5.83333C3.49701 5.51133 3.75536 5.25 4.07736 5.25H4.0832C4.40578 5.25 4.66653 5.51133 4.66653 5.83333C4.66653 6.15533 4.40578 6.41667 4.0832 6.41667Z" fill="#585865"/>
</svg>
