<svg width="12" height="12" viewBox="0 0 12 12" fill="none" xmlns="http://www.w3.org/2000/svg">
<path d="M11.6875 3.08398V6.00065C11.6875 6.24215 11.4915 6.43815 11.25 6.43815C11.0085 6.43815 10.8125 6.24215 10.8125 6.00065V3.08398C10.8125 2.16407 10.4199 1.77148 9.5 1.77148H2.5C1.58008 1.77148 1.1875 2.16407 1.1875 3.08398V7.75065C1.1875 8.67057 1.58008 9.06315 2.5 9.06315H7.16667C7.40817 9.06315 7.60417 9.25915 7.60417 9.50065C7.60417 9.74215 7.40817 9.93815 7.16667 9.93815H2.5C1.0895 9.93815 0.3125 9.16115 0.3125 7.75065V3.08398C0.3125 1.67348 1.0895 0.896484 2.5 0.896484H9.5C10.9105 0.896484 11.6875 1.67348 11.6875 3.08398ZM1.91667 5.41732C1.91667 5.73932 2.178 6.00065 2.5 6.00065C2.822 6.00065 3.08333 5.73932 3.08333 5.41732C3.08333 5.09532 2.822 4.83398 2.5 4.83398C2.178 4.83398 1.91667 5.09532 1.91667 5.41732ZM6 3.22982C7.20633 3.22982 8.1875 4.21098 8.1875 5.41732C8.1875 6.62365 7.20633 7.60482 6 7.60482C4.79367 7.60482 3.8125 6.62365 3.8125 5.41732C3.8125 4.21098 4.79367 3.22982 6 3.22982ZM6 4.10482C5.27608 4.10482 4.6875 4.6934 4.6875 5.41732C4.6875 6.14123 5.27608 6.72982 6 6.72982C6.72392 6.72982 7.3125 6.14123 7.3125 5.41732C7.3125 4.6934 6.72392 4.10482 6 4.10482ZM10.9408 9.19147L10.5208 9.61149V7.75065C10.5208 7.50915 10.3248 7.31315 10.0833 7.31315C9.84183 7.31315 9.64583 7.50915 9.64583 7.75065V9.61092L9.22585 9.1909C9.05493 9.01998 8.77783 9.01998 8.60691 9.1909C8.436 9.36181 8.436 9.63892 8.60691 9.80984L9.77358 10.9765C9.81383 11.0168 9.86226 11.0488 9.91592 11.071C9.96959 11.0932 10.0262 11.1048 10.0828 11.1048C10.1393 11.1048 10.1965 11.0932 10.2496 11.071C10.3032 11.0488 10.3517 11.0168 10.3919 10.9765L11.5586 9.80984C11.7295 9.63892 11.7295 9.36181 11.5586 9.1909C11.3882 9.02057 11.1117 9.02055 10.9408 9.19147Z" fill="#585865"/>
</svg>
