<svg width="12" height="11" viewBox="0 0 12 11" fill="none" xmlns="http://www.w3.org/2000/svg">
<path d="M9.92757 2.23845C9.87682 1.10562 9.21592 0.478516 8.04167 0.478516H2.20833C0.985667 0.478516 0.3125 1.15168 0.3125 2.37435V6.45768C0.3125 7.63193 0.9396 8.29283 2.07243 8.34358C2.12318 9.47642 2.78408 10.1035 3.95833 10.1035H9.79167C11.0143 10.1035 11.6875 9.43035 11.6875 8.20768V4.12435C11.6875 2.9501 11.0604 2.2892 9.92757 2.23845ZM1.1875 6.45768V2.37435C1.1875 1.63993 1.47392 1.35352 2.20833 1.35352H8.04167C8.77608 1.35352 9.0625 1.63993 9.0625 2.37435V6.45768C9.0625 7.1921 8.77608 7.47852 8.04167 7.47852H2.20833C1.47392 7.47852 1.1875 7.1921 1.1875 6.45768ZM10.8125 8.20768C10.8125 8.9421 10.5267 9.22852 9.79167 9.22852H3.95833C3.27642 9.22852 2.98417 8.97652 2.94508 8.35352H8.04167C9.26433 8.35352 9.9375 7.68035 9.9375 6.45768V3.1111C10.5611 3.15018 10.8125 3.44185 10.8125 4.12435V8.20768ZM2.20833 4.99935C1.88633 4.99935 1.625 4.73802 1.625 4.41602C1.625 4.09402 1.88633 3.83268 2.20833 3.83268C2.53033 3.83268 2.79167 4.09402 2.79167 4.41602C2.79167 4.73802 2.53033 4.99935 2.20833 4.99935ZM7.45833 4.41602C7.45833 4.09402 7.71967 3.83268 8.04167 3.83268C8.36367 3.83268 8.625 4.09402 8.625 4.41602C8.625 4.73802 8.36367 4.99935 8.04167 4.99935C7.71967 4.99935 7.45833 4.73802 7.45833 4.41602ZM5.125 6.31185C6.17033 6.31185 7.02083 5.46135 7.02083 4.41602C7.02083 3.37068 6.17033 2.52018 5.125 2.52018C4.07967 2.52018 3.22917 3.37068 3.22917 4.41602C3.22917 5.46135 4.07967 6.31185 5.125 6.31185ZM5.125 3.39518C5.68792 3.39518 6.14583 3.8531 6.14583 4.41602C6.14583 4.97893 5.68792 5.43685 5.125 5.43685C4.56208 5.43685 4.10417 4.97893 4.10417 4.41602C4.10417 3.8531 4.56208 3.39518 5.125 3.39518Z" fill="#585865"/>
</svg>
