<svg width="12" height="12" viewBox="0 0 12 12" fill="none" xmlns="http://www.w3.org/2000/svg">
<path d="M9.28125 0.3125H2.71875C1.16708 0.3125 0.3125 1.16708 0.3125 2.71875V9.28125C0.3125 10.8329 1.16708 11.6875 2.71875 11.6875H9.28125C10.8329 11.6875 11.6875 10.8329 11.6875 9.28125V2.71875C11.6875 1.16708 10.8329 0.3125 9.28125 0.3125ZM10.8125 9.28125C10.8125 10.3546 10.3546 10.8125 9.28125 10.8125H2.71875C1.64542 10.8125 1.1875 10.3546 1.1875 9.28125V2.71875C1.1875 1.64542 1.64542 1.1875 2.71875 1.1875H9.28125C10.3546 1.1875 10.8125 1.64542 10.8125 2.71875V9.28125ZM8.77083 4.54167C8.77083 4.78317 8.57483 4.97917 8.33333 4.97917H5.41667C5.17517 4.97917 4.97917 4.78317 4.97917 4.54167C4.97917 4.30017 5.17517 4.10417 5.41667 4.10417H8.33333C8.57483 4.10417 8.77083 4.30017 8.77083 4.54167ZM8.77083 7.45833C8.77083 7.69983 8.57483 7.89583 8.33333 7.89583H5.41667C5.17517 7.89583 4.97917 7.69983 4.97917 7.45833C4.97917 7.21683 5.17517 7.02083 5.41667 7.02083H8.33333C8.57483 7.02083 8.77083 7.21683 8.77083 7.45833ZM4.10417 4.54224C4.10417 4.78374 3.90817 4.97974 3.66667 4.97974C3.42517 4.97974 3.22917 4.78374 3.22917 4.54224C3.22917 4.30074 3.42517 4.10474 3.66667 4.10474C3.90817 4.10474 4.10417 4.30074 4.10417 4.54224ZM4.10417 7.45833C4.10417 7.69983 3.90817 7.89583 3.66667 7.89583C3.42517 7.89583 3.22917 7.69983 3.22917 7.45833C3.22917 7.21683 3.42517 7.02083 3.66667 7.02083C3.90817 7.02083 4.10417 7.21683 4.10417 7.45833Z" fill="#585865"/>
</svg>
