<svg width="14" height="14" viewBox="0 0 14 14" fill="none" xmlns="http://www.w3.org/2000/svg">
<path d="M10.5 3.64583H10.3542V2.91667C10.3542 2.80058 10.3081 2.68915 10.2259 2.60748L9.05918 1.44082C8.97693 1.35857 8.86608 1.3125 8.75 1.3125H4.66667C4.10375 1.3125 3.64583 1.77042 3.64583 2.33333V3.64583H3.5C2.0895 3.64583 1.3125 4.42283 1.3125 5.83333V9.04167C1.3125 9.76558 1.90167 10.3542 2.625 10.3542H3.64583V11.6667C3.64583 12.2296 4.10375 12.6875 4.66667 12.6875H9.33333C9.89625 12.6875 10.3542 12.2296 10.3542 11.6667V10.3542H11.375C12.0983 10.3542 12.6875 9.76558 12.6875 9.04167V5.83333C12.6875 4.42283 11.9105 3.64583 10.5 3.64583ZM4.52083 2.33333C4.52083 2.25283 4.58617 2.1875 4.66667 2.1875H8.56856L9.47917 3.0981V3.64583H4.52083V2.33333ZM9.47917 11.6667C9.47917 11.7472 9.41383 11.8125 9.33333 11.8125H4.66667C4.58617 11.8125 4.52083 11.7472 4.52083 11.6667V9.1875H9.47917V11.6667ZM11.8125 9.04167C11.8125 9.28317 11.6159 9.47917 11.375 9.47917H10.3542V8.75C10.3542 8.5085 10.1582 8.3125 9.91667 8.3125H4.08333C3.84183 8.3125 3.64583 8.5085 3.64583 8.75V9.47917H2.625C2.38408 9.47917 2.1875 9.28317 2.1875 9.04167V5.83333C2.1875 4.91342 2.58008 4.52083 3.5 4.52083H10.5C11.4199 4.52083 11.8125 4.91342 11.8125 5.83333V9.04167ZM10.5 6.41667C10.5 6.73867 10.2387 7 9.91667 7C9.59467 7 9.33333 6.73867 9.33333 6.41667C9.33333 6.09467 9.59467 5.83333 9.91667 5.83333C10.2387 5.83333 10.5 6.09467 10.5 6.41667Z" fill="#585865"/>
</svg>
