<svg width="14" height="14" viewBox="0 0 14 14" fill="none" xmlns="http://www.w3.org/2000/svg">
<path d="M2.1875 7.29146C2.1875 7.73129 2.28961 8.15531 2.49028 8.55197C2.59994 8.76781 2.51298 9.03092 2.29773 9.14001C2.23473 9.17209 2.16647 9.18729 2.10056 9.18729C1.94072 9.18729 1.78677 9.09985 1.70977 8.9476C1.45018 8.43485 1.3125 7.86196 1.3125 7.29146C1.3125 5.14479 2.81167 3.64562 4.95833 3.64562H8.86023L8.44025 3.22564C8.26933 3.05472 8.26933 2.77762 8.44025 2.6067C8.61116 2.43579 8.88827 2.43579 9.05918 2.6067L10.2259 3.77337C10.2661 3.81362 10.2982 3.86198 10.3203 3.91564C10.3647 4.02239 10.3647 4.14314 10.3203 4.24989C10.2982 4.30356 10.2661 4.35206 10.2259 4.39231L9.05918 5.55897C8.97402 5.64414 8.862 5.68729 8.75 5.68729C8.638 5.68729 8.52598 5.64472 8.44082 5.55897C8.2699 5.38806 8.2699 5.11095 8.44082 4.94004L8.8608 4.52005H4.9589C3.0444 4.52064 2.1875 5.91246 2.1875 7.29146ZM12.2902 5.63531C12.1811 5.42006 11.9181 5.33265 11.7023 5.4429C11.487 5.55199 11.4001 5.8151 11.5097 6.03094C11.7104 6.4276 11.8125 6.85162 11.8125 7.29146C11.8125 8.67046 10.9556 10.0623 9.04167 10.0623H5.13977L5.55975 9.64231C5.73067 9.47139 5.73067 9.19429 5.55975 9.02337C5.38884 8.85245 5.11173 8.85245 4.94082 9.02337L3.77415 10.19C3.60323 10.361 3.60323 10.6381 3.77415 10.809L4.94082 11.9756C5.02598 12.0608 5.138 12.104 5.25 12.104C5.362 12.104 5.47402 12.0614 5.55918 11.9756C5.7301 11.8047 5.7301 11.5276 5.55918 11.3567L5.1392 10.9367H9.0411C11.1878 10.9367 12.6869 9.43755 12.6869 7.29089C12.6875 6.72097 12.5504 6.14806 12.2902 5.63531Z" fill="#585865"/>
</svg>
