<svg width="14" height="14" viewBox="0 0 14 14" fill="none" xmlns="http://www.w3.org/2000/svg">
<g id="sack-dollar">
<path id="sack-dollar_2" d="M9.52051 3.74795L10.0542 2.85835C10.2456 2.53868 10.2502 2.15423 10.0665 1.8299C9.88275 1.50556 9.55083 1.3125 9.17866 1.3125H4.82118C4.44843 1.3125 4.11651 1.50615 3.93334 1.8299C3.75018 2.15423 3.75426 2.53868 3.94618 2.85835L4.47933 3.74795C2.76491 5.32995 1.89575 7.01108 1.89575 8.75C1.89575 9.67342 2.26384 12.6875 6.99992 12.6875C11.736 12.6875 12.1041 9.67342 12.1041 8.75C12.1041 7.01108 11.2355 5.32995 9.52051 3.74795ZM4.69459 2.26099C4.71034 2.23357 4.74768 2.1875 4.82118 2.1875H9.17866C9.25216 2.1875 9.2895 2.23415 9.30525 2.26099C9.321 2.2884 9.34142 2.34503 9.30351 2.40803L8.712 3.3944H5.28784L4.69633 2.40803C4.65842 2.34503 4.67884 2.28899 4.69459 2.26099ZM6.99992 11.8125C3.18317 11.8125 2.77075 9.67108 2.77075 8.75C2.77075 7.22283 3.59617 5.71664 5.212 4.26997H8.78784C10.4043 5.71664 11.2291 7.22283 11.2291 8.75C11.2291 9.67108 10.8167 11.8125 6.99992 11.8125ZM7.47708 7.83591L6.73917 7.64984C6.64584 7.62534 6.56651 7.57286 6.50584 7.49411C6.44809 7.42003 6.41659 7.32431 6.41659 7.22573C6.41659 6.98481 6.60617 6.78944 6.83951 6.78944H7.16092C7.37617 6.78944 7.55642 6.95628 7.58092 7.17795C7.60717 7.41828 7.82009 7.58976 8.06392 7.56468C8.30426 7.53843 8.47692 7.32142 8.45067 7.08168C8.38767 6.51176 7.97117 6.06489 7.43742 5.94705V5.83333C7.43742 5.59183 7.24142 5.39583 6.99992 5.39583C6.75842 5.39583 6.56242 5.59183 6.56242 5.83333V5.94591C5.97967 6.07483 5.54159 6.59864 5.54159 7.22573C5.54159 7.51798 5.639 7.80381 5.81225 8.02781C5.98783 8.25823 6.23926 8.42451 6.52276 8.49743L7.26066 8.68349C7.45083 8.73249 7.58325 8.90694 7.58325 9.1076C7.58325 9.22427 7.53834 9.33451 7.45609 9.41793C7.37618 9.49959 7.27117 9.54389 7.16033 9.54389H6.83892C6.62367 9.54389 6.44342 9.37705 6.41892 9.15539C6.39208 8.91505 6.17917 8.74241 5.93592 8.76866C5.69558 8.79491 5.52292 9.01191 5.54917 9.25166C5.61217 9.82157 6.02867 10.2684 6.56242 10.3863V10.5C6.56242 10.7415 6.75842 10.9375 6.99992 10.9375C7.24142 10.9375 7.43742 10.7415 7.43742 10.5V10.3874C7.67892 10.3343 7.90118 10.2136 8.07968 10.0322C8.32351 9.78483 8.45825 9.45642 8.45825 9.10817C8.45825 8.50734 8.05575 7.98466 7.47708 7.83591Z" fill="#585865"/>
</g>
</svg>
