<svg width="14" height="14" viewBox="0 0 14 14" fill="none" xmlns="http://www.w3.org/2000/svg">
<path d="M12.0703 9.06608C11.6842 8.84733 11.2263 8.85315 10.8453 9.08182L9.69617 9.77132C9.51592 9.26149 9.02883 8.89518 8.45833 8.89518H5.25C4.87608 8.89518 4.53601 9.02935 4.26301 9.2446C4.07576 9.03226 3.80508 8.89518 3.5 8.89518H2.33333C1.77042 8.89518 1.3125 9.3531 1.3125 9.91602V12.2493C1.3125 12.8123 1.77042 13.2702 2.33333 13.2702H3.5C3.8045 13.2702 4.07576 13.1331 4.26301 12.9208C4.53601 13.136 4.87608 13.2702 5.25 13.2702H8.51491C9.14141 13.2702 9.75625 13.0543 10.2463 12.6629L12.2313 11.0745C12.5212 10.8423 12.6875 10.4959 12.6875 10.1249C12.6875 9.68095 12.4565 9.28483 12.0703 9.06608ZM3.64583 12.2493C3.64583 12.3298 3.5805 12.3952 3.5 12.3952H2.33333C2.25283 12.3952 2.1875 12.3298 2.1875 12.2493V9.91602C2.1875 9.83552 2.25283 9.77018 2.33333 9.77018H3.5C3.5805 9.77018 3.64583 9.83552 3.64583 9.91602V10.4993V11.666V12.2493ZM11.6842 10.3914L9.69909 11.9793C9.36426 12.247 8.94367 12.3946 8.51434 12.3946H5.25C4.84808 12.3946 4.52083 12.0674 4.52083 11.6654V10.4988C4.52083 10.0969 4.84808 9.76961 5.25 9.76961H8.45833C8.69983 9.76961 8.89583 9.96561 8.89583 10.2071C8.89583 10.4486 8.69983 10.6446 8.45833 10.6446H6.41667C6.17517 10.6446 5.97917 10.8406 5.97917 11.0821C5.97917 11.3236 6.17517 11.5196 6.41667 11.5196H8.45833C8.95008 11.5196 9.38 11.2477 9.60458 10.8464L11.2957 9.83199C11.4485 9.73924 11.5868 9.79819 11.6393 9.82736C11.6912 9.85711 11.8125 9.9452 11.8125 10.1249C11.8125 10.2293 11.7658 10.3266 11.6842 10.3914ZM7 8.02018C9.01017 8.02018 10.6458 6.38452 10.6458 4.37435C10.6458 2.36418 9.01017 0.728516 7 0.728516C4.98983 0.728516 3.35417 2.36418 3.35417 4.37435C3.35417 6.38452 4.98983 8.02018 7 8.02018ZM7 1.60352C8.52775 1.60352 9.77083 2.8466 9.77083 4.37435C9.77083 5.9021 8.52775 7.14518 7 7.14518C5.47225 7.14518 4.22917 5.9021 4.22917 4.37435C4.22917 2.8466 5.47225 1.60352 7 1.60352ZM5.93075 4.28335C5.77441 4.07801 5.6875 3.81726 5.6875 3.55126C5.6875 2.99826 6.05616 2.53626 6.55374 2.39684V2.33268C6.55374 2.09118 6.74974 1.89518 6.99124 1.89518C7.23274 1.89518 7.42874 2.09118 7.42874 2.33268V2.391C7.89249 2.51233 8.25067 2.91194 8.3055 3.42002C8.33175 3.66036 8.15792 3.87621 7.91758 3.90246C7.67375 3.92696 7.46083 3.75485 7.43517 3.51452C7.41708 3.34885 7.28932 3.22399 7.13707 3.22399H6.86116C6.69608 3.22399 6.56133 3.37043 6.56133 3.55126C6.56133 3.62709 6.58466 3.70004 6.62725 3.75662C6.671 3.81437 6.72701 3.85285 6.79234 3.86977L7.42525 4.03312C7.94792 4.16962 8.31133 4.64908 8.31133 5.19858C8.31133 5.51533 8.19116 5.81519 7.97241 6.0421C7.81958 6.20019 7.63117 6.30517 7.42758 6.35884V6.41715C7.42758 6.65865 7.23158 6.85465 6.99008 6.85465C6.74858 6.85465 6.55258 6.65865 6.55258 6.41715V6.35421C6.09758 6.22704 5.74759 5.83154 5.69334 5.33045C5.66709 5.09012 5.84091 4.87427 6.08124 4.84802C6.32508 4.82236 6.53742 4.99563 6.56367 5.23596C6.58176 5.40163 6.7095 5.52642 6.86175 5.52642H7.13766C7.24033 5.52642 7.31091 5.46925 7.34416 5.43541C7.40425 5.373 7.4375 5.28904 7.4375 5.19979C7.4375 5.04812 7.34242 4.91686 7.2065 4.88128L6.57359 4.71793C6.31751 4.64909 6.08941 4.49568 5.93075 4.28335Z" fill="#585865"/>
</svg>
