<svg width="12" height="12" viewBox="0 0 12 12" fill="none" xmlns="http://www.w3.org/2000/svg">
<path d="M11.25 2.0625H9.17391C8.64833 2.0625 8.62617 1.996 8.48209 1.56433L8.36425 1.21025C8.18516 0.673584 7.68525 0.3125 7.11942 0.3125H4.88058C4.31475 0.3125 3.81425 0.673001 3.63575 1.21025L3.51792 1.56433C3.37383 1.99658 3.35167 2.0625 2.82608 2.0625H0.75C0.5085 2.0625 0.3125 2.2585 0.3125 2.5C0.3125 2.7415 0.5085 2.9375 0.75 2.9375H1.50716L1.95458 9.64525C2.04092 10.9432 2.83659 11.6875 4.13742 11.6875H7.86317C9.16342 11.6875 9.95909 10.9432 10.046 9.64525L10.4934 2.9375H11.25C11.4915 2.9375 11.6875 2.7415 11.6875 2.5C11.6875 2.2585 11.4915 2.0625 11.25 2.0625ZM4.46583 1.48675C4.52591 1.30767 4.69216 1.1875 4.88058 1.1875H7.11942C7.30784 1.1875 7.47467 1.30767 7.53417 1.48675L7.652 1.84083C7.67767 1.91725 7.70333 1.99133 7.73133 2.0625H4.2675C4.2955 1.99075 4.32175 1.91666 4.34742 1.84083L4.46583 1.48675ZM9.17217 9.58692C9.11675 10.4228 8.70025 10.8125 7.86258 10.8125H4.13683C3.29917 10.8125 2.88325 10.4234 2.82725 9.58692L2.38392 2.9375H2.8255C2.89842 2.9375 2.95908 2.92992 3.02442 2.92525C3.04425 2.92817 3.06233 2.9375 3.08275 2.9375H8.91608C8.93708 2.9375 8.95458 2.92817 8.97442 2.92525C9.03975 2.92992 9.10042 2.9375 9.17333 2.9375H9.61492L9.17217 9.58692ZM7.60417 5.41667V8.33333C7.60417 8.57483 7.40817 8.77083 7.16667 8.77083C6.92517 8.77083 6.72917 8.57483 6.72917 8.33333V5.41667C6.72917 5.17517 6.92517 4.97917 7.16667 4.97917C7.40817 4.97917 7.60417 5.17517 7.60417 5.41667ZM5.27083 5.41667V8.33333C5.27083 8.57483 5.07483 8.77083 4.83333 8.77083C4.59183 8.77083 4.39583 8.57483 4.39583 8.33333V5.41667C4.39583 5.17517 4.59183 4.97917 4.83333 4.97917C5.07483 4.97917 5.27083 5.17517 5.27083 5.41667Z" fill="#585865"/>
</svg>
