<svg width="17" height="18" viewBox="0 0 17 18" fill="none" xmlns="http://www.w3.org/2000/svg">
<path d="M16 15.8768H15.7917V14.8351C15.7917 13.9351 15.2325 13.3768 14.3333 13.3768H14.125V8.79346H14.3333C15.2325 8.79346 15.7917 8.23512 15.7917 7.33512V5.20256C15.7917 4.64672 15.4825 4.14677 14.985 3.89844L9.33832 1.07516C8.81248 0.81349 8.18585 0.81349 7.66168 1.07516L2.01501 3.89844C1.51751 4.14677 1.20833 4.64672 1.20833 5.20256V7.33512C1.20833 8.23512 1.7675 8.79346 2.66667 8.79346H2.875V13.3768H2.66667C1.7675 13.3768 1.20833 13.9351 1.20833 14.8351V15.8768H1C0.655 15.8768 0.375 16.1568 0.375 16.5018C0.375 16.8468 0.655 17.1268 1 17.1268H16C16.345 17.1268 16.625 16.8468 16.625 16.5018C16.625 16.1568 16.345 15.8768 16 15.8768ZM12.875 13.3768H10.7917V8.79346H12.875V13.3768ZM7.45833 13.3768V8.79346H9.54167V13.3768H7.45833ZM2.48671 7.52087C2.48588 7.52087 2.48588 7.52087 2.48671 7.52087C2.48255 7.51421 2.45833 7.46512 2.45833 7.33512V5.20256C2.45833 5.12339 2.50245 5.05183 2.57328 5.01599L8.21995 2.19271C8.39745 2.10438 8.60255 2.10438 8.78005 2.19271L14.4267 5.01599C14.4976 5.05099 14.5417 5.12256 14.5417 5.20256V7.33512C14.5417 7.46512 14.5175 7.51349 14.5192 7.51599C14.5125 7.51933 14.4633 7.54346 14.3333 7.54346H2.66667C2.54083 7.54346 2.49088 7.52087 2.48671 7.52087ZM4.125 8.79346H6.20833V13.3768H4.125V8.79346ZM2.45833 14.8351C2.45833 14.7051 2.48248 14.6568 2.48081 14.6543C2.48748 14.6509 2.53667 14.6268 2.66667 14.6268H14.3333C14.485 14.6268 14.515 14.6494 14.5142 14.6494C14.5175 14.6569 14.5417 14.7051 14.5417 14.8351V15.8768H2.45833V14.8351ZM7.45833 4.83512C7.45833 4.26012 7.925 3.79346 8.5 3.79346C9.075 3.79346 9.54167 4.26012 9.54167 4.83512C9.54167 5.41012 9.075 5.87679 8.5 5.87679C7.925 5.87679 7.45833 5.41012 7.45833 4.83512Z" fill="#2E2E3E"/>
</svg>
