<svg width="16" height="16" viewBox="0 0 16 16" fill="none" xmlns="http://www.w3.org/2000/svg">
<path d="M9.61348 3.65854C9.29612 3.59991 9.00465 3.80244 8.94423 4.11223C8.88381 4.42201 9.08698 4.72447 9.39571 4.7851C10.3252 4.96631 11.0429 5.68581 11.2248 6.6185C11.2766 6.88699 11.513 7.08285 11.7852 7.08285C11.8217 7.08285 11.8582 7.07952 11.8954 7.07286C12.2041 7.0109 12.4073 6.70911 12.3469 6.39866C12.0753 5.00561 11.0031 3.92968 9.61348 3.65854Z" fill="#2DB0F6"/>
<path d="M9.57122 1.33732C9.4225 1.316 9.27311 1.35997 9.15427 1.45457C9.0321 1.5505 8.95575 1.68908 8.93915 1.8443C8.90396 2.15809 9.13037 2.44189 9.44374 2.4772C11.6048 2.71837 13.2846 4.40188 13.5276 6.56972C13.5601 6.86019 13.8038 7.07937 14.0946 7.07937C14.1165 7.07937 14.1378 7.07804 14.1597 7.07538C14.3117 7.05872 14.4472 6.98344 14.5428 6.86352C14.6377 6.74361 14.6809 6.59437 14.6636 6.44181C14.3608 3.737 12.2675 1.63778 9.57122 1.33732Z" fill="#2DB0F6"/>
<path fillRule="evenodd" clipRule="evenodd" d="M7.35515 8.64826C10.0145 11.3069 10.6178 8.23115 12.3111 9.92321C13.9435 11.5552 14.8817 11.8821 12.8135 13.9498C12.5544 14.158 10.9084 16.6628 5.12372 10.8798C-0.661668 5.096 1.84171 3.4483 2.04996 3.1893C4.12323 1.1159 4.44456 2.05959 6.07698 3.69155C7.77023 5.38433 4.69576 5.98961 7.35515 8.64826Z" fill="#2DB0F6"/>
</svg>
