<svg width="30" height="30" viewBox="0 0 30 30" fill="none" xmlns="http://www.w3.org/2000/svg">
<circle cx="15" cy="15" r="14.5" fill="white" stroke="#2DB0F6"/>
<path d="M16.7625 8.25C17.49 8.25749 18.0825 8.63208 18.4275 9.30633C18.5166 9.48425 18.6408 9.74412 18.7709 10.0183L18.9279 10.3497L19.005 10.5125L19.08 10.6773C19.11 10.7297 19.1625 10.7672 19.23 10.7672C21.03 10.7672 22.5 12.2356 22.5 14.0336V18.4836C22.5 20.2816 21.03 21.75 19.23 21.75H10.77C8.9625 21.75 7.5 20.2816 7.5 18.4836V14.0336C7.5 12.2356 8.9625 10.7672 10.77 10.7672C10.83 10.7672 10.89 10.7372 10.9125 10.6773L10.9575 10.5874C11.1675 10.1454 11.4225 9.60599 11.5725 9.30633C11.9175 8.63208 12.5025 8.25749 13.23 8.25H16.7625ZM15 13.0522C14.2125 13.0522 13.47 13.3593 12.9075 13.9212C12.3525 14.4831 12.045 15.2173 12.0525 15.9964C12.0525 16.783 12.36 17.5172 12.915 18.0791C13.4775 18.6335 14.2125 18.9406 15 18.9406C15.81 18.9406 16.545 18.611 17.0775 18.0791C17.61 17.5472 17.94 16.813 17.9475 15.9964C17.9475 15.2173 17.64 14.4756 17.085 13.9137C16.53 13.3593 15.7875 13.0522 15 13.0522ZM15 14.1759C15.4875 14.1759 15.945 14.3632 16.29 14.7078C16.635 15.0524 16.8225 15.5094 16.8225 15.9964C16.815 17.0003 16.005 17.8169 15 17.8169C14.5125 17.8169 14.055 17.6296 13.71 17.285C13.365 16.9403 13.1775 16.4834 13.1775 15.9964V15.9889C13.17 15.5169 13.3575 15.0599 13.7025 14.7153C14.055 14.3632 14.5125 14.1759 15 14.1759ZM19.2075 12.8724C18.8325 12.8724 18.5325 13.1795 18.5325 13.5541C18.5325 13.9287 18.8325 14.2284 19.2075 14.2284C19.5825 14.2284 19.89 13.9287 19.89 13.5541C19.89 13.1795 19.5825 12.8724 19.2075 12.8724Z" fill="#2DB0F6"/>
</svg>
