<svg width="36" height="36" viewBox="0 0 36 36" fill="none" xmlns="http://www.w3.org/2000/svg">
<g filter="url(#filter0_d_2326_69657)">
<path d="M15.9817 24.4988C15.9817 25.3038 15.3284 25.9572 14.5234 25.9572C13.7195 25.9572 13.0592 25.3038 13.0592 24.4988C13.0592 23.6938 13.7067 23.0405 14.5117 23.0405H14.5234C15.3284 23.0405 15.9817 23.6938 15.9817 24.4988ZM23.8567 23.0405H23.845C23.04 23.0405 22.3925 23.6938 22.3925 24.4988C22.3925 25.3038 23.0517 25.9572 23.8567 25.9572C24.6617 25.9572 25.315 25.3038 25.315 24.4988C25.315 23.6938 24.6617 23.0405 23.8567 23.0405ZM29.3224 9.90616L28.1395 17.0998C27.8327 18.7868 27.0697 20.7072 23.8333 20.7072H14.1897C12.6042 20.7072 11.238 19.523 11.014 17.9527L9.25228 5.62683C9.14961 4.91283 8.53018 4.375 7.80918 4.375H7.5C7.017 4.375 6.625 3.983 6.625 3.5C6.625 3.017 7.017 2.625 7.5 2.625H7.81032C9.39582 2.625 10.762 3.80916 10.986 5.37949L11.0933 6.125H26.1667C27.121 6.125 28.0194 6.54499 28.6307 7.27766C29.2409 8.00916 29.4939 8.96816 29.3224 9.90616ZM26.4152 16.8023L26.5399 16.0405H19.1667C18.6837 16.0405 18.2917 15.6485 18.2917 15.1655C18.2917 14.6825 18.6837 14.2905 19.1667 14.2905H26.8282L27.5982 9.60748C27.6787 9.16648 27.5643 8.73016 27.2855 8.39766C27.0066 8.06516 26.5995 7.87383 26.1655 7.87383H11.3418L12.7464 17.7053C12.8491 18.4193 13.4687 18.9572 14.1897 18.9572H23.8333C25.6965 18.9572 26.1503 18.2618 26.4152 16.8023Z" fill="#2E2E3E"/>
</g>
<defs>
<filter id="filter0_d_2326_69657" x="0" y="0" width="36" height="36" filterUnits="userSpaceOnUse" color-interpolation-filters="sRGB">
<feFlood flood-opacity="0" result="BackgroundImageFix"/>
<feColorMatrix in="SourceAlpha" type="matrix" values="0 0 0 0 0 0 0 0 0 0 0 0 0 0 0 0 0 0 127 0" result="hardAlpha"/>
<feOffset dy="4"/>
<feGaussianBlur stdDeviation="2"/>
<feComposite in2="hardAlpha" operator="out"/>
<feColorMatrix type="matrix" values="0 0 0 0 0 0 0 0 0 0 0 0 0 0 0 0 0 0 0.25 0"/>
<feBlend mode="normal" in2="BackgroundImageFix" result="effect1_dropShadow_2326_69657"/>
<feBlend mode="normal" in="SourceGraphic" in2="effect1_dropShadow_2326_69657" result="shape"/>
</filter>
</defs>
</svg>
