<svg width="18" height="18" viewBox="0 0 18 18" fill="none" xmlns="http://www.w3.org/2000/svg">
<path d="M16.2433 11.1191C15.6917 10.8066 15.0383 10.815 14.4933 11.1416L12.8517 12.1266C12.5942 11.3983 11.8983 10.875 11.0833 10.875H6.5C5.96583 10.875 5.48001 11.0667 5.09001 11.3742C4.82251 11.0708 4.43583 10.875 4 10.875H2.33333C1.52917 10.875 0.875 11.5292 0.875 12.3333V15.6667C0.875 16.4708 1.52917 17.125 2.33333 17.125H4C4.435 17.125 4.82251 16.9292 5.09001 16.6258C5.48001 16.9333 5.96583 17.125 6.5 17.125H11.1642C12.0592 17.125 12.9375 16.8167 13.6375 16.2575L16.4733 13.9883C16.8875 13.6566 17.125 13.1617 17.125 12.6317C17.125 11.9975 16.795 11.4316 16.2433 11.1191ZM4.20833 15.6667C4.20833 15.7817 4.115 15.875 4 15.875H2.33333C2.21833 15.875 2.125 15.7817 2.125 15.6667V12.3333C2.125 12.2183 2.21833 12.125 2.33333 12.125H4C4.115 12.125 4.20833 12.2183 4.20833 12.3333V13.1667V14.8333V15.6667ZM15.6917 13.0125L12.8558 15.2808C12.3775 15.6633 11.7767 15.8742 11.1633 15.8742H6.5C5.92583 15.8742 5.45833 15.4067 5.45833 14.8325V13.1659C5.45833 12.5917 5.92583 12.1242 6.5 12.1242H11.0833C11.4283 12.1242 11.7083 12.4042 11.7083 12.7492C11.7083 13.0942 11.4283 13.3742 11.0833 13.3742H8.16667C7.82167 13.3742 7.54167 13.6542 7.54167 13.9992C7.54167 14.3442 7.82167 14.6242 8.16667 14.6242H11.0833C11.7858 14.6242 12.4 14.2358 12.7208 13.6625L15.1367 12.2133C15.355 12.0808 15.5533 12.165 15.6275 12.2067C15.7017 12.2492 15.875 12.375 15.875 12.6317C15.875 12.7809 15.8083 12.92 15.6917 13.0125ZM7.13583 4.98419C6.86167 4.63669 6.70833 4.19255 6.70833 3.73755C6.70833 2.74838 7.42001 1.92502 8.35834 1.74668V1.5C8.35834 1.155 8.63834 0.875 8.98334 0.875C9.32834 0.875 9.60834 1.155 9.60834 1.5V1.74078C10.4833 1.89162 11.1767 2.60168 11.2792 3.51335C11.3175 3.85668 11.0708 4.16583 10.7283 4.20416C10.3925 4.24583 10.0758 3.99665 10.0375 3.65332C9.9925 3.25665 9.65917 2.95833 9.2625 2.95833H8.7375C8.3075 2.95833 7.95833 3.30755 7.95833 3.73755C7.95833 3.91172 8.01583 4.08084 8.12 4.2125C8.23 4.35417 8.37751 4.45003 8.54918 4.49337L9.755 4.79254C10.6608 5.02171 11.2917 5.83164 11.2917 6.76164C11.2917 7.30247 11.08 7.81169 10.6958 8.19586C10.3958 8.49586 10.0175 8.68665 9.60834 8.75749V9C9.60834 9.345 9.32834 9.625 8.98334 9.625C8.63834 9.625 8.35834 9.345 8.35834 9V8.75667C7.49834 8.59417 6.82168 7.88749 6.72085 6.98665C6.68251 6.64332 6.92916 6.33417 7.27166 6.29584C7.60666 6.255 7.92417 6.50335 7.9625 6.84668C8.0075 7.24335 8.34083 7.54167 8.7375 7.54167H9.2625C9.46917 7.54167 9.66417 7.45998 9.81167 7.31248C9.96 7.16415 10.0417 6.96912 10.0417 6.76245C10.0417 6.40495 9.79832 6.09415 9.45082 6.00582L8.24499 5.70664C7.80499 5.59498 7.41167 5.33836 7.13583 4.98419Z" fill="#585865"/>
</svg>
