<svg width="28" height="28" viewBox="0 0 28 28" fill="none" xmlns="http://www.w3.org/2000/svg">
<g id="heart">
<path id="heart_2" d="M14.0008 25.3752C13.8771 25.3752 13.7534 25.3495 13.6379 25.297C13.2564 25.1232 4.27779 20.9594 2.83812 13.5441C2.28162 10.6752 2.84046 7.87638 4.33263 6.05872C5.54013 4.58638 7.27607 3.80353 9.35391 3.79303C9.36441 3.79303 9.37491 3.79303 9.38424 3.79303C11.7549 3.79303 13.2005 5.1429 13.9996 6.29206C14.8023 5.13823 16.2594 3.78253 18.6452 3.79303C20.7242 3.80353 22.4614 4.58638 23.6701 6.05872C25.1599 7.87522 25.7175 10.674 25.1599 13.5452C23.7225 20.9605 14.7427 25.1256 14.3612 25.2982C14.2481 25.3496 14.1244 25.3752 14.0008 25.3752ZM9.3831 5.54189C9.3761 5.54189 9.37031 5.54189 9.36331 5.54189C7.80231 5.54889 6.56567 6.09604 5.686 7.1682C4.5205 8.58804 4.09931 10.8467 4.55664 13.2104C5.67081 18.9551 12.3593 22.6884 14.0008 23.526C15.6423 22.6884 22.3308 18.9551 23.4438 13.2104C23.9034 10.8456 23.4823 8.58687 22.3191 7.1682C21.4394 6.0972 20.2027 5.5512 18.6382 5.54303C18.6312 5.54303 18.6243 5.54303 18.6185 5.54303C15.8511 5.54303 14.87 8.31623 14.8303 8.43406C14.709 8.78756 14.3752 9.02786 14.0019 9.02786C13.9996 9.02786 13.9984 9.02786 13.9972 9.02786C13.6227 9.0267 13.2891 8.78754 13.1701 8.43171C13.1316 8.31504 12.1493 5.54189 9.3831 5.54189Z" fill="#2DB0F6"/>
</g>
</svg>
