<svg width="32" height="32" viewBox="0 0 32 32" fill="none" xmlns="http://www.w3.org/2000/svg">
<circle cx="16" cy="16" r="16" fill="#F2F6F8"/>
<path d="M23.3671 9.84319C22.9415 9.41736 22.4361 9.07956 21.8799 8.84909C21.3237 8.61862 20.7275 8.5 20.1254 8.5C19.5234 8.5 18.9272 8.61862 18.371 8.84909C17.8147 9.07956 17.3094 9.41736 16.8838 9.84319L16.0004 10.7265L15.1171 9.84319C14.2573 8.98344 13.0913 8.50045 11.8754 8.50045C10.6596 8.50045 9.4935 8.98344 8.63376 9.84319C7.77401 10.7029 7.29102 11.869 7.29102 13.0849C7.29102 14.3007 7.77401 15.4668 8.63376 16.3265L9.51709 17.2099L16.0004 23.6932L22.4838 17.2099L23.3671 16.3265C23.7929 15.9009 24.1307 15.3955 24.3612 14.8393C24.5917 14.2831 24.7103 13.6869 24.7103 13.0849C24.7103 12.4828 24.5917 11.8866 24.3612 11.3304C24.1307 10.7742 23.7929 10.2688 23.3671 9.84319Z" fill="#2DB0F6" stroke="#2DB0F6" stroke-width="2" stroke-linecap="round" stroke-linejoin="round"/>
</svg>
