<svg width="32" height="34" viewBox="0 0 32 34" fill="none" xmlns="http://www.w3.org/2000/svg">
<g filter="url(#filter0_d_2326_69652)">
<path d="M16.0008 25.3752C15.8771 25.3752 15.7534 25.3495 15.6379 25.297C15.2564 25.1232 6.27779 20.9594 4.83812 13.5441C4.28162 10.6752 4.84046 7.87638 6.33263 6.05872C7.54013 4.58638 9.27607 3.80353 11.3539 3.79303C11.3644 3.79303 11.3749 3.79303 11.3842 3.79303C13.7549 3.79303 15.2005 5.1429 15.9996 6.29206C16.8023 5.13823 18.2594 3.78253 20.6452 3.79303C22.7242 3.80353 24.4614 4.58638 25.6701 6.05872C27.1599 7.87522 27.7175 10.674 27.1599 13.5452C25.7225 20.9605 16.7427 25.1256 16.3612 25.2982C16.2481 25.3496 16.1244 25.3752 16.0008 25.3752ZM11.3831 5.54189C11.3761 5.54189 11.3703 5.54189 11.3633 5.54189C9.80231 5.54889 8.56567 6.09604 7.686 7.1682C6.5205 8.58804 6.09931 10.8467 6.55664 13.2104C7.67081 18.9551 14.3593 22.6884 16.0008 23.526C17.6423 22.6884 24.3308 18.9551 25.4438 13.2104C25.9034 10.8456 25.4823 8.58687 24.3191 7.1682C23.4394 6.0972 22.2027 5.5512 20.6382 5.54303C20.6312 5.54303 20.6243 5.54303 20.6185 5.54303C17.8511 5.54303 16.87 8.31623 16.8303 8.43406C16.709 8.78756 16.3752 9.02786 16.0019 9.02786C15.9996 9.02786 15.9984 9.02786 15.9972 9.02786C15.6227 9.0267 15.2891 8.78754 15.1701 8.43171C15.1316 8.31504 14.1493 5.54189 11.3831 5.54189Z" fill="#2E2E3E"/>
</g>
<defs>
<filter id="filter0_d_2326_69652" x="-2" y="0" width="36" height="36" filterUnits="userSpaceOnUse" color-interpolation-filters="sRGB">
<feFlood flood-opacity="0" result="BackgroundImageFix"/>
<feColorMatrix in="SourceAlpha" type="matrix" values="0 0 0 0 0 0 0 0 0 0 0 0 0 0 0 0 0 0 127 0" result="hardAlpha"/>
<feOffset dy="4"/>
<feGaussianBlur stdDeviation="2"/>
<feComposite in2="hardAlpha" operator="out"/>
<feColorMatrix type="matrix" values="0 0 0 0 0 0 0 0 0 0 0 0 0 0 0 0 0 0 0.25 0"/>
<feBlend mode="normal" in2="BackgroundImageFix" result="effect1_dropShadow_2326_69652"/>
<feBlend mode="normal" in="SourceGraphic" in2="effect1_dropShadow_2326_69652" result="shape"/>
</filter>
</defs>
</svg>
