<svg width="16" height="16" viewBox="0 0 16 16" fill="none" xmlns="http://www.w3.org/2000/svg">
<g id="thumbs-up" clip-path="url(#clip0_1_22257)">
<path id="Vector" d="M4.66536 7.33203L7.33203 1.33203C7.86246 1.33203 8.37117 1.54274 8.74625 1.91782C9.12132 2.29289 9.33203 2.8016 9.33203 3.33203V5.9987H13.1054C13.2986 5.99651 13.4901 6.03637 13.6664 6.11551C13.8428 6.19465 13.9998 6.31119 14.1266 6.45704C14.2534 6.60289 14.347 6.77458 14.4009 6.9602C14.4548 7.14582 14.4677 7.34094 14.4387 7.53203L13.5187 13.532C13.4705 13.85 13.309 14.1398 13.064 14.348C12.819 14.5563 12.5069 14.669 12.1854 14.6654H4.66536M4.66536 7.33203V14.6654M4.66536 7.33203H2.66536C2.31174 7.33203 1.9726 7.47251 1.72256 7.72256C1.47251 7.9726 1.33203 8.31174 1.33203 8.66536V13.332C1.33203 13.6857 1.47251 14.0248 1.72256 14.2748C1.9726 14.5249 2.31174 14.6654 2.66536 14.6654H4.66536" stroke="#949494" stroke-width="1.5" stroke-linecap="round" stroke-linejoin="round"/>
</g>
<defs>
<clipPath id="clip0_1_22257">
<rect width="16" height="16" fill="white"/>
</clipPath>
</defs>
</svg>
