<svg width="21" height="20" viewBox="0 0 21 20" fill="none" xmlns="http://www.w3.org/2000/svg">
<path fillRule="evenodd" clipRule="evenodd" d="M8.4838 7.47547H11.5788V9.01714C12.0246 8.13047 13.168 7.3338 14.8855 7.3338C18.178 7.3338 18.9596 9.0988 18.9596 12.3371V18.3346H15.6263V13.0746C15.6263 11.2305 15.1805 10.1905 14.0455 10.1905C12.4713 10.1905 11.8171 11.3113 11.8171 13.0738V18.3346H8.4838V7.47547ZM2.76797 18.193H6.1013V7.3338H2.76797V18.193ZM6.5788 3.79297C6.57893 4.07236 6.52352 4.349 6.41579 4.60679C6.30807 4.86458 6.15018 5.0984 5.9513 5.29464C5.5483 5.69516 5.00281 5.91935 4.43464 5.91797C3.86746 5.91759 3.32323 5.69397 2.91964 5.29547C2.72148 5.09856 2.56412 4.86449 2.45659 4.60666C2.34905 4.34883 2.29345 4.07232 2.29297 3.79297C2.29297 3.2288 2.51797 2.6888 2.92047 2.29047C3.32371 1.89143 3.86817 1.66772 4.43547 1.66797C5.0038 1.66797 5.5488 1.89214 5.9513 2.29047C6.35297 2.6888 6.5788 3.2288 6.5788 3.79297Z" fill="#0075B4"/>
</svg>
