<svg width="16" height="20" viewBox="0 0 16 20" fill="none" xmlns="http://www.w3.org/2000/svg">
<path d="M15.6221 6.68897C15.5425 2.81042 12.3719 0 8.07454 0C7.60962 0 7.13632 0.0335198 6.663 0.100518C3.22008 0.577998 0.577119 3.05757 0.0828581 6.26596C-0.268996 8.55288 0.46819 11.3005 2.90171 11.9204L3.25356 12.0084L3.4588 11.711C3.53001 11.6104 4.15408 10.689 4.05354 9.92667C4.00328 9.54555 3.77289 9.31099 3.63469 9.17279L3.56767 9.10575C3.18654 8.50681 3.0274 7.49322 3.18654 6.64296C3.57187 4.5487 5.31846 3.0283 7.52996 2.86076C7.68496 2.84818 7.83992 2.844 7.99074 2.844C10.2819 2.844 11.8316 4.20944 11.9405 6.32044C12.041 8.36024 11.4295 10.2199 10.3405 11.1749L10.2693 11.2377C10.0138 11.4639 9.81274 11.644 9.39389 11.7068C9.28498 11.7236 9.17607 11.732 9.07556 11.732C8.23783 11.732 7.7813 11.1791 7.76454 10.6346C7.74361 10.0231 7.98654 9.3529 8.24622 8.64087C8.56456 7.76546 8.89544 6.85655 8.77398 5.91831C8.64411 4.94659 7.76035 4.18846 6.7593 4.18846C6.5038 4.18846 6.24411 4.23872 5.9928 4.33086C4.17498 5.02195 3.90693 7.40103 4.57289 9.31936C4.41374 10.0775 4.2085 10.8272 3.99071 11.6188C3.34148 14.0021 2.66715 16.4691 3.17813 19.3592L3.29122 20L3.89019 19.7529C4.47237 19.5099 4.7865 18.9738 5.04618 18.5298C5.09644 18.4461 5.1467 18.3623 5.19278 18.2827C6.04303 16.9466 6.52051 15.3507 6.88911 13.801C7.80636 14.4921 8.74461 14.7141 10.0807 14.5675C13.775 14.1654 15.6933 10.2073 15.6221 6.68897ZM5.62429 9.39063L5.6537 9.24406L5.59926 9.10165C5.02963 7.59798 5.15944 5.76761 6.36158 5.31108C6.49143 5.26082 6.62545 5.23569 6.7553 5.23569C7.24535 5.23569 7.67676 5.59587 7.73541 6.05661C7.82756 6.74354 7.55111 7.48907 7.26211 8.28489C6.98146 9.05555 6.68828 9.85137 6.71762 10.6681C6.75111 11.6901 7.58882 12.775 9.07154 12.775C9.22652 12.775 9.38567 12.7624 9.549 12.7373C10.2736 12.6283 10.6757 12.2723 10.9647 12.0126L11.0317 11.954C12.3511 10.7938 13.1008 8.61159 12.9835 6.26183C12.8411 3.42204 10.5751 1.5791 7.45472 1.81365C4.76152 2.01891 2.63794 3.8786 2.16463 6.44615C1.95938 7.55191 2.17297 8.84615 2.69239 9.66293C2.7552 9.75926 2.8264 9.83465 2.89342 9.90167C2.9395 9.95193 3.01488 10.0231 3.01907 10.0567C3.03583 10.1991 2.94786 10.4923 2.79709 10.7813C1.28085 10.1362 0.853626 8.09643 1.11331 6.41686C1.53216 3.66921 3.81907 1.54145 6.80547 1.12677C7.2327 1.06814 7.65992 1.0388 8.07456 1.0388C11.7772 1.0388 14.5123 3.42206 14.5751 6.70581C14.6379 9.76342 13.0421 13.1896 9.97193 13.5289C9.76252 13.5498 9.56565 13.5624 9.38138 13.5624C8.26723 13.5624 7.66831 13.1771 6.94788 12.4608L6.27767 11.7948L6.07243 12.7163C5.67871 14.4671 5.22217 16.2975 4.31745 17.7215C4.2588 17.8137 4.20015 17.9142 4.1415 18.0189C4.12056 18.0566 4.09961 18.0943 4.07448 18.1278C3.90695 15.8912 4.45982 13.8639 5.00015 11.8912C5.22213 11.0744 5.45673 10.2241 5.62429 9.39063Z" fill="#B7081B"/>
</svg>
