<svg width="42" height="40" viewBox="0 0 42 40" fill="none" xmlns="http://www.w3.org/2000/svg">
<rect width="42" height="40" rx="8" fill="#2DB0F6"/>
<path d="M30.3861 20.3878C30.4695 20.3044 30.5352 20.2048 30.5805 20.0951C30.6717 19.8745 30.6717 19.6271 30.5805 19.4064C30.5352 19.2967 30.4695 19.1971 30.3861 19.1137L23.3861 12.1137C23.0345 11.7621 22.4645 11.7621 22.1129 12.1137C21.7613 12.4653 21.7613 13.0353 22.1129 13.3869L27.5768 18.8508H11.75C11.2532 18.8508 10.85 19.2539 10.85 19.7508C10.85 20.2476 11.2532 20.6508 11.75 20.6508H27.5778L22.1139 26.1147C21.7624 26.4662 21.7623 27.0361 22.1137 27.3876C22.2892 27.5642 22.5201 27.6517 22.75 27.6517C22.9805 27.6517 23.211 27.5629 23.3861 27.3878L30.3861 20.3878Z" fill="white" stroke="white" stroke-width="0.3"/>
</svg>
