<svg width="22" height="23" viewBox="0 0 22 23" fill="none" xmlns="http://www.w3.org/2000/svg">
<g id="Star">
<path id="Star 2" d="M10.5245 1.96352C10.6741 1.50287 11.3259 1.50287 11.4755 1.96353L13.3574 7.75532C13.4243 7.96133 13.6163 8.10081 13.8329 8.10081H19.9228C20.4071 8.10081 20.6085 8.72062 20.2167 9.00532L15.2899 12.5848C15.1146 12.7122 15.0413 12.9379 15.1082 13.1439L16.9901 18.9357C17.1398 19.3963 16.6125 19.7794 16.2207 19.4947L11.2939 15.9152C11.1186 15.7878 10.8814 15.7878 10.7061 15.9152L5.77931 19.4947C5.38745 19.7794 4.86021 19.3963 5.00989 18.9357L6.89176 13.1439C6.9587 12.9379 6.88537 12.7122 6.71012 12.5848L1.78333 9.00532C1.39147 8.72062 1.59286 8.10081 2.07722 8.10081H8.16708C8.38369 8.10081 8.57567 7.96133 8.6426 7.75532L10.5245 1.96352Z" fill="#EDD146"/>
</g>
</svg>
