<svg width="20" height="20" viewBox="0 0 20 20" fill="none" xmlns="http://www.w3.org/2000/svg">
<path d="M6.2825 18.7509C13.83 18.7509 17.9587 12.4971 17.9587 7.08337C17.9587 6.90837 17.9587 6.73087 17.9513 6.55587C18.7551 5.97397 19.4488 5.25356 20 4.42837C19.2491 4.75943 18.4535 4.97762 17.6388 5.07587C18.4969 4.56291 19.1397 3.75583 19.4475 2.80462C18.6412 3.28227 17.7588 3.61758 16.8387 3.79587C16.2202 3.13715 15.4018 2.70076 14.5101 2.55431C13.6185 2.40786 12.7034 2.55952 11.9067 2.98579C11.1099 3.41206 10.476 4.08915 10.1031 4.91219C9.73012 5.73523 9.63897 6.65828 9.84375 7.53837C8.21218 7.45656 6.61602 7.0327 5.1588 6.29429C3.70159 5.55589 2.41586 4.51942 1.385 3.25212C0.861675 4.15597 0.701967 5.22512 0.938308 6.24245C1.17465 7.25978 1.78932 8.14903 2.6575 8.72962C2.00692 8.70751 1.37065 8.53282 0.8 8.21962V8.27587C0.801122 9.22272 1.12913 10.1401 1.72859 10.8731C2.32805 11.606 3.16218 12.1095 4.09 12.2984C3.73783 12.3954 3.37404 12.4437 3.00875 12.4421C2.75123 12.4429 2.49423 12.419 2.24125 12.3709C2.50348 13.1859 3.01409 13.8986 3.70156 14.409C4.38903 14.9194 5.21892 15.2019 6.075 15.2171C4.62069 16.3594 2.82425 16.9789 0.975 16.9759C0.649151 16.9772 0.323529 16.9585 0 16.9196C1.87689 18.1162 4.05662 18.7516 6.2825 18.7509Z" fill="#00A6FF"/>
</svg>
