<svg width="16" height="16" viewBox="0 0 16 16" fill="none" xmlns="http://www.w3.org/2000/svg">
<g id="user-edit">
<path id="user-edit_2" d="M6.67269 7.16667C8.23536 7.16667 9.50602 5.89533 9.50602 4.33333C9.50602 2.77133 8.23536 1.5 6.67269 1.5C5.11002 1.5 3.83936 2.77133 3.83936 4.33333C3.83936 5.89533 5.11002 7.16667 6.67269 7.16667ZM6.67269 2.5C7.68402 2.5 8.50602 3.322 8.50602 4.33333C8.50602 5.34467 7.68402 6.16667 6.67269 6.16667C5.66136 6.16667 4.83936 5.34467 4.83936 4.33333C4.83936 3.322 5.66136 2.5 6.67269 2.5ZM2.5 12.0133C2.5 13.0553 2.94867 13.5 4 13.5H6.66667C6.94267 13.5 7.16667 13.724 7.16667 14C7.16667 14.276 6.94267 14.5 6.66667 14.5H4C2.388 14.5 1.5 13.6167 1.5 12.0133C1.5 10.2387 2.504 8.16667 5.33333 8.16667H8C8.568 8.16667 9.07536 8.24936 9.50936 8.41203C9.76802 8.50936 9.89868 8.79732 9.80135 9.05599C9.70402 9.31466 9.41597 9.44532 9.15731 9.34798C8.83731 9.22732 8.44733 9.16667 8 9.16667H5.33333C2.70467 9.16667 2.5 11.346 2.5 12.0133ZM14.8247 9.25065L14.082 8.50863C13.862 8.28796 13.5687 8.16667 13.2573 8.16667C13.2567 8.16667 13.2567 8.16667 13.256 8.16667C12.9434 8.16667 12.6506 8.28934 12.4313 8.51001L8.31266 12.6473C8.21866 12.7413 8.16667 12.868 8.16667 13V14.6667C8.16667 14.9427 8.39067 15.1667 8.66667 15.1667H10.3333C10.4653 15.1667 10.5927 15.114 10.686 15.0213L14.822 10.9033C15.044 10.6833 15.1667 10.39 15.1667 10.0773C15.1673 9.76464 15.0454 9.47198 14.8247 9.25065ZM10.1266 14.1667H9.16667V13.2067L11.9146 10.446L12.8866 11.4187L10.1266 14.1667ZM14.1173 10.194L13.596 10.7133L12.6207 9.7373L13.14 9.21533C13.1813 9.17333 13.2313 9.16667 13.2573 9.16667C13.2833 9.16667 13.3327 9.17333 13.3753 9.21533L14.118 9.95801C14.1607 10 14.1667 10.05 14.1667 10.0754C14.1667 10.102 14.16 10.1513 14.1173 10.194Z" fill="white"/>
</g>
</svg>
