<svg width="28" height="28" viewBox="0 0 28 28" fill="none" xmlns="http://www.w3.org/2000/svg">
<g id="user">
<path id="user_2" d="M14.0112 12.5417C11.2765 12.5417 9.05286 10.3168 9.05286 7.58333C9.05286 4.84983 11.2765 2.625 14.0112 2.625C16.7459 2.625 18.9695 4.84983 18.9695 7.58333C18.9695 10.3168 16.7459 12.5417 14.0112 12.5417ZM14.0112 4.375C12.2414 4.375 10.8029 5.8135 10.8029 7.58333C10.8029 9.35317 12.2414 10.7917 14.0112 10.7917C15.781 10.7917 17.2195 9.35317 17.2195 7.58333C17.2195 5.8135 15.7799 4.375 14.0112 4.375ZM18.6638 25.375H9.33754C6.51421 25.375 4.95898 23.8292 4.95898 21.0222C4.95898 17.9177 6.71598 14.2917 11.6673 14.2917H16.334C21.2853 14.2917 23.0423 17.9165 23.0423 21.0222C23.0423 23.8292 21.4871 25.375 18.6638 25.375ZM11.6673 16.0417C7.06715 16.0417 6.70898 19.8532 6.70898 21.0222C6.70898 22.8469 7.49538 23.625 9.33754 23.625H18.6638C20.5059 23.625 21.2923 22.8469 21.2923 21.0222C21.2923 19.8544 20.9342 16.0417 16.334 16.0417H11.6673Z" fill="#2E2E3E"/>
</g>
</svg>
