<svg width="40" height="40" viewBox="0 0 40 40" fill="none" xmlns="http://www.w3.org/2000/svg">
<rect width="40" height="40" rx="20" fill="#FF3030" fill-opacity="0.1"/>
<path d="M25.4415 24.5589C25.6856 24.8031 25.6856 25.199 25.4415 25.4431C25.3198 25.5648 25.1598 25.6264 24.9998 25.6264C24.8398 25.6264 24.6798 25.5656 24.5581 25.4431L19.9998 20.8848L15.4415 25.4431C15.3198 25.5648 15.1598 25.6264 14.9998 25.6264C14.8398 25.6264 14.6798 25.5656 14.5581 25.4431C14.314 25.199 14.314 24.8031 14.5581 24.5589L19.1165 20.0006L14.5581 15.4423C14.314 15.1982 14.314 14.8023 14.5581 14.5581C14.8023 14.314 15.1981 14.314 15.4423 14.5581L20.0006 19.1165L24.559 14.5581C24.8031 14.314 25.199 14.314 25.4431 14.5581C25.6873 14.8023 25.6873 15.1982 25.4431 15.4423L20.8848 20.0006L25.4415 24.5589Z" fill="#FF3030"/>
</svg>
