<svg width="21" height="20" viewBox="0 0 21 20" fill="none" xmlns="http://www.w3.org/2000/svg">
<path d="M8.95964 12.5013L13.2846 10.0013L8.95964 7.5013V12.5013ZM18.593 5.9763C18.7013 6.36797 18.7763 6.89297 18.8263 7.55964C18.8846 8.2263 18.9096 8.8013 18.9096 9.3013L18.9596 10.0013C18.9596 11.8263 18.8263 13.168 18.593 14.0263C18.3846 14.7763 17.9013 15.2596 17.1513 15.468C16.7596 15.5763 16.043 15.6513 14.943 15.7013C13.8596 15.7596 12.868 15.7846 11.9513 15.7846L10.6263 15.8346C7.13464 15.8346 4.95964 15.7013 4.1013 15.468C3.3513 15.2596 2.86797 14.7763 2.65964 14.0263C2.5513 13.6346 2.4763 13.1096 2.4263 12.443C2.36797 11.7763 2.34297 11.2013 2.34297 10.7013L2.29297 10.0013C2.29297 8.1763 2.4263 6.83464 2.65964 5.9763C2.86797 5.2263 3.3513 4.74297 4.1013 4.53464C4.49297 4.4263 5.20964 4.3513 6.30964 4.3013C7.39297 4.24297 8.38463 4.21797 9.3013 4.21797L10.6263 4.16797C14.118 4.16797 16.293 4.3013 17.1513 4.53464C17.9013 4.74297 18.3846 5.2263 18.593 5.9763Z" fill="#FF1D54"/>
</svg>
